{"glyphs":{"0":{"ha":875,"x_min":97,"x_max":792,"o":"m 446 -21 q 292 11 358 -21 q 183 108 226 43 q 119 272 140 174 q 97 500 97 369 q 119 722 97 628 q 183 879 140 817 q 292 973 226 942 q 446 1004 358 1004 q 598 973 533 1004 q 706 879 663 942 q 770 722 749 817 q 792 500 792 628 q 770 272 792 369 q 706 108 749 174 q 598 11 663 43 q 446 -21 533 -21 m 261 43 q 149 211 186 99 q 113 493 113 324 l 113 525 q 149 784 113 681 q 257 940 185 888 q 172 844 206 906 q 121 698 138 783 q 104 500 104 613 q 114 341 104 413 q 143 213 124 269 q 192 113 163 156 q 261 43 222 71 m 446 0 q 626 54 554 0 q 734 215 699 108 q 769 476 769 321 l 769 524 q 731 783 769 682 q 621 934 693 885 q 446 983 549 983 q 267 933 340 983 q 157 782 194 883 q 119 526 119 681 l 119 493 q 156 219 119 329 q 264 55 192 110 q 446 0 336 0 m 631 43 q 716 143 682 81 q 767 295 750 206 q 785 500 785 385 q 767 696 785 608 q 716 846 750 783 q 633 940 682 908 q 711 849 679 908 q 760 707 743 789 q 776 524 776 625 l 776 476 q 760 288 776 372 q 712 142 744 203 q 631 43 679 81 z "},"1":{"ha":424,"x_min":111,"x_max":313,"o":"m 125 0 l 125 14 l 208 35 l 208 947 l 111 947 l 111 963 l 215 1006 l 229 1006 l 229 35 l 313 14 l 313 0 l 125 0 m 215 7 l 222 7 l 222 999 l 215 999 l 215 7 z "},"2":{"ha":847,"x_min":97,"x_max":778,"o":"m 172 -21 q 122 -3 146 -21 q 97 60 97 15 q 132 184 97 132 q 222 276 167 236 q 315 334 256 300 q 458 414 374 368 q 619 519 560 468 q 703 626 678 569 q 729 758 729 683 q 694 876 729 825 q 594 955 660 926 q 438 983 529 983 q 276 956 342 983 q 177 896 211 929 q 143 844 143 863 q 158 825 143 835 q 208 801 172 815 q 265 772 249 786 q 281 733 281 757 q 268 699 281 714 q 237 678 256 685 q 196 671 218 671 q 149 679 172 671 q 112 706 126 688 q 97 751 97 724 q 116 837 97 793 q 175 919 135 881 q 281 981 215 957 q 438 1004 346 1004 q 667 937 585 1004 q 750 758 750 869 q 724 613 750 675 q 635 500 697 551 q 465 394 572 449 q 290 297 361 342 q 180 214 219 253 q 128 138 140 175 l 151 128 q 185 115 167 122 q 226 99 204 107 q 274 82 249 90 q 325 65 299 74 q 402 40 364 51 q 475 19 440 28 q 537 5 510 10 q 579 0 564 0 q 721 63 678 0 q 764 269 764 125 l 778 269 q 767 135 778 190 q 734 45 757 79 q 673 -5 711 11 q 579 -21 635 -21 q 522 -13 558 -21 q 437 10 486 -6 q 326 46 388 25 q 232 78 272 65 q 167 97 192 90 q 135 104 143 104 q 122 97 122 104 q 131 83 122 90 q 158 65 139 76 q 205 37 192 49 q 218 10 218 25 q 206 -12 218 -4 q 172 -21 193 -21 m 107 751 q 131 700 107 719 q 196 681 156 681 q 250 696 229 681 q 271 733 271 711 q 264 756 271 746 q 243 774 257 765 q 206 792 229 783 q 149 818 168 806 q 135 854 129 831 q 114 806 121 832 q 107 751 107 779 m 110 93 q 108 79 108 88 q 107 60 107 71 q 126 9 107 29 q 172 -11 146 -11 q 199 -6 189 -11 q 208 10 208 0 q 198 29 208 19 q 167 49 188 39 q 127 72 140 61 q 110 93 114 83 m 750 97 q 706 33 733 57 q 643 0 679 10 q 612 -5 628 -3 q 579 -7 596 -7 q 531 -1 561 -7 q 467 15 501 6 q 401 33 432 24 q 349 50 369 43 q 296 67 324 58 q 238 85 268 75 q 176 107 208 96 q 284 67 233 85 q 376 36 335 50 q 467 8 428 19 q 534 -8 506 -3 q 579 -14 563 -14 q 640 -8 613 -14 q 688 10 667 -3 q 725 45 710 24 q 750 97 740 67 m 322 981 q 384 990 358 988 q 438 992 410 992 q 597 963 531 992 q 701 883 664 935 q 738 758 738 831 q 710 623 738 683 q 623 511 683 563 q 463 408 563 460 q 429 390 451 403 q 385 363 407 378 q 416 379 399 371 q 447 394 433 388 q 465 403 461 401 q 594 481 540 442 q 681 562 647 519 q 729 653 714 604 q 744 758 744 701 q 707 886 744 832 q 601 969 669 940 q 438 999 532 999 q 371 993 404 999 q 322 981 338 988 z "},"3":{"ha":853,"x_min":97,"x_max":728,"o":"m 406 -21 q 267 3 325 -21 q 171 63 208 26 q 115 142 133 100 q 97 219 97 183 q 111 274 97 253 q 147 306 125 296 q 190 317 168 317 q 228 309 211 317 q 256 288 246 301 q 267 251 267 274 q 254 222 267 233 q 224 200 242 210 q 187 182 206 190 q 156 164 168 174 q 143 140 143 154 q 160 103 143 126 q 212 57 178 81 q 294 17 246 33 q 406 0 343 0 q 564 29 496 0 q 669 113 632 58 q 707 243 707 167 q 675 367 707 314 q 578 449 643 419 q 413 479 513 479 l 357 479 l 357 500 q 548 528 474 500 q 657 614 622 556 q 692 763 692 672 q 656 878 692 828 q 558 956 621 928 q 414 983 496 983 q 298 967 349 983 q 212 928 247 951 q 158 881 176 904 q 140 844 140 858 q 154 825 140 832 q 190 813 168 818 q 232 800 211 807 q 267 781 253 793 q 281 747 281 768 q 269 708 281 724 q 238 684 257 692 q 197 676 219 676 q 150 686 174 676 q 112 716 126 696 q 97 765 97 736 q 115 842 97 801 q 172 920 133 883 q 271 981 211 957 q 414 1004 331 1004 q 569 974 501 1004 q 674 889 636 943 q 713 763 713 835 q 699 657 713 703 q 655 578 685 611 q 579 526 625 546 q 471 496 533 506 l 471 493 q 572 471 525 488 q 653 424 618 454 q 708 350 688 394 q 728 243 728 306 q 713 152 728 193 q 671 79 699 111 q 603 25 643 47 q 514 -9 564 3 q 406 -21 464 -21 m 699 763 q 673 628 699 683 q 594 542 647 574 q 643 578 622 557 q 678 626 664 599 q 699 688 692 654 q 706 763 706 722 q 666 886 706 831 q 558 968 626 942 q 661 883 624 939 q 699 763 699 828 m 714 243 q 680 115 714 171 q 583 28 646 60 q 685 114 650 58 q 721 243 721 169 q 709 324 721 288 q 674 390 697 361 q 618 439 651 419 q 689 357 664 408 q 714 243 714 306 m 107 765 q 133 708 107 731 q 197 686 158 686 q 235 694 219 686 q 261 715 251 701 q 271 747 271 729 q 253 779 271 767 q 197 801 236 792 q 142 822 157 811 q 131 849 128 832 q 113 810 118 831 q 107 765 107 790 m 107 219 q 115 176 107 200 q 132 132 122 151 q 144 165 132 151 q 186 192 156 178 q 242 224 226 211 q 257 251 257 238 q 249 281 257 268 q 225 300 240 293 q 190 307 210 307 q 131 283 154 307 q 107 219 107 258 z "},"4":{"ha":792,"x_min":69,"x_max":722,"o":"m 69 264 l 69 293 q 192 397 131 342 q 297 519 254 453 q 344 618 326 565 q 363 731 363 671 q 339 828 363 796 q 288 876 315 860 q 221 924 240 904 q 201 964 201 944 q 208 985 201 976 q 225 1000 214 994 q 250 1006 236 1006 q 318 969 288 1006 q 366 870 349 932 q 383 731 383 808 q 364 620 383 675 q 311 514 344 565 q 248 431 283 471 q 172 354 213 390 q 89 286 132 318 l 89 278 l 569 283 l 569 758 l 583 1006 l 590 1006 l 590 283 l 722 285 l 722 264 l 590 264 l 590 28 l 688 14 l 688 0 l 472 0 l 472 14 l 569 28 l 569 264 l 69 264 m 217 410 q 290 492 257 450 q 344 588 322 535 q 367 656 360 621 q 375 731 375 692 q 358 865 375 806 q 313 960 342 925 q 250 996 285 996 q 222 988 232 996 q 211 964 211 979 q 229 931 211 947 q 292 886 247 914 q 337 848 319 869 q 363 797 354 826 q 371 731 371 768 q 347 600 371 660 q 287 493 322 540 q 217 410 251 446 m 576 11 l 583 11 l 583 994 l 576 758 l 576 11 z "},"5":{"ha":861,"x_min":97,"x_max":764,"o":"m 425 -21 q 288 3 349 -21 q 184 65 226 26 q 119 147 142 103 q 97 233 97 192 q 104 267 97 251 q 124 292 111 282 q 156 309 138 303 q 196 315 174 315 q 231 310 215 315 q 257 297 246 306 q 274 277 268 289 q 281 251 281 265 q 267 221 281 233 q 235 199 254 208 q 197 181 217 189 q 165 163 178 172 q 151 140 151 153 q 174 103 151 126 q 235 57 196 81 q 322 17 274 33 q 425 0 371 0 q 597 35 525 0 q 706 135 668 69 q 743 292 743 200 q 709 425 743 369 q 612 510 675 481 q 460 540 549 540 q 350 524 404 540 q 250 480 296 508 q 172 414 204 451 l 151 414 q 163 501 158 460 q 168 590 167 542 q 169 699 169 638 q 160 863 169 806 q 151 951 151 921 q 160 978 151 967 q 185 997 169 990 q 218 1004 200 1004 q 260 997 246 1004 q 274 975 274 990 q 264 951 274 961 q 240 933 254 942 q 212 917 226 925 q 188 903 197 910 q 178 888 178 896 q 186 881 178 881 q 213 887 194 881 q 264 908 231 893 q 351 947 297 922 q 433 981 397 968 q 497 999 468 993 q 551 1004 525 1004 q 635 985 599 1004 q 698 928 672 965 q 737 837 724 890 q 750 715 750 783 l 736 715 q 688 913 736 843 q 551 983 639 983 q 508 981 529 983 q 464 972 486 978 q 416 956 442 967 q 358 931 390 946 q 331 918 347 925 q 294 903 315 911 q 249 884 274 894 q 194 863 224 874 l 181 857 q 182 785 181 826 q 183 699 183 743 q 182 599 183 643 q 178 522 181 556 q 172 467 176 489 l 186 457 q 275 515 231 492 q 365 549 319 538 q 460 561 411 561 q 588 543 532 561 q 684 490 644 525 q 744 406 724 456 q 764 292 764 356 q 741 160 764 218 q 674 63 718 103 q 567 1 631 22 q 425 -21 504 -21 m 168 896 q 183 913 171 904 q 224 935 196 921 q 253 956 243 946 q 264 975 264 965 q 251 990 264 985 q 218 996 238 996 q 179 983 196 996 q 163 951 163 971 q 164 920 163 935 q 168 896 165 906 m 107 233 q 116 183 107 208 q 139 138 125 157 q 155 170 139 157 q 213 201 171 183 q 256 226 242 214 q 271 251 271 239 q 261 280 271 268 q 235 299 251 292 q 196 306 218 306 q 149 297 169 306 q 118 272 129 288 q 107 233 107 256 m 710 888 q 676 946 700 921 q 621 985 653 971 q 551 999 589 999 q 491 992 522 999 q 420 969 460 985 q 324 928 381 954 q 301 917 314 924 q 274 905 289 911 q 245 892 260 899 q 218 879 231 886 q 255 894 239 888 q 284 907 271 901 q 307 917 297 913 q 389 952 353 938 q 453 976 425 967 q 506 988 482 985 q 551 992 529 992 q 588 988 571 992 q 621 978 606 985 q 674 942 651 964 q 710 888 697 919 m 460 550 q 616 518 551 550 q 715 428 681 486 q 750 292 750 371 q 690 99 750 174 q 518 0 629 24 q 524 0 522 0 q 531 0 526 0 q 626 36 585 11 q 697 99 668 61 q 742 185 726 136 q 757 292 757 233 q 741 393 757 349 q 694 470 725 438 q 617 523 663 503 q 514 549 572 543 q 490 551 504 550 q 460 550 475 551 z "},"6":{"ha":799,"x_min":97,"x_max":688,"o":"m 421 1004 q 522 983 475 1004 q 604 929 569 963 q 658 857 639 896 q 678 782 678 818 q 662 726 678 749 q 622 693 646 704 q 572 682 597 682 q 533 689 551 682 q 504 709 515 696 q 493 742 493 722 q 503 774 493 761 q 527 798 513 788 q 559 817 542 808 q 591 833 576 825 q 615 849 606 840 q 625 867 625 857 q 612 901 625 882 q 573 940 599 921 q 509 971 547 958 q 421 983 471 983 q 217 885 290 983 q 125 604 143 786 q 121 551 122 576 q 119 499 119 525 q 118 448 118 474 q 118 396 118 422 l 128 396 q 163 456 139 421 q 225 526 188 492 q 313 584 263 561 q 428 607 364 607 q 560 571 501 607 q 653 468 618 535 q 688 311 688 401 q 667 172 688 233 q 608 67 647 110 q 515 1 569 24 q 394 -21 461 -21 q 257 4 314 -21 q 165 83 200 29 q 113 223 129 136 q 97 433 97 310 q 131 758 97 632 q 237 944 165 885 q 421 1004 308 1004 m 428 586 q 351 574 393 586 q 265 532 308 561 q 186 453 222 503 q 129 331 150 404 q 158 142 129 215 q 244 35 186 69 q 394 0 303 0 q 538 37 476 0 q 633 144 599 74 q 667 311 667 214 q 635 457 667 396 q 549 552 603 518 q 428 586 494 586 m 428 597 q 553 563 497 597 q 641 463 608 528 q 674 311 674 399 q 639 138 674 210 q 543 26 604 65 q 602 73 576 46 q 645 136 628 100 q 672 216 663 172 q 681 311 681 260 q 658 440 681 383 q 594 535 635 497 q 500 588 553 572 q 465 595 482 593 q 428 597 447 597 m 668 782 q 657 841 668 811 q 622 897 646 871 q 630 882 625 890 q 635 867 635 874 q 619 840 635 853 q 567 810 603 828 q 513 774 524 789 q 503 742 503 760 q 512 715 503 726 q 537 697 521 703 q 572 692 553 692 q 619 701 597 692 q 654 731 640 711 q 668 782 668 751 m 421 994 q 238 932 307 994 q 136 745 168 869 q 104 433 104 621 q 117 245 104 326 q 160 110 131 164 q 236 26 189 56 q 169 101 197 53 q 125 231 140 150 q 110 433 110 311 q 110 474 110 450 q 113 524 111 499 q 115 572 114 550 q 118 604 117 593 q 212 897 133 800 q 421 994 290 994 z "},"7":{"ha":806,"x_min":97,"x_max":778,"o":"m 431 -21 q 306 4 358 -21 q 224 76 253 29 q 194 185 194 122 q 220 291 194 240 q 306 399 246 342 q 467 533 365 457 q 609 649 554 599 q 697 747 664 700 q 747 846 729 793 l 724 856 q 679 874 706 864 q 620 895 653 883 q 550 919 588 907 q 464 946 504 935 q 390 966 424 957 q 333 979 357 975 q 296 983 308 983 q 205 958 240 983 q 149 872 169 932 q 114 707 129 811 l 111 644 l 97 644 l 97 983 l 117 983 l 117 822 q 176 965 136 925 q 296 1004 215 1004 q 366 995 325 1004 q 453 972 407 986 q 547 942 500 958 q 633 912 593 926 q 702 888 674 897 q 740 879 731 879 q 753 886 753 879 q 741 902 753 893 q 706 924 729 911 q 670 949 683 936 q 657 974 657 963 q 669 997 657 989 q 703 1004 681 1004 q 756 981 735 1004 q 778 924 778 957 q 769 849 778 886 q 743 779 760 811 q 648 658 717 728 q 478 514 579 589 q 322 386 379 442 q 240 283 264 331 q 215 185 215 235 q 274 50 215 100 q 431 0 332 0 q 538 29 489 0 q 620 113 586 58 q 668 242 654 168 l 681 233 q 633 99 668 156 q 547 10 599 42 q 431 -21 494 -21 m 142 886 q 185 953 163 932 q 242 985 207 975 q 296 990 263 990 q 321 989 307 990 q 352 983 335 988 q 391 974 369 979 q 439 962 413 969 q 496 944 465 954 q 557 925 525 936 q 624 902 589 914 q 699 876 660 890 q 626 904 661 892 q 558 928 590 917 q 499 949 526 940 q 374 985 422 974 q 296 997 325 997 q 196 972 231 997 q 142 886 161 947 m 564 35 q 499 3 533 14 q 431 -7 465 -7 q 269 44 329 -7 q 208 185 208 96 q 233 285 208 236 q 317 390 258 333 q 474 519 375 446 q 592 616 540 569 q 680 705 644 663 q 731 781 715 747 q 636 664 696 722 q 471 528 576 606 q 343 425 394 471 q 260 340 292 379 q 215 263 229 300 q 201 185 201 225 q 229 78 201 124 q 308 10 257 33 q 431 -14 360 -14 q 506 -1 471 -14 q 564 35 540 11 m 764 878 q 767 897 767 885 q 768 924 768 908 q 749 974 768 954 q 703 994 731 994 q 667 974 667 994 q 676 953 667 964 q 708 932 686 943 q 752 904 740 915 q 764 878 764 893 z "},"8":{"ha":822,"x_min":118,"x_max":704,"o":"m 419 -21 q 293 -3 349 -21 q 198 51 238 15 q 138 136 158 86 q 118 250 118 186 q 131 333 118 294 q 172 403 144 371 q 246 467 200 436 q 356 528 292 497 l 356 546 l 406 525 q 289 470 339 500 q 206 406 239 440 q 156 333 172 371 q 139 250 139 294 q 172 116 139 172 q 269 30 206 60 q 419 0 332 0 q 562 30 503 0 q 652 116 621 60 q 683 250 683 172 q 658 354 683 310 q 575 438 633 399 q 415 517 517 476 q 290 575 340 546 q 208 636 239 604 q 164 706 178 668 q 150 793 150 744 q 169 879 150 840 q 224 946 189 918 q 308 989 260 974 q 415 1004 357 1004 q 501 994 461 1004 q 574 964 542 983 q 631 917 607 944 q 667 856 654 890 q 679 783 679 822 q 670 728 679 756 q 643 675 661 701 q 599 624 625 649 q 538 578 572 600 q 463 536 504 556 l 463 515 l 411 539 q 490 571 447 549 q 571 625 532 593 q 634 697 610 657 q 658 783 658 738 q 627 888 658 843 q 542 958 596 932 q 415 983 488 983 q 289 959 344 983 q 202 892 233 935 q 171 793 171 850 q 195 692 171 736 q 277 610 219 647 q 433 532 335 572 q 540 483 494 507 q 616 433 585 458 q 667 381 647 408 q 695 321 686 353 q 704 250 704 289 q 685 136 704 186 q 628 51 665 86 q 539 -3 592 15 q 419 -21 486 -21 m 278 14 q 170 103 208 43 q 132 250 132 164 q 162 362 132 310 q 251 460 192 414 q 196 416 219 439 q 156 367 172 393 q 133 311 140 340 q 125 250 125 282 q 135 169 125 207 q 164 102 144 132 q 212 50 183 72 q 278 14 240 28 m 550 14 q 631 66 599 33 q 681 145 664 99 q 697 250 697 192 q 683 333 697 296 q 639 403 669 371 q 557 465 608 435 q 431 525 506 494 q 272 604 331 567 q 189 687 214 642 q 164 793 164 732 q 196 899 164 853 q 286 971 228 944 q 231 940 256 958 q 190 899 207 921 q 165 849 174 876 q 157 793 157 822 q 170 709 157 746 q 214 642 183 672 q 294 583 244 611 q 418 524 344 554 q 580 441 521 481 q 665 356 639 401 q 690 250 690 310 q 653 103 690 164 q 550 14 617 42 m 551 599 q 594 633 575 615 q 628 668 614 650 q 653 705 643 686 q 667 743 663 724 q 672 783 672 763 q 664 843 672 815 q 638 895 656 871 q 597 938 621 919 q 540 971 572 957 q 633 895 601 944 q 665 783 665 846 q 637 689 665 735 q 551 599 608 643 z "},"9":{"ha":799,"x_min":97,"x_max":688,"o":"m 364 -21 q 263 0 310 -21 q 181 54 215 21 q 126 126 146 88 q 107 201 107 165 q 123 258 107 236 q 163 290 139 279 q 213 301 188 301 q 251 294 233 301 q 281 274 269 288 q 292 242 292 261 q 282 210 292 224 q 258 185 272 196 q 226 167 243 175 q 194 151 208 158 q 169 135 179 143 q 160 117 160 126 q 173 83 160 103 q 212 44 186 63 q 276 13 238 25 q 364 0 314 0 q 569 99 496 0 q 660 379 642 197 q 664 433 663 407 q 666 484 665 458 q 667 535 667 510 q 667 588 667 561 l 657 588 q 622 527 647 563 q 560 457 597 492 q 472 399 522 422 q 357 376 421 376 q 226 413 285 376 q 132 515 167 449 q 97 672 97 582 q 117 812 97 750 q 176 917 138 874 q 269 982 215 960 q 390 1004 324 1004 q 528 979 471 1004 q 620 901 585 954 q 672 760 656 847 q 688 550 688 674 q 653 225 688 351 q 548 39 619 99 q 364 -21 476 -21 m 357 397 q 434 410 392 397 q 519 451 476 422 q 599 530 563 481 q 656 653 635 579 q 628 841 656 768 q 541 949 600 914 q 390 983 482 983 q 247 947 308 983 q 152 840 186 910 q 118 672 118 771 q 150 527 118 589 q 236 431 182 465 q 357 397 290 397 m 357 386 q 232 422 288 386 q 144 521 176 457 q 111 672 111 585 q 147 846 111 774 q 242 957 182 918 q 183 911 208 939 q 140 847 157 883 q 113 767 122 811 q 104 672 104 724 q 127 543 104 600 q 191 449 150 486 q 285 396 232 411 q 321 388 303 390 q 357 386 339 386 m 117 201 q 128 142 117 172 q 163 86 140 113 q 155 101 160 93 q 150 117 150 110 q 166 143 150 131 q 218 174 182 156 q 272 209 261 194 q 282 242 282 224 q 273 269 282 258 q 249 286 264 281 q 213 292 233 292 q 167 282 189 292 q 131 252 144 272 q 117 201 117 232 m 364 -11 q 547 51 478 -11 q 649 239 617 114 q 681 550 681 364 q 667 738 681 657 q 626 874 654 819 q 549 957 597 929 q 616 882 588 931 q 660 753 644 833 q 675 550 675 672 q 674 509 675 533 q 672 459 674 485 q 669 412 671 433 q 667 379 668 390 q 574 86 653 183 q 364 -11 496 -11 z "}," ":{"ha":417,"x_min":0,"x_max":0,"o":""},"A":{"ha":985,"x_min":28,"x_max":957,"o":"m 28 0 l 28 14 l 125 35 l 479 983 l 504 983 l 860 35 l 957 14 l 957 0 l 740 0 l 740 14 l 839 33 l 499 944 l 486 944 l 186 143 q 174 106 178 124 q 169 75 169 88 q 182 39 169 53 q 224 19 194 25 q 301 14 253 14 l 301 0 l 28 0 m 271 403 l 271 417 l 710 424 l 710 403 l 271 403 m 856 10 l 863 10 l 500 976 l 483 976 l 475 953 l 503 953 l 856 10 m 124 7 l 218 7 q 172 30 188 17 q 157 69 157 43 q 161 102 157 85 q 175 143 165 119 l 124 7 z "},"Á":{"ha":985,"x_min":28,"x_max":957,"o":"m 28 0 l 28 14 l 125 35 l 479 983 l 504 983 l 860 35 l 957 14 l 957 0 l 740 0 l 740 14 l 839 33 l 499 944 l 486 944 l 186 143 q 174 106 178 124 q 169 75 169 88 q 182 39 169 53 q 224 19 194 25 q 301 14 253 14 l 301 0 l 28 0 m 271 403 l 271 417 l 710 424 l 710 403 l 271 403 m 856 10 l 863 10 l 500 976 l 483 976 l 475 953 l 503 953 l 856 10 m 124 7 l 218 7 q 172 30 188 17 q 157 69 157 43 q 161 102 157 85 q 175 143 165 119 l 124 7 m 458 1103 l 444 1117 l 653 1290 l 667 1275 l 458 1103 m 456 1117 l 460 1113 l 656 1275 l 651 1279 l 456 1117 z "},"Ă":{"ha":985,"x_min":28,"x_max":957,"o":"m 28 0 l 28 14 l 125 35 l 479 983 l 504 983 l 860 35 l 957 14 l 957 0 l 740 0 l 740 14 l 839 33 l 499 944 l 486 944 l 186 143 q 174 106 178 124 q 169 75 169 88 q 182 39 169 53 q 224 19 194 25 q 301 14 253 14 l 301 0 l 28 0 m 271 403 l 271 417 l 710 424 l 710 403 l 271 403 m 856 10 l 863 10 l 500 976 l 483 976 l 475 953 l 503 953 l 856 10 m 124 7 l 218 7 q 172 30 188 17 q 157 69 157 43 q 161 102 157 85 q 175 143 165 119 l 124 7 m 493 1117 q 369 1153 424 1117 q 285 1256 315 1189 l 303 1263 q 349 1194 321 1222 q 413 1152 376 1167 q 493 1138 450 1138 q 574 1152 538 1138 q 638 1194 610 1167 q 683 1263 665 1222 l 701 1256 q 617 1153 671 1189 q 493 1117 563 1117 m 493 1124 q 605 1153 556 1124 q 682 1236 654 1182 q 633 1179 661 1203 q 569 1143 604 1156 q 493 1131 533 1131 q 417 1143 453 1131 q 353 1179 382 1156 q 304 1236 325 1203 q 381 1153 332 1182 q 493 1124 431 1124 z "},"Ǎ":{"ha":985,"x_min":28,"x_max":957,"o":"m 28 0 l 28 14 l 125 35 l 479 983 l 504 983 l 860 35 l 957 14 l 957 0 l 740 0 l 740 14 l 839 33 l 499 944 l 486 944 l 186 143 q 174 106 178 124 q 169 75 169 88 q 182 39 169 53 q 224 19 194 25 q 301 14 253 14 l 301 0 l 28 0 m 271 403 l 271 417 l 710 424 l 710 403 l 271 403 m 856 10 l 863 10 l 500 976 l 483 976 l 475 953 l 503 953 l 856 10 m 124 7 l 218 7 q 172 30 188 17 q 157 69 157 43 q 161 102 157 85 q 175 143 165 119 l 124 7 m 690 1276 l 701 1265 l 506 1103 l 483 1103 l 285 1265 l 297 1276 l 494 1118 l 690 1276 m 296 1265 l 483 1111 l 489 1111 l 488 1113 l 299 1268 l 296 1265 z "},"Â":{"ha":985,"x_min":28,"x_max":957,"o":"m 28 0 l 28 14 l 125 35 l 479 983 l 504 983 l 860 35 l 957 14 l 957 0 l 740 0 l 740 14 l 839 33 l 499 944 l 486 944 l 186 143 q 174 106 178 124 q 169 75 169 88 q 182 39 169 53 q 224 19 194 25 q 301 14 253 14 l 301 0 l 28 0 m 271 403 l 271 417 l 710 424 l 710 403 l 271 403 m 856 10 l 863 10 l 500 976 l 483 976 l 475 953 l 503 953 l 856 10 m 124 7 l 218 7 q 172 30 188 17 q 157 69 157 43 q 161 102 157 85 q 175 143 165 119 l 124 7 m 296 1103 l 285 1114 l 482 1276 l 504 1276 l 701 1114 l 689 1103 l 493 1261 l 296 1103 m 690 1114 l 503 1268 l 497 1268 l 499 1267 l 688 1111 l 690 1114 z "},"Ä":{"ha":985,"x_min":28,"x_max":957,"o":"m 28 0 l 28 14 l 125 35 l 479 983 l 504 983 l 860 35 l 957 14 l 957 0 l 740 0 l 740 14 l 839 33 l 499 944 l 486 944 l 186 143 q 174 106 178 124 q 169 75 169 88 q 182 39 169 53 q 224 19 194 25 q 301 14 253 14 l 301 0 l 28 0 m 271 403 l 271 417 l 710 424 l 710 403 l 271 403 m 856 10 l 863 10 l 500 976 l 483 976 l 475 953 l 503 953 l 856 10 m 124 7 l 218 7 q 172 30 188 17 q 157 69 157 43 q 161 102 157 85 q 175 143 165 119 l 124 7 m 632 1263 q 682 1246 663 1263 q 701 1203 701 1229 q 682 1160 701 1176 q 632 1144 663 1144 q 580 1160 600 1144 q 560 1203 560 1176 q 580 1246 560 1229 q 632 1263 600 1263 m 632 1157 q 673 1170 657 1157 q 689 1203 689 1183 q 673 1237 689 1224 q 632 1250 657 1250 q 589 1237 606 1250 q 572 1203 572 1224 q 589 1170 572 1183 q 632 1157 606 1157 m 354 1263 q 404 1246 385 1263 q 424 1203 424 1229 q 404 1160 424 1176 q 354 1144 385 1144 q 302 1160 322 1144 q 282 1203 282 1176 q 302 1246 282 1229 q 354 1263 322 1263 m 354 1157 q 395 1170 379 1157 q 411 1203 411 1183 q 395 1237 411 1224 q 354 1250 379 1250 q 311 1237 328 1250 q 294 1203 294 1224 q 311 1170 294 1183 q 354 1157 328 1157 z "},"À":{"ha":985,"x_min":28,"x_max":957,"o":"m 28 0 l 28 14 l 125 35 l 479 983 l 504 983 l 860 35 l 957 14 l 957 0 l 740 0 l 740 14 l 839 33 l 499 944 l 486 944 l 186 143 q 174 106 178 124 q 169 75 169 88 q 182 39 169 53 q 224 19 194 25 q 301 14 253 14 l 301 0 l 28 0 m 271 403 l 271 417 l 710 424 l 710 403 l 271 403 m 856 10 l 863 10 l 500 976 l 483 976 l 475 953 l 503 953 l 856 10 m 124 7 l 218 7 q 172 30 188 17 q 157 69 157 43 q 161 102 157 85 q 175 143 165 119 l 124 7 m 549 1103 l 340 1275 l 354 1290 l 563 1117 l 549 1103 m 551 1117 l 356 1279 l 351 1275 l 547 1113 l 551 1117 z "},"Ā":{"ha":985,"x_min":28,"x_max":957,"o":"m 28 0 l 28 14 l 125 35 l 479 983 l 504 983 l 860 35 l 957 14 l 957 0 l 740 0 l 740 14 l 839 33 l 499 944 l 486 944 l 186 143 q 174 106 178 124 q 169 75 169 88 q 182 39 169 53 q 224 19 194 25 q 301 14 253 14 l 301 0 l 28 0 m 271 403 l 271 417 l 710 424 l 710 403 l 271 403 m 856 10 l 863 10 l 500 976 l 483 976 l 475 953 l 503 953 l 856 10 m 124 7 l 218 7 q 172 30 188 17 q 157 69 157 43 q 161 102 157 85 q 175 143 165 119 l 124 7 m 271 1178 l 271 1199 l 715 1199 l 715 1178 l 271 1178 m 285 1185 l 701 1185 l 701 1192 l 285 1192 l 285 1185 z "},"Ą":{"ha":985,"x_min":28,"x_max":1006,"o":"m 28 0 l 28 14 l 125 35 l 479 983 l 504 983 l 860 35 l 957 14 l 957 0 l 740 0 l 740 14 l 839 33 l 499 944 l 486 944 l 186 143 q 174 106 178 124 q 169 75 169 88 q 182 39 169 53 q 224 19 194 25 q 301 14 253 14 l 301 0 l 28 0 m 271 403 l 271 417 l 710 424 l 710 403 l 271 403 m 856 10 l 863 10 l 500 976 l 483 976 l 475 953 l 503 953 l 856 10 m 124 7 l 218 7 q 172 30 188 17 q 157 69 157 43 q 161 102 157 85 q 175 143 165 119 l 124 7 m 957 6 q 815 -97 863 -47 q 768 -194 768 -146 q 792 -251 768 -229 q 854 -272 817 -272 q 930 -251 894 -272 q 996 -187 965 -231 l 1006 -197 q 936 -268 975 -243 q 854 -293 897 -293 q 799 -281 824 -293 q 761 -246 775 -268 q 747 -194 747 -224 q 797 -87 747 -139 q 947 14 847 -35 l 957 6 m 854 -286 q 907 -276 882 -286 q 943 -253 932 -265 q 900 -273 921 -267 q 854 -279 879 -279 q 788 -255 814 -279 q 761 -194 761 -231 q 788 -116 761 -153 q 879 -32 815 -79 q 783 -113 811 -76 q 754 -194 754 -150 q 767 -242 754 -221 q 803 -274 781 -262 q 854 -286 825 -286 z "},"Å":{"ha":985,"x_min":28,"x_max":957,"o":"m 28 0 l 28 14 l 125 35 l 479 983 l 504 983 l 860 35 l 957 14 l 957 0 l 740 0 l 740 14 l 839 33 l 499 944 l 486 944 l 186 143 q 174 106 178 124 q 169 75 169 88 q 182 39 169 53 q 224 19 194 25 q 301 14 253 14 l 301 0 l 28 0 m 271 403 l 271 417 l 710 424 l 710 403 l 271 403 m 856 10 l 863 10 l 500 976 l 483 976 l 475 953 l 503 953 l 856 10 m 124 7 l 218 7 q 172 30 188 17 q 157 69 157 43 q 161 102 157 85 q 175 143 165 119 l 124 7 m 492 1286 q 549 1274 524 1286 q 590 1241 575 1263 q 604 1192 604 1219 q 590 1142 604 1164 q 549 1107 575 1119 q 492 1094 524 1094 q 435 1107 460 1094 q 396 1142 410 1119 q 382 1192 382 1164 q 396 1241 382 1219 q 435 1274 410 1263 q 492 1286 460 1286 m 492 1265 q 428 1244 453 1265 q 403 1192 403 1224 q 428 1137 403 1158 q 492 1115 453 1115 q 557 1137 531 1115 q 583 1192 583 1158 q 557 1244 583 1224 q 492 1265 531 1265 m 449 1111 q 408 1144 424 1122 q 393 1192 393 1165 q 408 1239 393 1218 q 449 1269 424 1260 q 418 1253 431 1264 q 399 1226 406 1242 q 392 1192 392 1211 q 399 1156 392 1172 q 418 1129 406 1140 q 449 1111 431 1118 m 536 1111 q 567 1129 554 1118 q 588 1156 581 1140 q 594 1192 594 1172 q 588 1226 594 1211 q 567 1253 581 1242 q 536 1269 554 1264 q 577 1240 561 1260 q 593 1192 593 1219 q 577 1144 593 1165 q 536 1111 561 1122 z "},"Ã":{"ha":985,"x_min":28,"x_max":957,"o":"m 28 0 l 28 14 l 125 35 l 479 983 l 504 983 l 860 35 l 957 14 l 957 0 l 740 0 l 740 14 l 839 33 l 499 944 l 486 944 l 186 143 q 174 106 178 124 q 169 75 169 88 q 182 39 169 53 q 224 19 194 25 q 301 14 253 14 l 301 0 l 28 0 m 271 403 l 271 417 l 710 424 l 710 403 l 271 403 m 856 10 l 863 10 l 500 976 l 483 976 l 475 953 l 503 953 l 856 10 m 124 7 l 218 7 q 172 30 188 17 q 157 69 157 43 q 161 102 157 85 q 175 143 165 119 l 124 7 m 625 1117 q 558 1135 589 1117 q 500 1179 528 1154 q 444 1223 472 1204 q 386 1242 417 1242 q 315 1212 340 1242 q 268 1119 289 1182 l 250 1122 q 281 1199 263 1168 q 325 1247 299 1231 q 386 1263 351 1263 q 449 1244 419 1263 q 508 1200 479 1225 q 565 1156 536 1175 q 625 1138 594 1138 q 685 1167 665 1138 q 718 1260 704 1197 l 736 1257 q 714 1178 728 1210 q 679 1132 700 1147 q 625 1117 658 1117 m 625 1124 q 664 1132 647 1124 q 693 1158 681 1140 q 713 1204 706 1175 q 681 1148 701 1165 q 625 1131 660 1131 q 562 1149 592 1131 q 504 1193 532 1168 q 448 1237 476 1218 q 386 1256 419 1256 q 317 1233 343 1256 q 274 1163 290 1210 q 317 1227 290 1206 q 386 1249 343 1249 q 447 1230 418 1249 q 503 1186 475 1211 q 560 1142 531 1161 q 625 1124 590 1124 z "},"Æ":{"ha":1307,"x_min":28,"x_max":1203,"o":"m 492 0 l 492 14 l 589 35 l 589 983 l 1203 983 l 1156 672 l 1135 672 l 1157 882 q 1144 945 1163 928 q 1072 963 1125 963 l 610 963 l 610 511 l 872 511 q 896 517 886 511 q 911 535 906 524 q 921 589 918 550 q 924 692 924 628 l 938 692 l 938 356 l 924 356 l 915 490 l 610 490 l 610 21 l 1096 21 q 1158 42 1143 21 q 1165 115 1172 63 l 1135 338 l 1156 338 l 1203 0 l 492 0 m 28 0 l 28 14 l 125 35 l 565 954 l 492 969 l 492 983 l 592 983 l 592 947 l 583 949 l 199 143 q 190 123 193 133 q 183 103 186 113 q 179 87 181 94 q 178 72 178 79 q 191 38 178 51 q 234 19 204 25 q 314 14 264 14 l 314 0 l 28 0 m 125 7 l 233 7 q 184 28 200 14 q 168 69 168 43 q 173 94 168 78 q 190 139 178 110 q 222 213 203 168 l 218 213 l 125 7 m 315 403 l 315 417 l 592 424 l 592 403 l 315 403 m 596 7 l 603 7 l 603 976 l 596 976 l 596 7 m 1096 10 l 1192 10 l 1146 328 l 1175 117 q 1166 35 1183 60 q 1096 10 1149 10 m 928 400 l 928 539 q 926 526 928 533 q 924 513 925 519 q 922 500 924 507 l 928 400 m 1147 682 l 1192 974 l 1072 974 q 1151 953 1129 974 q 1167 881 1172 932 l 1147 682 z "},"B":{"ha":929,"x_min":111,"x_max":846,"o":"m 479 983 q 651 957 583 983 q 751 878 718 931 q 783 746 783 826 q 768 654 783 694 q 726 586 753 614 q 665 542 700 558 q 589 519 629 525 l 589 513 q 688 493 642 508 q 770 448 735 478 q 826 372 806 418 q 846 260 846 326 q 824 147 846 196 q 760 65 803 97 q 653 17 718 33 q 501 0 589 0 l 111 0 l 111 14 l 208 35 l 208 949 l 111 969 l 111 983 l 479 983 m 479 961 q 335 958 397 961 q 229 949 272 956 l 229 33 q 501 21 303 21 q 682 47 610 21 q 790 127 754 74 q 825 260 825 181 q 751 437 825 375 q 500 501 678 499 l 218 506 l 218 519 l 500 524 q 657 558 600 525 q 738 641 714 590 q 763 746 763 692 q 694 908 763 854 q 479 961 625 961 m 215 7 l 222 7 l 222 976 l 215 976 l 215 7 m 618 21 q 716 50 675 31 q 785 99 757 69 q 826 169 813 129 q 839 260 839 208 q 824 358 839 317 q 780 428 808 400 q 714 474 751 457 q 632 499 676 490 q 783 417 733 478 q 832 260 832 356 q 776 99 832 158 q 618 21 721 40 m 621 533 q 699 573 664 546 q 755 643 733 600 q 776 746 776 686 q 758 849 776 806 q 702 921 740 893 q 603 961 664 949 q 726 890 683 943 q 769 746 769 836 q 734 621 769 681 q 621 533 699 561 z "},"C":{"ha":1007,"x_min":111,"x_max":896,"o":"m 893 190 q 804 76 860 124 q 678 4 749 29 q 526 -21 608 -21 q 352 13 429 -21 q 221 113 275 47 q 139 273 167 179 q 111 486 111 367 q 142 694 111 600 q 231 858 174 789 q 366 966 288 928 q 538 1004 444 1004 q 686 988 619 1004 q 806 939 753 972 q 896 856 858 906 l 831 533 l 808 533 l 839 729 q 826 874 853 818 q 728 956 799 929 q 538 983 657 983 q 374 947 449 983 q 245 844 299 911 q 162 687 192 778 q 132 486 132 596 q 159 282 132 372 q 237 128 186 192 q 360 33 288 65 q 526 0 433 0 q 729 53 636 0 q 879 200 822 106 l 893 190 m 400 969 q 250 868 314 938 q 152 701 186 799 q 118 486 118 603 q 146 275 118 368 q 226 117 174 182 q 355 19 279 53 q 526 -14 431 -14 q 669 9 601 -14 q 785 75 736 32 q 664 15 731 36 q 526 -7 597 -7 q 358 26 432 -7 q 231 124 283 60 q 152 278 179 188 q 125 486 125 369 q 158 698 125 601 q 253 865 192 794 q 400 969 315 936 m 849 728 l 819 543 l 822 543 l 886 853 q 826 912 860 886 q 754 956 793 938 q 849 728 875 894 z "},"Ć":{"ha":1007,"x_min":111,"x_max":896,"o":"m 893 190 q 804 76 860 124 q 678 4 749 29 q 526 -21 608 -21 q 352 13 429 -21 q 221 113 275 47 q 139 273 167 179 q 111 486 111 367 q 142 694 111 600 q 231 858 174 789 q 366 966 288 928 q 538 1004 444 1004 q 686 988 619 1004 q 806 939 753 972 q 896 856 858 906 l 831 533 l 808 533 l 839 729 q 826 874 853 818 q 728 956 799 929 q 538 983 657 983 q 374 947 449 983 q 245 844 299 911 q 162 687 192 778 q 132 486 132 596 q 159 282 132 372 q 237 128 186 192 q 360 33 288 65 q 526 0 433 0 q 729 53 636 0 q 879 200 822 106 l 893 190 m 400 969 q 250 868 314 938 q 152 701 186 799 q 118 486 118 603 q 146 275 118 368 q 226 117 174 182 q 355 19 279 53 q 526 -14 431 -14 q 669 9 601 -14 q 785 75 736 32 q 664 15 731 36 q 526 -7 597 -7 q 358 26 432 -7 q 231 124 283 60 q 152 278 179 188 q 125 486 125 369 q 158 698 125 601 q 253 865 192 794 q 400 969 315 936 m 849 728 l 819 543 l 822 543 l 886 853 q 826 912 860 886 q 754 956 793 938 q 849 728 875 894 m 503 1103 l 489 1117 l 697 1290 l 711 1275 l 503 1103 m 500 1117 l 504 1113 l 700 1275 l 696 1279 l 500 1117 z "},"Č":{"ha":1007,"x_min":111,"x_max":896,"o":"m 893 190 q 804 76 860 124 q 678 4 749 29 q 526 -21 608 -21 q 352 13 429 -21 q 221 113 275 47 q 139 273 167 179 q 111 486 111 367 q 142 694 111 600 q 231 858 174 789 q 366 966 288 928 q 538 1004 444 1004 q 686 988 619 1004 q 806 939 753 972 q 896 856 858 906 l 831 533 l 808 533 l 839 729 q 826 874 853 818 q 728 956 799 929 q 538 983 657 983 q 374 947 449 983 q 245 844 299 911 q 162 687 192 778 q 132 486 132 596 q 159 282 132 372 q 237 128 186 192 q 360 33 288 65 q 526 0 433 0 q 729 53 636 0 q 879 200 822 106 l 893 190 m 400 969 q 250 868 314 938 q 152 701 186 799 q 118 486 118 603 q 146 275 118 368 q 226 117 174 182 q 355 19 279 53 q 526 -14 431 -14 q 669 9 601 -14 q 785 75 736 32 q 664 15 731 36 q 526 -7 597 -7 q 358 26 432 -7 q 231 124 283 60 q 152 278 179 188 q 125 486 125 369 q 158 698 125 601 q 253 865 192 794 q 400 969 315 936 m 849 728 l 819 543 l 822 543 l 886 853 q 826 912 860 886 q 754 956 793 938 q 849 728 875 894 m 735 1276 l 746 1265 l 550 1103 l 528 1103 l 329 1265 l 342 1276 l 539 1118 l 735 1276 m 340 1265 l 528 1111 l 533 1111 l 532 1113 l 343 1268 l 340 1265 z "},"Ç":{"ha":1007,"x_min":111,"x_max":896,"o":"m 893 190 q 804 76 860 124 q 678 4 749 29 q 526 -21 608 -21 q 352 13 429 -21 q 221 113 275 47 q 139 273 167 179 q 111 486 111 367 q 142 694 111 600 q 231 858 174 789 q 366 966 288 928 q 538 1004 444 1004 q 686 988 619 1004 q 806 939 753 972 q 896 856 858 906 l 831 533 l 808 533 l 839 729 q 826 874 853 818 q 728 956 799 929 q 538 983 657 983 q 374 947 449 983 q 245 844 299 911 q 162 687 192 778 q 132 486 132 596 q 159 282 132 372 q 237 128 186 192 q 360 33 288 65 q 526 0 433 0 q 729 53 636 0 q 879 200 822 106 l 893 190 m 400 969 q 250 868 314 938 q 152 701 186 799 q 118 486 118 603 q 146 275 118 368 q 226 117 174 182 q 355 19 279 53 q 526 -14 431 -14 q 669 9 601 -14 q 785 75 736 32 q 664 15 731 36 q 526 -7 597 -7 q 358 26 432 -7 q 231 124 283 60 q 152 278 179 188 q 125 486 125 369 q 158 698 125 601 q 253 865 192 794 q 400 969 315 936 m 849 728 l 819 543 l 822 543 l 886 853 q 826 912 860 886 q 754 956 793 938 q 849 728 875 894 m 554 -299 q 469 -275 506 -299 q 418 -208 433 -251 l 432 -194 q 479 -256 447 -233 q 554 -278 511 -278 q 602 -266 582 -278 q 634 -232 622 -254 q 646 -182 646 -210 q 635 -136 646 -157 q 605 -99 625 -115 q 555 -73 585 -82 q 488 -64 525 -64 l 510 -10 l 531 -10 l 522 -32 l 533 -47 q 606 -74 576 -56 q 651 -119 636 -92 q 667 -182 667 -146 q 652 -242 667 -215 q 613 -283 638 -268 q 554 -299 588 -299 m 554 -289 q 631 -259 601 -289 q 660 -182 660 -229 q 652 -140 660 -158 q 628 -108 644 -122 q 589 -86 613 -94 q 637 -124 621 -100 q 653 -182 653 -149 q 639 -238 653 -214 q 599 -275 625 -262 q 540 -287 574 -287 q 545 -289 542 -289 q 554 -289 549 -289 z "},"Ċ":{"ha":1007,"x_min":111,"x_max":896,"o":"m 893 190 q 804 76 860 124 q 678 4 749 29 q 526 -21 608 -21 q 352 13 429 -21 q 221 113 275 47 q 139 273 167 179 q 111 486 111 367 q 142 694 111 600 q 231 858 174 789 q 366 966 288 928 q 538 1004 444 1004 q 686 988 619 1004 q 806 939 753 972 q 896 856 858 906 l 831 533 l 808 533 l 839 729 q 826 874 853 818 q 728 956 799 929 q 538 983 657 983 q 374 947 449 983 q 245 844 299 911 q 162 687 192 778 q 132 486 132 596 q 159 282 132 372 q 237 128 186 192 q 360 33 288 65 q 526 0 433 0 q 729 53 636 0 q 879 200 822 106 l 893 190 m 400 969 q 250 868 314 938 q 152 701 186 799 q 118 486 118 603 q 146 275 118 368 q 226 117 174 182 q 355 19 279 53 q 526 -14 431 -14 q 669 9 601 -14 q 785 75 736 32 q 664 15 731 36 q 526 -7 597 -7 q 358 26 432 -7 q 231 124 283 60 q 152 278 179 188 q 125 486 125 369 q 158 698 125 601 q 253 865 192 794 q 400 969 315 936 m 849 728 l 819 543 l 822 543 l 886 853 q 826 912 860 886 q 754 956 793 938 q 849 728 875 894 m 539 1263 q 589 1246 569 1263 q 608 1203 608 1229 q 589 1160 608 1176 q 539 1144 569 1144 q 487 1160 507 1144 q 467 1203 467 1176 q 487 1246 467 1229 q 539 1263 507 1263 m 539 1157 q 580 1170 564 1157 q 596 1203 596 1183 q 580 1237 596 1224 q 539 1250 564 1250 q 496 1237 513 1250 q 479 1203 479 1224 q 496 1170 479 1183 q 539 1157 513 1157 z "},"D":{"ha":1022,"x_min":111,"x_max":911,"o":"m 481 983 q 721 930 625 983 q 864 768 817 876 q 911 496 911 660 q 865 219 911 329 q 724 55 818 110 q 488 0 631 0 l 111 0 l 111 14 l 208 35 l 208 949 l 111 969 l 111 983 l 481 983 m 481 961 q 348 958 418 961 q 229 949 278 954 l 229 49 l 257 21 l 488 21 q 790 139 690 21 q 890 496 890 257 q 845 756 890 653 q 709 910 800 858 q 481 961 618 961 m 215 7 l 222 7 l 222 976 l 215 976 l 215 7 m 676 43 q 803 136 753 75 q 880 287 854 197 q 906 496 906 376 q 881 699 906 611 q 806 847 856 786 q 681 940 756 907 q 843 778 789 889 q 897 496 897 668 q 842 205 897 318 q 676 43 788 92 z "},"Ď":{"ha":1022,"x_min":111,"x_max":911,"o":"m 481 983 q 721 930 625 983 q 864 768 817 876 q 911 496 911 660 q 865 219 911 329 q 724 55 818 110 q 488 0 631 0 l 111 0 l 111 14 l 208 35 l 208 949 l 111 969 l 111 983 l 481 983 m 481 961 q 348 958 418 961 q 229 949 278 954 l 229 49 l 257 21 l 488 21 q 790 139 690 21 q 890 496 890 257 q 845 756 890 653 q 709 910 800 858 q 481 961 618 961 m 215 7 l 222 7 l 222 976 l 215 976 l 215 7 m 676 43 q 803 136 753 75 q 880 287 854 197 q 906 496 906 376 q 881 699 906 611 q 806 847 856 786 q 681 940 756 907 q 843 778 789 889 q 897 496 897 668 q 842 205 897 318 q 676 43 788 92 m 678 1276 l 689 1265 l 493 1103 l 471 1103 l 272 1265 l 285 1276 l 482 1118 l 678 1276 m 283 1265 l 471 1111 l 476 1111 l 475 1113 l 286 1268 l 283 1265 z "},"Đ":{"ha":1022,"x_min":111,"x_max":911,"o":"m 481 983 q 721 930 625 983 q 864 768 817 876 q 911 496 911 660 q 865 219 911 329 q 724 55 818 110 q 488 0 631 0 l 111 0 l 111 14 l 208 35 l 208 949 l 111 969 l 111 983 l 481 983 m 481 961 q 348 958 418 961 q 229 949 278 954 l 229 49 l 257 21 l 488 21 q 790 139 690 21 q 890 496 890 257 q 845 756 890 653 q 709 910 800 858 q 481 961 618 961 m 215 7 l 222 7 l 222 976 l 215 976 l 215 7 m 676 43 q 803 136 753 75 q 880 287 854 197 q 906 496 906 376 q 881 699 906 611 q 806 847 856 786 q 681 940 756 907 q 843 778 789 889 q 897 496 897 668 q 842 205 897 318 q 676 43 788 92 m 678 1276 l 689 1265 l 493 1103 l 471 1103 l 272 1265 l 285 1276 l 482 1118 l 678 1276 m 283 1265 l 471 1111 l 476 1111 l 475 1113 l 286 1268 l 283 1265 z "},"Ð":{"ha":1022,"x_min":111,"x_max":911,"o":"m 111 503 l 468 503 l 468 482 l 111 482 l 111 503 m 125 489 l 454 489 l 454 496 l 125 496 l 125 489 m 481 983 q 721 930 625 983 q 864 768 817 876 q 911 496 911 660 q 865 219 911 329 q 724 55 818 110 q 488 0 631 0 l 111 0 l 111 14 l 208 35 l 208 949 l 111 969 l 111 983 l 481 983 m 481 961 q 348 958 418 961 q 229 949 278 954 l 229 49 l 257 21 l 488 21 q 790 139 690 21 q 890 496 890 257 q 845 756 890 653 q 709 910 800 858 q 481 961 618 961 m 215 7 l 222 7 l 222 976 l 215 976 l 215 7 m 676 43 q 803 136 753 75 q 880 287 854 197 q 906 496 906 376 q 881 699 906 611 q 806 847 856 786 q 681 940 756 907 q 843 778 789 889 q 897 496 897 668 q 842 205 897 318 q 676 43 788 92 z "},"E":{"ha":926,"x_min":111,"x_max":822,"o":"m 111 0 l 111 14 l 208 35 l 208 949 l 111 969 l 111 983 l 822 983 l 775 672 l 754 672 l 776 882 q 763 945 782 928 q 692 963 744 963 l 229 963 l 229 511 l 492 511 q 515 517 504 511 q 531 535 525 524 q 540 585 538 546 q 543 692 543 624 l 557 692 l 557 356 l 543 356 l 535 490 l 229 490 l 229 21 l 715 21 q 777 42 763 21 q 785 115 792 63 l 754 338 l 775 338 l 822 0 l 111 0 m 215 7 l 222 7 l 222 976 l 215 976 l 215 7 m 542 500 l 547 400 l 547 539 q 547 526 547 533 q 545 513 546 519 q 542 500 544 507 m 715 10 l 811 10 l 765 328 l 794 117 q 785 35 803 60 q 715 10 768 10 m 767 682 l 811 974 l 692 974 q 770 953 749 974 q 786 881 792 932 l 767 682 z "},"É":{"ha":926,"x_min":111,"x_max":822,"o":"m 111 0 l 111 14 l 208 35 l 208 949 l 111 969 l 111 983 l 822 983 l 775 672 l 754 672 l 776 882 q 763 945 782 928 q 692 963 744 963 l 229 963 l 229 511 l 492 511 q 515 517 504 511 q 531 535 525 524 q 540 585 538 546 q 543 692 543 624 l 557 692 l 557 356 l 543 356 l 535 490 l 229 490 l 229 21 l 715 21 q 777 42 763 21 q 785 115 792 63 l 754 338 l 775 338 l 822 0 l 111 0 m 215 7 l 222 7 l 222 976 l 215 976 l 215 7 m 542 500 l 547 400 l 547 539 q 547 526 547 533 q 545 513 546 519 q 542 500 544 507 m 715 10 l 811 10 l 765 328 l 794 117 q 785 35 803 60 q 715 10 768 10 m 767 682 l 811 974 l 692 974 q 770 953 749 974 q 786 881 792 932 l 767 682 m 457 1103 l 443 1117 l 651 1290 l 665 1275 l 457 1103 m 454 1117 l 458 1113 l 654 1275 l 650 1279 l 454 1117 z "},"Ě":{"ha":926,"x_min":111,"x_max":822,"o":"m 111 0 l 111 14 l 208 35 l 208 949 l 111 969 l 111 983 l 822 983 l 775 672 l 754 672 l 776 882 q 763 945 782 928 q 692 963 744 963 l 229 963 l 229 511 l 492 511 q 515 517 504 511 q 531 535 525 524 q 540 585 538 546 q 543 692 543 624 l 557 692 l 557 356 l 543 356 l 535 490 l 229 490 l 229 21 l 715 21 q 777 42 763 21 q 785 115 792 63 l 754 338 l 775 338 l 822 0 l 111 0 m 215 7 l 222 7 l 222 976 l 215 976 l 215 7 m 542 500 l 547 400 l 547 539 q 547 526 547 533 q 545 513 546 519 q 542 500 544 507 m 715 10 l 811 10 l 765 328 l 794 117 q 785 35 803 60 q 715 10 768 10 m 767 682 l 811 974 l 692 974 q 770 953 749 974 q 786 881 792 932 l 767 682 m 689 1276 l 700 1265 l 504 1103 l 482 1103 l 283 1265 l 296 1276 l 493 1118 l 689 1276 m 294 1265 l 482 1111 l 488 1111 l 486 1113 l 297 1268 l 294 1265 z "},"Ê":{"ha":926,"x_min":111,"x_max":822,"o":"m 111 0 l 111 14 l 208 35 l 208 949 l 111 969 l 111 983 l 822 983 l 775 672 l 754 672 l 776 882 q 763 945 782 928 q 692 963 744 963 l 229 963 l 229 511 l 492 511 q 515 517 504 511 q 531 535 525 524 q 540 585 538 546 q 543 692 543 624 l 557 692 l 557 356 l 543 356 l 535 490 l 229 490 l 229 21 l 715 21 q 777 42 763 21 q 785 115 792 63 l 754 338 l 775 338 l 822 0 l 111 0 m 215 7 l 222 7 l 222 976 l 215 976 l 215 7 m 542 500 l 547 400 l 547 539 q 547 526 547 533 q 545 513 546 519 q 542 500 544 507 m 715 10 l 811 10 l 765 328 l 794 117 q 785 35 803 60 q 715 10 768 10 m 767 682 l 811 974 l 692 974 q 770 953 749 974 q 786 881 792 932 l 767 682 m 294 1103 l 283 1114 l 481 1276 l 503 1276 l 700 1114 l 688 1103 l 492 1261 l 294 1103 m 689 1114 l 501 1268 l 496 1268 l 497 1267 l 686 1111 l 689 1114 z "},"Ë":{"ha":926,"x_min":111,"x_max":822,"o":"m 111 0 l 111 14 l 208 35 l 208 949 l 111 969 l 111 983 l 822 983 l 775 672 l 754 672 l 776 882 q 763 945 782 928 q 692 963 744 963 l 229 963 l 229 511 l 492 511 q 515 517 504 511 q 531 535 525 524 q 540 585 538 546 q 543 692 543 624 l 557 692 l 557 356 l 543 356 l 535 490 l 229 490 l 229 21 l 715 21 q 777 42 763 21 q 785 115 792 63 l 754 338 l 775 338 l 822 0 l 111 0 m 215 7 l 222 7 l 222 976 l 215 976 l 215 7 m 542 500 l 547 400 l 547 539 q 547 526 547 533 q 545 513 546 519 q 542 500 544 507 m 715 10 l 811 10 l 765 328 l 794 117 q 785 35 803 60 q 715 10 768 10 m 767 682 l 811 974 l 692 974 q 770 953 749 974 q 786 881 792 932 l 767 682 m 631 1263 q 681 1246 661 1263 q 700 1203 700 1229 q 681 1160 700 1176 q 631 1144 661 1144 q 578 1160 599 1144 q 558 1203 558 1176 q 578 1246 558 1229 q 631 1263 599 1263 m 631 1157 q 672 1170 656 1157 q 688 1203 688 1183 q 672 1237 688 1224 q 631 1250 656 1250 q 588 1237 604 1250 q 571 1203 571 1224 q 588 1170 571 1183 q 631 1157 604 1157 m 353 1263 q 403 1246 383 1263 q 422 1203 422 1229 q 403 1160 422 1176 q 353 1144 383 1144 q 301 1160 321 1144 q 281 1203 281 1176 q 301 1246 281 1229 q 353 1263 321 1263 m 353 1157 q 394 1170 378 1157 q 410 1203 410 1183 q 394 1237 410 1224 q 353 1250 378 1250 q 310 1237 326 1250 q 293 1203 293 1224 q 310 1170 293 1183 q 353 1157 326 1157 z "},"Ė":{"ha":926,"x_min":111,"x_max":822,"o":"m 111 0 l 111 14 l 208 35 l 208 949 l 111 969 l 111 983 l 822 983 l 775 672 l 754 672 l 776 882 q 763 945 782 928 q 692 963 744 963 l 229 963 l 229 511 l 492 511 q 515 517 504 511 q 531 535 525 524 q 540 585 538 546 q 543 692 543 624 l 557 692 l 557 356 l 543 356 l 535 490 l 229 490 l 229 21 l 715 21 q 777 42 763 21 q 785 115 792 63 l 754 338 l 775 338 l 822 0 l 111 0 m 215 7 l 222 7 l 222 976 l 215 976 l 215 7 m 542 500 l 547 400 l 547 539 q 547 526 547 533 q 545 513 546 519 q 542 500 544 507 m 715 10 l 811 10 l 765 328 l 794 117 q 785 35 803 60 q 715 10 768 10 m 767 682 l 811 974 l 692 974 q 770 953 749 974 q 786 881 792 932 l 767 682 m 493 1263 q 543 1246 524 1263 q 563 1203 563 1229 q 543 1160 563 1176 q 493 1144 524 1144 q 441 1160 461 1144 q 421 1203 421 1176 q 441 1246 421 1229 q 493 1263 461 1263 m 493 1157 q 534 1170 518 1157 q 550 1203 550 1183 q 534 1237 550 1224 q 493 1250 518 1250 q 450 1237 467 1250 q 433 1203 433 1224 q 450 1170 433 1183 q 493 1157 467 1157 z "},"È":{"ha":926,"x_min":111,"x_max":822,"o":"m 111 0 l 111 14 l 208 35 l 208 949 l 111 969 l 111 983 l 822 983 l 775 672 l 754 672 l 776 882 q 763 945 782 928 q 692 963 744 963 l 229 963 l 229 511 l 492 511 q 515 517 504 511 q 531 535 525 524 q 540 585 538 546 q 543 692 543 624 l 557 692 l 557 356 l 543 356 l 535 490 l 229 490 l 229 21 l 715 21 q 777 42 763 21 q 785 115 792 63 l 754 338 l 775 338 l 822 0 l 111 0 m 215 7 l 222 7 l 222 976 l 215 976 l 215 7 m 542 500 l 547 400 l 547 539 q 547 526 547 533 q 545 513 546 519 q 542 500 544 507 m 715 10 l 811 10 l 765 328 l 794 117 q 785 35 803 60 q 715 10 768 10 m 767 682 l 811 974 l 692 974 q 770 953 749 974 q 786 881 792 932 l 767 682 m 547 1103 l 339 1275 l 353 1290 l 561 1117 l 547 1103 m 550 1117 l 354 1279 l 350 1275 l 546 1113 l 550 1117 z "},"Ē":{"ha":926,"x_min":111,"x_max":822,"o":"m 111 0 l 111 14 l 208 35 l 208 949 l 111 969 l 111 983 l 822 983 l 775 672 l 754 672 l 776 882 q 763 945 782 928 q 692 963 744 963 l 229 963 l 229 511 l 492 511 q 515 517 504 511 q 531 535 525 524 q 540 585 538 546 q 543 692 543 624 l 557 692 l 557 356 l 543 356 l 535 490 l 229 490 l 229 21 l 715 21 q 777 42 763 21 q 785 115 792 63 l 754 338 l 775 338 l 822 0 l 111 0 m 215 7 l 222 7 l 222 976 l 215 976 l 215 7 m 542 500 l 547 400 l 547 539 q 547 526 547 533 q 545 513 546 519 q 542 500 544 507 m 715 10 l 811 10 l 765 328 l 794 117 q 785 35 803 60 q 715 10 768 10 m 767 682 l 811 974 l 692 974 q 770 953 749 974 q 786 881 792 932 l 767 682 m 269 1178 l 269 1199 l 714 1199 l 714 1178 l 269 1178 m 283 1185 l 700 1185 l 700 1192 l 283 1192 l 283 1185 z "},"Ę":{"ha":926,"x_min":111,"x_max":869,"o":"m 111 0 l 111 14 l 208 35 l 208 949 l 111 969 l 111 983 l 822 983 l 775 672 l 754 672 l 776 882 q 763 945 782 928 q 692 963 744 963 l 229 963 l 229 511 l 492 511 q 515 517 504 511 q 531 535 525 524 q 540 585 538 546 q 543 692 543 624 l 557 692 l 557 356 l 543 356 l 535 490 l 229 490 l 229 21 l 715 21 q 777 42 763 21 q 785 115 792 63 l 754 338 l 775 338 l 822 0 l 111 0 m 215 7 l 222 7 l 222 976 l 215 976 l 215 7 m 542 500 l 547 400 l 547 539 q 547 526 547 533 q 545 513 546 519 q 542 500 544 507 m 715 10 l 811 10 l 765 328 l 794 117 q 785 35 803 60 q 715 10 768 10 m 767 682 l 811 974 l 692 974 q 770 953 749 974 q 786 881 792 932 l 767 682 m 821 6 q 679 -97 726 -47 q 632 -194 632 -146 q 656 -251 632 -229 q 718 -272 681 -272 q 794 -251 758 -272 q 860 -187 829 -231 l 869 -197 q 800 -268 839 -243 q 718 -293 761 -293 q 663 -281 688 -293 q 625 -246 639 -268 q 611 -194 611 -224 q 661 -87 611 -139 q 811 14 711 -35 l 821 6 m 718 -286 q 771 -276 746 -286 q 807 -253 796 -265 q 764 -273 785 -267 q 718 -279 743 -279 q 651 -255 678 -279 q 625 -194 625 -231 q 652 -116 625 -153 q 743 -32 679 -79 q 647 -113 675 -76 q 618 -194 618 -150 q 631 -242 618 -221 q 667 -274 644 -262 q 718 -286 689 -286 z "},"F":{"ha":831,"x_min":111,"x_max":822,"o":"m 111 0 l 111 14 l 208 35 l 208 949 l 111 969 l 111 983 l 822 983 l 775 672 l 754 672 l 776 882 q 763 945 782 928 q 692 963 744 963 l 229 963 l 229 511 l 519 511 q 542 517 532 511 q 558 535 553 524 q 568 585 565 546 q 571 692 571 624 l 585 692 l 585 356 l 571 356 l 563 490 l 229 490 l 229 35 l 326 14 l 326 0 l 111 0 m 215 7 l 222 7 l 222 976 l 215 976 l 215 7 m 569 500 l 575 400 l 575 539 q 574 526 575 533 q 573 513 574 519 q 569 500 572 507 m 767 682 l 811 974 l 692 974 q 770 953 749 974 q 786 881 792 932 l 767 682 z "},"G":{"ha":1021,"x_min":111,"x_max":910,"o":"m 692 411 l 692 425 l 865 425 l 865 65 q 791 30 831 46 q 709 3 751 14 q 624 -15 667 -8 q 540 -21 581 -21 q 392 2 460 -21 q 273 70 325 25 q 185 181 221 115 q 130 329 149 246 q 111 514 111 413 q 142 712 111 622 q 227 867 172 801 q 358 968 282 932 q 525 1004 433 1004 q 641 995 588 1004 q 741 967 694 986 q 829 921 788 949 q 910 856 871 893 l 844 533 l 822 533 l 850 701 q 843 828 863 775 q 779 916 824 882 q 669 967 735 950 q 525 983 604 983 q 366 949 438 983 q 242 851 294 914 q 160 703 189 789 q 132 514 132 617 q 151 335 132 417 q 204 192 169 254 q 290 87 239 129 q 406 22 340 44 q 547 0 471 0 q 688 16 613 0 q 844 67 763 32 l 844 390 l 692 411 m 435 3 q 268 95 338 28 q 162 268 199 163 q 125 514 125 374 q 151 700 125 615 q 227 849 178 785 q 343 949 276 913 q 179 781 240 896 q 118 514 118 667 q 139 320 118 407 q 200 169 160 233 q 299 62 240 104 q 435 3 358 19 m 851 68 q 856 69 854 69 q 858 71 857 69 l 858 418 l 851 418 l 851 68 m 838 547 l 899 853 q 852 892 876 874 q 803 924 828 910 q 751 951 778 939 q 694 971 724 963 q 801 913 760 951 q 858 822 842 875 q 863 701 874 768 l 838 547 z "},"Ğ":{"ha":1021,"x_min":111,"x_max":910,"o":"m 692 411 l 692 425 l 865 425 l 865 65 q 791 30 831 46 q 709 3 751 14 q 624 -15 667 -8 q 540 -21 581 -21 q 392 2 460 -21 q 273 70 325 25 q 185 181 221 115 q 130 329 149 246 q 111 514 111 413 q 142 712 111 622 q 227 867 172 801 q 358 968 282 932 q 525 1004 433 1004 q 641 995 588 1004 q 741 967 694 986 q 829 921 788 949 q 910 856 871 893 l 844 533 l 822 533 l 850 701 q 843 828 863 775 q 779 916 824 882 q 669 967 735 950 q 525 983 604 983 q 366 949 438 983 q 242 851 294 914 q 160 703 189 789 q 132 514 132 617 q 151 335 132 417 q 204 192 169 254 q 290 87 239 129 q 406 22 340 44 q 547 0 471 0 q 688 16 613 0 q 844 67 763 32 l 844 390 l 692 411 m 435 3 q 268 95 338 28 q 162 268 199 163 q 125 514 125 374 q 151 700 125 615 q 227 849 178 785 q 343 949 276 913 q 179 781 240 896 q 118 514 118 667 q 139 320 118 407 q 200 169 160 233 q 299 62 240 104 q 435 3 358 19 m 851 68 q 856 69 854 69 q 858 71 857 69 l 858 418 l 851 418 l 851 68 m 838 547 l 899 853 q 852 892 876 874 q 803 924 828 910 q 751 951 778 939 q 694 971 724 963 q 801 913 760 951 q 858 822 842 875 q 863 701 874 768 l 838 547 m 525 1117 q 401 1153 456 1117 q 317 1256 347 1189 l 335 1263 q 381 1194 353 1222 q 445 1152 408 1167 q 525 1138 482 1138 q 606 1152 569 1138 q 669 1194 642 1167 q 715 1263 697 1222 l 733 1256 q 649 1153 703 1189 q 525 1117 594 1117 m 525 1124 q 637 1153 588 1124 q 714 1236 686 1182 q 665 1179 693 1203 q 601 1143 636 1156 q 525 1131 565 1131 q 449 1143 485 1131 q 385 1179 414 1156 q 336 1236 357 1203 q 413 1153 364 1182 q 525 1124 463 1124 z "},"Ģ":{"ha":1021,"x_min":111,"x_max":910,"o":"m 692 411 l 692 425 l 865 425 l 865 65 q 791 30 831 46 q 709 3 751 14 q 624 -15 667 -8 q 540 -21 581 -21 q 392 2 460 -21 q 273 70 325 25 q 185 181 221 115 q 130 329 149 246 q 111 514 111 413 q 142 712 111 622 q 227 867 172 801 q 358 968 282 932 q 525 1004 433 1004 q 641 995 588 1004 q 741 967 694 986 q 829 921 788 949 q 910 856 871 893 l 844 533 l 822 533 l 850 701 q 843 828 863 775 q 779 916 824 882 q 669 967 735 950 q 525 983 604 983 q 366 949 438 983 q 242 851 294 914 q 160 703 189 789 q 132 514 132 617 q 151 335 132 417 q 204 192 169 254 q 290 87 239 129 q 406 22 340 44 q 547 0 471 0 q 688 16 613 0 q 844 67 763 32 l 844 390 l 692 411 m 435 3 q 268 95 338 28 q 162 268 199 163 q 125 514 125 374 q 151 700 125 615 q 227 849 178 785 q 343 949 276 913 q 179 781 240 896 q 118 514 118 667 q 139 320 118 407 q 200 169 160 233 q 299 62 240 104 q 435 3 358 19 m 851 68 q 856 69 854 69 q 858 71 857 69 l 858 418 l 851 418 l 851 68 m 838 547 l 899 853 q 852 892 876 874 q 803 924 828 910 q 751 951 778 939 q 694 971 724 963 q 801 913 760 951 q 858 822 842 875 q 863 701 874 768 l 838 547 m 478 -285 l 472 -272 q 509 -254 492 -264 q 541 -232 526 -244 q 564 -207 556 -219 l 550 -194 l 544 -194 q 510 -186 525 -194 q 488 -163 496 -178 q 479 -129 479 -149 q 488 -98 479 -111 q 513 -77 497 -85 q 549 -69 529 -69 q 583 -78 568 -69 q 607 -100 599 -86 q 615 -132 615 -114 q 607 -178 615 -157 q 581 -219 599 -200 q 538 -255 564 -239 q 478 -285 513 -271 m 576 -203 q 595 -169 589 -187 q 601 -132 601 -151 q 594 -106 601 -117 q 576 -88 588 -94 q 547 -82 564 -82 q 518 -88 531 -82 q 498 -105 506 -94 q 490 -129 490 -115 q 497 -156 490 -144 q 516 -175 504 -168 q 543 -182 528 -182 q 549 -182 546 -182 q 553 -182 551 -182 l 576 -203 z "},"Ġ":{"ha":1021,"x_min":111,"x_max":910,"o":"m 692 411 l 692 425 l 865 425 l 865 65 q 791 30 831 46 q 709 3 751 14 q 624 -15 667 -8 q 540 -21 581 -21 q 392 2 460 -21 q 273 70 325 25 q 185 181 221 115 q 130 329 149 246 q 111 514 111 413 q 142 712 111 622 q 227 867 172 801 q 358 968 282 932 q 525 1004 433 1004 q 641 995 588 1004 q 741 967 694 986 q 829 921 788 949 q 910 856 871 893 l 844 533 l 822 533 l 850 701 q 843 828 863 775 q 779 916 824 882 q 669 967 735 950 q 525 983 604 983 q 366 949 438 983 q 242 851 294 914 q 160 703 189 789 q 132 514 132 617 q 151 335 132 417 q 204 192 169 254 q 290 87 239 129 q 406 22 340 44 q 547 0 471 0 q 688 16 613 0 q 844 67 763 32 l 844 390 l 692 411 m 435 3 q 268 95 338 28 q 162 268 199 163 q 125 514 125 374 q 151 700 125 615 q 227 849 178 785 q 343 949 276 913 q 179 781 240 896 q 118 514 118 667 q 139 320 118 407 q 200 169 160 233 q 299 62 240 104 q 435 3 358 19 m 851 68 q 856 69 854 69 q 858 71 857 69 l 858 418 l 851 418 l 851 68 m 838 547 l 899 853 q 852 892 876 874 q 803 924 828 910 q 751 951 778 939 q 694 971 724 963 q 801 913 760 951 q 858 822 842 875 q 863 701 874 768 l 838 547 m 526 1263 q 576 1246 557 1263 q 596 1203 596 1229 q 576 1160 596 1176 q 526 1144 557 1144 q 474 1160 494 1144 q 454 1203 454 1176 q 474 1246 454 1229 q 526 1263 494 1263 m 526 1157 q 567 1170 551 1157 q 583 1203 583 1183 q 567 1237 583 1224 q 526 1250 551 1250 q 483 1237 500 1250 q 467 1203 467 1224 q 483 1170 467 1183 q 526 1157 500 1157 z "},"H":{"ha":1083,"x_min":111,"x_max":972,"o":"m 972 983 l 972 969 l 875 949 l 875 35 l 972 14 l 972 0 l 757 0 l 757 14 l 854 35 l 854 949 l 757 969 l 757 983 l 972 983 m 326 983 l 326 969 l 229 949 l 229 35 l 326 14 l 326 0 l 111 0 l 111 14 l 208 35 l 208 949 l 111 969 l 111 983 l 326 983 m 861 483 l 861 461 l 221 461 l 221 475 l 861 483 m 215 7 l 222 7 l 222 976 l 215 976 l 215 7 m 861 7 l 868 7 l 868 976 l 861 976 l 861 7 z "},"Ħ":{"ha":1083,"x_min":111,"x_max":972,"o":"m 111 761 l 972 761 l 972 740 l 111 740 l 111 761 m 125 747 l 958 747 l 958 754 l 125 754 l 125 747 m 972 983 l 972 969 l 875 949 l 875 35 l 972 14 l 972 0 l 757 0 l 757 14 l 854 35 l 854 949 l 757 969 l 757 983 l 972 983 m 326 983 l 326 969 l 229 949 l 229 35 l 326 14 l 326 0 l 111 0 l 111 14 l 208 35 l 208 949 l 111 969 l 111 983 l 326 983 m 861 483 l 861 461 l 221 461 l 221 475 l 861 483 m 215 7 l 222 7 l 222 976 l 215 976 l 215 7 m 861 7 l 868 7 l 868 976 l 861 976 l 861 7 z "},"I":{"ha":438,"x_min":111,"x_max":326,"o":"m 326 983 l 326 969 l 229 949 l 229 35 l 326 14 l 326 0 l 111 0 l 111 14 l 208 35 l 208 949 l 111 969 l 111 983 l 326 983 m 215 7 l 222 7 l 222 976 l 215 976 l 215 7 z "},"Ĳ":{"ha":946,"x_min":111,"x_max":840,"o":"m 326 983 l 326 969 l 229 949 l 229 35 l 326 14 l 326 0 l 111 0 l 111 14 l 208 35 l 208 949 l 111 969 l 111 983 l 326 983 m 215 7 l 222 7 l 222 976 l 215 976 l 215 7 m 644 -21 q 541 10 582 -21 q 479 85 500 42 q 458 165 458 129 q 463 206 458 186 q 479 240 468 225 q 507 263 490 254 q 549 271 524 271 q 586 265 568 271 q 616 247 604 260 q 628 214 628 235 q 617 172 628 186 q 590 152 607 157 q 555 145 574 147 q 519 140 536 143 q 492 128 503 138 q 482 97 482 119 q 499 67 482 92 q 551 22 515 43 q 644 0 588 0 q 724 19 690 0 q 780 76 758 38 q 810 173 801 115 q 813 308 818 231 l 813 949 l 674 969 l 674 983 l 833 983 l 833 308 q 821 125 840 199 q 758 15 801 51 q 644 -21 714 -21 m 476 108 q 491 137 476 125 q 531 150 506 149 q 563 155 550 153 q 586 160 576 157 q 610 178 603 165 q 618 214 618 192 q 599 248 618 235 q 549 261 579 261 q 510 254 526 261 q 485 234 494 247 q 472 203 476 221 q 468 165 468 186 q 469 138 468 151 q 476 108 471 124 m 735 14 q 794 75 772 36 q 824 172 815 114 q 826 308 832 231 l 826 976 l 819 976 l 819 308 q 817 172 825 231 q 788 75 808 114 q 735 14 767 36 z "},"Í":{"ha":438,"x_min":111,"x_max":393,"o":"m 326 983 l 326 969 l 229 949 l 229 35 l 326 14 l 326 0 l 111 0 l 111 14 l 208 35 l 208 949 l 111 969 l 111 983 l 326 983 m 215 7 l 222 7 l 222 976 l 215 976 l 215 7 m 185 1103 l 171 1117 l 379 1290 l 393 1275 l 185 1103 m 182 1117 l 186 1113 l 382 1275 l 378 1279 l 182 1117 z "},"Î":{"ha":438,"x_min":11,"x_max":428,"o":"m 326 983 l 326 969 l 229 949 l 229 35 l 326 14 l 326 0 l 111 0 l 111 14 l 208 35 l 208 949 l 111 969 l 111 983 l 326 983 m 215 7 l 222 7 l 222 976 l 215 976 l 215 7 m 22 1103 l 11 1114 l 208 1276 l 231 1276 l 428 1114 l 415 1103 l 219 1261 l 22 1103 m 417 1114 l 229 1268 l 224 1268 l 225 1267 l 414 1111 l 417 1114 z "},"Ï":{"ha":438,"x_min":8,"x_max":428,"o":"m 326 983 l 326 969 l 229 949 l 229 35 l 326 14 l 326 0 l 111 0 l 111 14 l 208 35 l 208 949 l 111 969 l 111 983 l 326 983 m 215 7 l 222 7 l 222 976 l 215 976 l 215 7 m 358 1263 q 408 1246 389 1263 q 428 1203 428 1229 q 408 1160 428 1176 q 358 1144 389 1144 q 306 1160 326 1144 q 286 1203 286 1176 q 306 1246 286 1229 q 358 1263 326 1263 m 358 1157 q 399 1170 383 1157 q 415 1203 415 1183 q 399 1237 415 1224 q 358 1250 383 1250 q 315 1237 332 1250 q 299 1203 299 1224 q 315 1170 299 1183 q 358 1157 332 1157 m 81 1263 q 131 1246 111 1263 q 150 1203 150 1229 q 131 1160 150 1176 q 81 1144 111 1144 q 28 1160 49 1144 q 8 1203 8 1176 q 28 1246 8 1229 q 81 1263 49 1263 m 81 1157 q 122 1170 106 1157 q 138 1203 138 1183 q 122 1237 138 1224 q 81 1250 106 1250 q 38 1237 54 1250 q 21 1203 21 1224 q 38 1170 21 1183 q 81 1157 54 1157 z "},"İ":{"ha":438,"x_min":111,"x_max":326,"o":"m 326 983 l 326 969 l 229 949 l 229 35 l 326 14 l 326 0 l 111 0 l 111 14 l 208 35 l 208 949 l 111 969 l 111 983 l 326 983 m 215 7 l 222 7 l 222 976 l 215 976 l 215 7 m 221 1263 q 271 1246 251 1263 q 290 1203 290 1229 q 271 1160 290 1176 q 221 1144 251 1144 q 169 1160 189 1144 q 149 1203 149 1176 q 169 1246 149 1229 q 221 1263 189 1263 m 221 1157 q 262 1170 246 1157 q 278 1203 278 1183 q 262 1237 278 1224 q 221 1250 246 1250 q 178 1237 194 1250 q 161 1203 161 1224 q 178 1170 161 1183 q 221 1157 194 1157 z "},"Ì":{"ha":438,"x_min":67,"x_max":326,"o":"m 326 983 l 326 969 l 229 949 l 229 35 l 326 14 l 326 0 l 111 0 l 111 14 l 208 35 l 208 949 l 111 969 l 111 983 l 326 983 m 215 7 l 222 7 l 222 976 l 215 976 l 215 7 m 275 1103 l 67 1275 l 81 1290 l 289 1117 l 275 1103 m 278 1117 l 82 1279 l 78 1275 l 274 1113 l 278 1117 z "},"Ī":{"ha":438,"x_min":-3,"x_max":442,"o":"m 326 983 l 326 969 l 229 949 l 229 35 l 326 14 l 326 0 l 111 0 l 111 14 l 208 35 l 208 949 l 111 969 l 111 983 l 326 983 m 215 7 l 222 7 l 222 976 l 215 976 l 215 7 m -3 1178 l -3 1199 l 442 1199 l 442 1178 l -3 1178 m 11 1185 l 428 1185 l 428 1192 l 11 1192 l 11 1185 z "},"Į":{"ha":438,"x_min":111,"x_max":374,"o":"m 326 983 l 326 969 l 229 949 l 229 35 l 326 14 l 326 0 l 111 0 l 111 14 l 208 35 l 208 949 l 111 969 l 111 983 l 326 983 m 215 7 l 222 7 l 222 976 l 215 976 l 215 7 m 325 6 q 183 -97 231 -47 q 136 -194 136 -146 q 160 -251 136 -229 q 222 -272 185 -272 q 298 -251 263 -272 q 364 -187 333 -231 l 374 -197 q 304 -268 343 -243 q 222 -293 265 -293 q 167 -281 192 -293 q 129 -246 143 -268 q 115 -194 115 -224 q 165 -87 115 -139 q 315 14 215 -35 l 325 6 m 222 -286 q 275 -276 250 -286 q 311 -253 300 -265 q 268 -273 289 -267 q 222 -279 247 -279 q 156 -255 182 -279 q 129 -194 129 -231 q 156 -116 129 -153 q 247 -32 183 -79 q 151 -113 179 -76 q 122 -194 122 -150 q 135 -242 122 -221 q 171 -274 149 -262 q 222 -286 193 -286 z "},"J":{"ha":550,"x_min":63,"x_max":444,"o":"m 249 -21 q 145 10 186 -21 q 83 85 104 42 q 63 165 63 129 q 67 206 63 186 q 83 240 72 225 q 111 263 94 254 q 153 271 128 271 q 190 265 172 271 q 220 247 208 260 q 232 214 232 235 q 222 172 232 186 q 194 152 211 157 q 159 145 178 147 q 124 140 140 143 q 97 128 107 138 q 86 97 86 119 q 103 67 86 92 q 156 22 119 43 q 249 0 192 0 q 328 19 294 0 q 384 76 363 38 q 414 173 406 115 q 417 308 422 231 l 417 949 l 278 969 l 278 983 l 438 983 l 438 308 q 425 125 444 199 q 362 15 406 51 q 249 -21 318 -21 m 81 108 q 95 137 81 125 q 135 150 110 149 q 167 155 154 153 q 190 160 181 157 q 215 178 207 165 q 222 214 222 192 q 203 248 222 235 q 153 261 183 261 q 115 254 131 261 q 90 234 99 247 q 76 203 81 221 q 72 165 72 186 q 74 138 72 151 q 81 108 75 124 m 339 14 q 398 75 376 36 q 428 172 419 114 q 431 308 436 231 l 431 976 l 424 976 l 424 308 q 421 172 429 231 q 392 75 413 114 q 339 14 371 36 z "},"K":{"ha":924,"x_min":111,"x_max":917,"o":"m 871 -21 q 824 3 849 -21 q 766 85 799 28 q 688 238 733 142 q 623 350 657 304 q 549 424 589 396 q 456 464 508 451 q 335 476 403 476 l 229 476 l 229 35 l 326 14 l 326 0 l 111 0 l 111 14 l 208 35 l 208 949 l 111 969 l 111 983 l 229 983 l 229 494 q 292 496 261 494 q 354 497 324 497 q 456 522 407 497 q 549 586 506 546 q 625 672 592 626 q 679 762 657 717 q 713 847 701 807 q 725 914 725 886 q 701 956 725 942 q 632 969 676 969 l 632 983 l 844 983 l 844 969 l 751 949 q 739 865 751 914 q 702 763 726 817 q 640 658 678 708 q 578 586 613 619 q 505 529 543 553 q 424 494 467 506 l 424 488 q 514 467 474 482 q 588 423 554 451 q 651 352 622 394 q 708 250 681 310 q 783 102 753 157 q 838 24 814 47 q 885 0 863 0 q 917 8 900 0 l 917 -6 q 901 -15 908 -11 q 885 -19 893 -18 q 871 -21 878 -21 m 667 976 q 715 958 697 976 q 732 914 732 940 q 719 842 732 883 q 684 756 707 801 q 632 669 661 711 q 531 561 585 603 q 415 500 476 519 q 532 556 475 514 q 635 663 589 599 q 720 824 690 740 q 743 976 750 908 l 667 976 m 424 476 q 533 442 485 469 q 621 366 581 415 q 694 242 661 317 q 770 90 739 146 q 826 10 801 35 q 872 -14 850 -14 q 906 -4 896 -14 q 897 -6 903 -6 q 882 -7 890 -7 q 835 17 860 -7 q 778 96 810 40 q 701 246 746 151 q 633 365 669 317 q 551 440 596 413 q 451 476 507 468 l 424 476 m 215 7 l 222 7 l 222 976 l 215 976 l 215 7 z "},"Ķ":{"ha":924,"x_min":111,"x_max":917,"o":"m 871 -21 q 824 3 849 -21 q 766 85 799 28 q 688 238 733 142 q 623 350 657 304 q 549 424 589 396 q 456 464 508 451 q 335 476 403 476 l 229 476 l 229 35 l 326 14 l 326 0 l 111 0 l 111 14 l 208 35 l 208 949 l 111 969 l 111 983 l 229 983 l 229 494 q 292 496 261 494 q 354 497 324 497 q 456 522 407 497 q 549 586 506 546 q 625 672 592 626 q 679 762 657 717 q 713 847 701 807 q 725 914 725 886 q 701 956 725 942 q 632 969 676 969 l 632 983 l 844 983 l 844 969 l 751 949 q 739 865 751 914 q 702 763 726 817 q 640 658 678 708 q 578 586 613 619 q 505 529 543 553 q 424 494 467 506 l 424 488 q 514 467 474 482 q 588 423 554 451 q 651 352 622 394 q 708 250 681 310 q 783 102 753 157 q 838 24 814 47 q 885 0 863 0 q 917 8 900 0 l 917 -6 q 901 -15 908 -11 q 885 -19 893 -18 q 871 -21 878 -21 m 667 976 q 715 958 697 976 q 732 914 732 940 q 719 842 732 883 q 684 756 707 801 q 632 669 661 711 q 531 561 585 603 q 415 500 476 519 q 532 556 475 514 q 635 663 589 599 q 720 824 690 740 q 743 976 750 908 l 667 976 m 424 476 q 533 442 485 469 q 621 366 581 415 q 694 242 661 317 q 770 90 739 146 q 826 10 801 35 q 872 -14 850 -14 q 906 -4 896 -14 q 897 -6 903 -6 q 882 -7 890 -7 q 835 17 860 -7 q 778 96 810 40 q 701 246 746 151 q 633 365 669 317 q 551 440 596 413 q 451 476 507 468 l 424 476 m 215 7 l 222 7 l 222 976 l 215 976 l 215 7 m 463 -285 l 457 -272 q 494 -254 476 -264 q 526 -232 511 -244 q 549 -207 540 -219 l 535 -194 l 529 -194 q 495 -186 510 -194 q 472 -163 481 -178 q 464 -129 464 -149 q 473 -98 464 -111 q 498 -77 482 -85 q 533 -69 514 -69 q 568 -78 553 -69 q 592 -100 583 -86 q 600 -132 600 -114 q 592 -178 600 -157 q 566 -219 583 -200 q 523 -255 549 -239 q 463 -285 497 -271 m 561 -203 q 580 -169 574 -187 q 586 -132 586 -151 q 579 -106 586 -117 q 560 -88 572 -94 q 532 -82 549 -82 q 503 -88 515 -82 q 483 -105 490 -94 q 475 -129 475 -115 q 482 -156 475 -144 q 501 -175 489 -168 q 528 -182 513 -182 q 533 -182 531 -182 q 538 -182 536 -182 l 561 -203 z "},"L":{"ha":836,"x_min":111,"x_max":767,"o":"m 111 0 l 111 14 l 208 28 l 208 956 l 111 969 l 111 983 l 326 983 l 326 969 l 229 956 l 229 21 l 649 21 q 691 35 674 21 q 717 79 708 49 q 722 160 725 110 l 713 338 l 733 338 l 767 0 l 111 0 m 215 7 l 222 7 l 222 976 l 215 976 l 215 7 m 756 10 l 725 328 l 732 160 q 713 46 735 81 q 649 10 692 11 l 756 10 z "},"Ĺ":{"ha":836,"x_min":111,"x_max":767,"o":"m 111 0 l 111 14 l 208 28 l 208 956 l 111 969 l 111 983 l 326 983 l 326 969 l 229 956 l 229 21 l 649 21 q 691 35 674 21 q 717 79 708 49 q 722 160 725 110 l 713 338 l 733 338 l 767 0 l 111 0 m 215 7 l 222 7 l 222 976 l 215 976 l 215 7 m 756 10 l 725 328 l 732 160 q 713 46 735 81 q 649 10 692 11 l 756 10 m 189 1103 l 175 1117 l 383 1290 l 397 1275 l 189 1103 m 186 1117 l 190 1113 l 386 1275 l 382 1279 l 186 1117 z "},"Ľ":{"ha":836,"x_min":111,"x_max":767,"o":"m 111 0 l 111 14 l 208 28 l 208 956 l 111 969 l 111 983 l 326 983 l 326 969 l 229 956 l 229 21 l 649 21 q 691 35 674 21 q 717 79 708 49 q 722 160 725 110 l 713 338 l 733 338 l 767 0 l 111 0 m 215 7 l 222 7 l 222 976 l 215 976 l 215 7 m 756 10 l 725 328 l 732 160 q 713 46 735 81 q 649 10 692 11 l 756 10 m 674 772 l 674 1001 l 721 1001 l 679 772 l 674 772 m 685 858 l 710 992 l 683 992 l 683 858 l 685 858 z "},"Ļ":{"ha":836,"x_min":111,"x_max":767,"o":"m 111 0 l 111 14 l 208 28 l 208 956 l 111 969 l 111 983 l 326 983 l 326 969 l 229 956 l 229 21 l 649 21 q 691 35 674 21 q 717 79 708 49 q 722 160 725 110 l 713 338 l 733 338 l 767 0 l 111 0 m 215 7 l 222 7 l 222 976 l 215 976 l 215 7 m 756 10 l 725 328 l 732 160 q 713 46 735 81 q 649 10 692 11 l 756 10 m 404 -285 l 399 -272 q 435 -254 418 -264 q 467 -232 453 -244 q 490 -207 482 -219 l 476 -194 l 471 -194 q 437 -186 451 -194 q 414 -163 422 -178 q 406 -129 406 -149 q 415 -98 406 -111 q 440 -77 424 -85 q 475 -69 456 -69 q 510 -78 494 -69 q 533 -100 525 -86 q 542 -132 542 -114 q 533 -178 542 -157 q 508 -219 525 -200 q 465 -255 490 -239 q 404 -285 439 -271 m 503 -203 q 522 -169 515 -187 q 528 -132 528 -151 q 521 -106 528 -117 q 502 -88 514 -94 q 474 -82 490 -82 q 444 -88 457 -82 q 424 -105 432 -94 q 417 -129 417 -115 q 424 -156 417 -144 q 442 -175 431 -168 q 469 -182 454 -182 q 475 -182 472 -182 q 479 -182 478 -182 l 503 -203 z "},"Ŀ":{"ha":850,"x_min":111,"x_max":767,"o":"m 111 0 l 111 14 l 208 28 l 208 956 l 111 969 l 111 983 l 326 983 l 326 969 l 229 956 l 229 21 l 649 21 q 691 35 674 21 q 717 79 708 49 q 722 160 725 110 l 713 338 l 733 338 l 767 0 l 111 0 m 215 7 l 222 7 l 222 976 l 215 976 l 215 7 m 756 10 l 725 328 l 732 160 q 713 46 735 81 q 649 10 692 11 l 756 10 m 646 603 q 676 596 661 603 q 702 576 692 589 q 713 540 713 563 q 702 506 713 521 q 676 485 692 492 q 646 478 661 478 q 614 485 631 478 q 587 506 597 492 q 576 540 576 521 q 587 576 576 563 q 614 596 597 589 q 646 603 631 603 m 646 490 q 671 496 658 490 q 692 513 683 501 q 700 540 700 524 q 692 569 700 558 q 671 585 683 581 q 646 590 658 590 q 620 585 633 590 q 598 569 607 581 q 589 540 589 558 q 598 513 589 524 q 620 496 607 501 q 646 490 633 490 z "},"Ł":{"ha":836,"x_min":71,"x_max":767,"o":"m 79 468 l 71 482 l 406 667 l 415 651 l 79 468 m 82 482 l 85 478 l 404 653 l 401 657 l 82 482 m 111 0 l 111 14 l 208 28 l 208 956 l 111 969 l 111 983 l 326 983 l 326 969 l 229 956 l 229 21 l 649 21 q 691 35 674 21 q 717 79 708 49 q 722 160 725 110 l 713 338 l 733 338 l 767 0 l 111 0 m 215 7 l 222 7 l 222 976 l 215 976 l 215 7 m 756 10 l 725 328 l 732 160 q 713 46 735 81 q 649 10 692 11 l 756 10 z "},"M":{"ha":1265,"x_min":111,"x_max":1196,"o":"m 111 0 l 111 14 l 208 35 l 208 949 l 111 969 l 111 983 l 210 983 l 668 17 l 656 29 l 688 29 l 675 17 l 1093 983 l 1196 983 l 1196 969 l 1099 949 l 1099 35 l 1196 14 l 1196 0 l 981 0 l 981 14 l 1078 35 l 1078 847 l 1056 847 l 690 0 l 654 0 l 253 847 l 229 847 l 229 169 q 234 100 229 128 q 251 55 239 72 q 284 28 263 38 q 340 17 306 19 q 424 14 375 14 l 424 0 l 111 0 m 217 10 l 347 10 q 273 23 301 10 q 232 67 244 36 q 219 147 219 97 l 219 179 l 217 179 l 217 10 m 218 857 l 256 857 l 657 10 l 689 10 l 694 24 l 656 24 l 219 944 l 218 944 l 218 857 m 1049 857 l 1085 857 l 1085 10 l 1090 10 l 1090 947 l 1083 933 l 1049 857 z "},"N":{"ha":1128,"x_min":111,"x_max":1058,"o":"m 111 0 l 111 14 l 208 35 l 208 869 q 180 928 208 899 q 111 969 151 957 l 111 983 l 171 983 l 925 56 l 940 56 l 940 833 q 935 886 940 864 q 916 924 929 908 q 882 950 903 940 q 831 965 861 960 q 760 969 800 969 l 760 983 l 1058 983 l 1058 969 l 961 949 l 961 0 l 947 0 l 243 861 l 229 861 l 229 124 q 235 81 229 99 q 254 49 242 63 q 288 28 267 36 q 339 17 308 21 q 410 14 369 14 l 410 0 l 111 0 m 215 10 l 346 10 q 285 20 310 13 q 246 44 261 28 q 224 85 231 60 q 218 147 218 111 l 218 179 l 215 179 l 215 10 m 947 10 l 954 10 l 954 49 l 922 49 l 167 976 l 121 976 q 190 932 161 963 q 218 871 218 901 l 244 871 l 947 10 m 951 804 l 954 804 l 954 974 l 824 974 q 894 953 868 968 q 935 909 921 938 q 950 836 949 881 l 951 804 z "},"Ń":{"ha":1128,"x_min":111,"x_max":1058,"o":"m 111 0 l 111 14 l 208 35 l 208 869 q 180 928 208 899 q 111 969 151 957 l 111 983 l 171 983 l 925 56 l 940 56 l 940 833 q 935 886 940 864 q 916 924 929 908 q 882 950 903 940 q 831 965 861 960 q 760 969 800 969 l 760 983 l 1058 983 l 1058 969 l 961 949 l 961 0 l 947 0 l 243 861 l 229 861 l 229 124 q 235 81 229 99 q 254 49 242 63 q 288 28 267 36 q 339 17 308 21 q 410 14 369 14 l 410 0 l 111 0 m 215 10 l 346 10 q 285 20 310 13 q 246 44 261 28 q 224 85 231 60 q 218 147 218 111 l 218 179 l 215 179 l 215 10 m 947 10 l 954 10 l 954 49 l 922 49 l 167 976 l 121 976 q 190 932 161 963 q 218 871 218 901 l 244 871 l 947 10 m 951 804 l 954 804 l 954 974 l 824 974 q 894 953 868 968 q 935 909 921 938 q 950 836 949 881 l 951 804 m 543 1103 l 529 1117 l 738 1290 l 751 1275 l 543 1103 m 540 1117 l 544 1113 l 740 1275 l 736 1279 l 540 1117 z "},"Ň":{"ha":1128,"x_min":111,"x_max":1058,"o":"m 111 0 l 111 14 l 208 35 l 208 869 q 180 928 208 899 q 111 969 151 957 l 111 983 l 171 983 l 925 56 l 940 56 l 940 833 q 935 886 940 864 q 916 924 929 908 q 882 950 903 940 q 831 965 861 960 q 760 969 800 969 l 760 983 l 1058 983 l 1058 969 l 961 949 l 961 0 l 947 0 l 243 861 l 229 861 l 229 124 q 235 81 229 99 q 254 49 242 63 q 288 28 267 36 q 339 17 308 21 q 410 14 369 14 l 410 0 l 111 0 m 215 10 l 346 10 q 285 20 310 13 q 246 44 261 28 q 224 85 231 60 q 218 147 218 111 l 218 179 l 215 179 l 215 10 m 947 10 l 954 10 l 954 49 l 922 49 l 167 976 l 121 976 q 190 932 161 963 q 218 871 218 901 l 244 871 l 947 10 m 951 804 l 954 804 l 954 974 l 824 974 q 894 953 868 968 q 935 909 921 938 q 950 836 949 881 l 951 804 m 775 1276 l 786 1265 l 590 1103 l 568 1103 l 369 1265 l 382 1276 l 579 1118 l 775 1276 m 381 1265 l 568 1111 l 574 1111 l 572 1113 l 383 1268 l 381 1265 z "},"Ņ":{"ha":1128,"x_min":111,"x_max":1058,"o":"m 111 0 l 111 14 l 208 35 l 208 869 q 180 928 208 899 q 111 969 151 957 l 111 983 l 171 983 l 925 56 l 940 56 l 940 833 q 935 886 940 864 q 916 924 929 908 q 882 950 903 940 q 831 965 861 960 q 760 969 800 969 l 760 983 l 1058 983 l 1058 969 l 961 949 l 961 0 l 947 0 l 243 861 l 229 861 l 229 124 q 235 81 229 99 q 254 49 242 63 q 288 28 267 36 q 339 17 308 21 q 410 14 369 14 l 410 0 l 111 0 m 215 10 l 346 10 q 285 20 310 13 q 246 44 261 28 q 224 85 231 60 q 218 147 218 111 l 218 179 l 215 179 l 215 10 m 947 10 l 954 10 l 954 49 l 922 49 l 167 976 l 121 976 q 190 932 161 963 q 218 871 218 901 l 244 871 l 947 10 m 951 804 l 954 804 l 954 974 l 824 974 q 894 953 868 968 q 935 909 921 938 q 950 836 949 881 l 951 804 m 536 -285 l 531 -272 q 567 -254 550 -264 q 599 -232 585 -244 q 622 -207 614 -219 l 608 -194 l 603 -194 q 569 -186 583 -194 q 546 -163 554 -178 q 538 -129 538 -149 q 547 -98 538 -111 q 572 -77 556 -85 q 607 -69 588 -69 q 642 -78 626 -69 q 665 -100 657 -86 q 674 -132 674 -114 q 665 -178 674 -157 q 640 -219 657 -200 q 597 -255 622 -239 q 536 -285 571 -271 m 635 -203 q 653 -169 647 -187 q 660 -132 660 -151 q 653 -106 660 -117 q 634 -88 646 -94 q 606 -82 622 -82 q 576 -88 589 -82 q 556 -105 564 -94 q 549 -129 549 -115 q 556 -156 549 -144 q 574 -175 563 -168 q 601 -182 586 -182 q 607 -182 604 -182 q 611 -182 610 -182 l 635 -203 z "},"Ñ":{"ha":1128,"x_min":111,"x_max":1058,"o":"m 111 0 l 111 14 l 208 35 l 208 869 q 180 928 208 899 q 111 969 151 957 l 111 983 l 171 983 l 925 56 l 940 56 l 940 833 q 935 886 940 864 q 916 924 929 908 q 882 950 903 940 q 831 965 861 960 q 760 969 800 969 l 760 983 l 1058 983 l 1058 969 l 961 949 l 961 0 l 947 0 l 243 861 l 229 861 l 229 124 q 235 81 229 99 q 254 49 242 63 q 288 28 267 36 q 339 17 308 21 q 410 14 369 14 l 410 0 l 111 0 m 215 10 l 346 10 q 285 20 310 13 q 246 44 261 28 q 224 85 231 60 q 218 147 218 111 l 218 179 l 215 179 l 215 10 m 947 10 l 954 10 l 954 49 l 922 49 l 167 976 l 121 976 q 190 932 161 963 q 218 871 218 901 l 244 871 l 947 10 m 951 804 l 954 804 l 954 974 l 824 974 q 894 953 868 968 q 935 909 921 938 q 950 836 949 881 l 951 804 m 710 1117 q 643 1135 674 1117 q 585 1179 613 1154 q 529 1223 557 1204 q 471 1242 501 1242 q 399 1212 425 1242 q 353 1119 374 1182 l 335 1122 q 365 1199 347 1168 q 410 1247 383 1231 q 471 1263 436 1263 q 534 1244 504 1263 q 592 1200 564 1225 q 650 1156 621 1175 q 710 1138 679 1138 q 769 1167 750 1138 q 803 1260 789 1197 l 821 1257 q 799 1178 813 1210 q 764 1132 785 1147 q 710 1117 743 1117 m 710 1124 q 749 1132 732 1124 q 778 1158 765 1140 q 797 1204 790 1175 q 765 1148 786 1165 q 710 1131 744 1131 q 647 1149 676 1131 q 589 1193 617 1168 q 533 1237 561 1218 q 471 1256 504 1256 q 401 1233 428 1256 q 358 1163 375 1210 q 401 1227 375 1206 q 471 1249 428 1249 q 531 1230 503 1249 q 588 1186 560 1211 q 645 1142 615 1161 q 710 1124 675 1124 z "},"Ŋ":{"ha":1128,"x_min":111,"x_max":1058,"o":"m 961 -158 q 953 -217 961 -192 q 931 -261 946 -243 q 893 -289 915 -279 q 842 -299 871 -299 q 742 -280 786 -299 q 671 -228 697 -261 q 644 -157 644 -196 q 658 -120 644 -133 q 692 -107 671 -107 q 731 -123 717 -107 q 744 -169 744 -139 q 842 -278 744 -278 q 916 -246 890 -278 q 942 -158 942 -214 l 942 7 l 243 861 l 229 861 l 229 124 q 235 81 229 99 q 254 49 242 63 q 288 28 267 36 q 339 17 308 21 q 410 14 369 14 l 410 0 l 111 0 l 111 14 l 208 35 l 208 869 q 180 928 208 899 q 111 969 151 957 l 111 983 l 171 983 l 925 56 l 940 56 l 940 833 q 935 886 940 864 q 916 924 929 908 q 882 950 903 940 q 831 965 861 960 q 760 969 800 969 l 760 983 l 1058 983 l 1058 969 l 961 949 l 961 -158 m 215 10 l 346 10 q 285 20 310 13 q 246 44 261 28 q 224 85 231 60 q 218 147 218 111 l 218 179 l 215 179 l 215 10 m 951 804 l 954 804 l 954 974 l 824 974 q 894 953 868 968 q 935 909 921 938 q 950 836 949 881 l 951 804 m 954 -158 l 954 49 l 922 49 l 167 976 l 121 976 q 190 932 161 963 q 218 871 218 901 l 244 871 l 947 10 l 947 -158 q 941 -214 947 -190 q 918 -260 935 -237 q 935 -238 928 -249 q 946 -215 942 -228 q 952 -189 950 -203 q 954 -158 954 -175 m 774 -274 q 743 -233 754 -260 q 732 -169 732 -206 q 722 -132 732 -144 q 692 -119 711 -119 q 667 -129 676 -119 q 657 -157 657 -139 q 672 -208 657 -183 q 715 -251 688 -233 q 774 -274 742 -268 z "},"O":{"ha":1028,"x_min":111,"x_max":917,"o":"m 515 1004 q 684 970 610 1004 q 810 871 758 936 q 890 713 863 806 q 917 500 917 619 q 890 281 917 378 q 810 117 863 183 q 684 15 758 50 q 515 -21 610 -21 q 344 15 419 -21 q 217 117 269 50 q 138 281 165 183 q 111 500 111 378 q 138 713 111 619 q 217 871 165 806 q 344 970 269 936 q 515 1004 419 1004 m 515 983 q 354 951 425 983 q 234 856 283 918 q 159 703 185 793 q 133 500 133 614 q 159 290 133 382 q 234 133 185 197 q 354 34 283 68 q 515 0 425 0 q 676 34 606 0 q 794 133 746 68 q 869 290 843 197 q 894 500 894 382 q 869 703 894 614 q 794 856 843 793 q 676 951 746 918 q 515 983 606 983 m 317 43 q 176 218 225 101 q 126 500 126 335 q 177 772 126 660 q 313 940 228 885 q 231 870 267 913 q 169 772 194 828 q 131 649 144 717 q 118 500 118 581 q 131 346 118 417 q 168 217 143 275 q 230 116 193 160 q 317 43 267 72 m 714 43 q 797 116 761 72 q 858 217 833 160 q 897 346 883 275 q 910 500 910 417 q 897 648 910 579 q 859 772 883 717 q 799 870 835 828 q 717 940 763 913 q 851 772 801 885 q 901 500 901 658 q 879 301 901 390 q 815 147 857 211 q 714 43 772 82 z "},"Ó":{"ha":1028,"x_min":111,"x_max":917,"o":"m 515 1004 q 684 970 610 1004 q 810 871 758 936 q 890 713 863 806 q 917 500 917 619 q 890 281 917 378 q 810 117 863 183 q 684 15 758 50 q 515 -21 610 -21 q 344 15 419 -21 q 217 117 269 50 q 138 281 165 183 q 111 500 111 378 q 138 713 111 619 q 217 871 165 806 q 344 970 269 936 q 515 1004 419 1004 m 515 983 q 354 951 425 983 q 234 856 283 918 q 159 703 185 793 q 133 500 133 614 q 159 290 133 382 q 234 133 185 197 q 354 34 283 68 q 515 0 425 0 q 676 34 606 0 q 794 133 746 68 q 869 290 843 197 q 894 500 894 382 q 869 703 894 614 q 794 856 843 793 q 676 951 746 918 q 515 983 606 983 m 317 43 q 176 218 225 101 q 126 500 126 335 q 177 772 126 660 q 313 940 228 885 q 231 870 267 913 q 169 772 194 828 q 131 649 144 717 q 118 500 118 581 q 131 346 118 417 q 168 217 143 275 q 230 116 193 160 q 317 43 267 72 m 714 43 q 797 116 761 72 q 858 217 833 160 q 897 346 883 275 q 910 500 910 417 q 897 648 910 579 q 859 772 883 717 q 799 870 835 828 q 717 940 763 913 q 851 772 801 885 q 901 500 901 658 q 879 301 901 390 q 815 147 857 211 q 714 43 772 82 m 481 1103 l 467 1117 l 675 1290 l 689 1275 l 481 1103 m 478 1117 l 482 1113 l 678 1275 l 674 1279 l 478 1117 z "},"Ô":{"ha":1028,"x_min":111,"x_max":917,"o":"m 515 1004 q 684 970 610 1004 q 810 871 758 936 q 890 713 863 806 q 917 500 917 619 q 890 281 917 378 q 810 117 863 183 q 684 15 758 50 q 515 -21 610 -21 q 344 15 419 -21 q 217 117 269 50 q 138 281 165 183 q 111 500 111 378 q 138 713 111 619 q 217 871 165 806 q 344 970 269 936 q 515 1004 419 1004 m 515 983 q 354 951 425 983 q 234 856 283 918 q 159 703 185 793 q 133 500 133 614 q 159 290 133 382 q 234 133 185 197 q 354 34 283 68 q 515 0 425 0 q 676 34 606 0 q 794 133 746 68 q 869 290 843 197 q 894 500 894 382 q 869 703 894 614 q 794 856 843 793 q 676 951 746 918 q 515 983 606 983 m 317 43 q 176 218 225 101 q 126 500 126 335 q 177 772 126 660 q 313 940 228 885 q 231 870 267 913 q 169 772 194 828 q 131 649 144 717 q 118 500 118 581 q 131 346 118 417 q 168 217 143 275 q 230 116 193 160 q 317 43 267 72 m 714 43 q 797 116 761 72 q 858 217 833 160 q 897 346 883 275 q 910 500 910 417 q 897 648 910 579 q 859 772 883 717 q 799 870 835 828 q 717 940 763 913 q 851 772 801 885 q 901 500 901 658 q 879 301 901 390 q 815 147 857 211 q 714 43 772 82 m 318 1103 l 307 1114 l 504 1276 l 526 1276 l 724 1114 l 711 1103 l 515 1261 l 318 1103 m 713 1114 l 525 1268 l 519 1268 l 521 1267 l 710 1111 l 713 1114 z "},"Ö":{"ha":1028,"x_min":111,"x_max":917,"o":"m 515 1004 q 684 970 610 1004 q 810 871 758 936 q 890 713 863 806 q 917 500 917 619 q 890 281 917 378 q 810 117 863 183 q 684 15 758 50 q 515 -21 610 -21 q 344 15 419 -21 q 217 117 269 50 q 138 281 165 183 q 111 500 111 378 q 138 713 111 619 q 217 871 165 806 q 344 970 269 936 q 515 1004 419 1004 m 515 983 q 354 951 425 983 q 234 856 283 918 q 159 703 185 793 q 133 500 133 614 q 159 290 133 382 q 234 133 185 197 q 354 34 283 68 q 515 0 425 0 q 676 34 606 0 q 794 133 746 68 q 869 290 843 197 q 894 500 894 382 q 869 703 894 614 q 794 856 843 793 q 676 951 746 918 q 515 983 606 983 m 317 43 q 176 218 225 101 q 126 500 126 335 q 177 772 126 660 q 313 940 228 885 q 231 870 267 913 q 169 772 194 828 q 131 649 144 717 q 118 500 118 581 q 131 346 118 417 q 168 217 143 275 q 230 116 193 160 q 317 43 267 72 m 714 43 q 797 116 761 72 q 858 217 833 160 q 897 346 883 275 q 910 500 910 417 q 897 648 910 579 q 859 772 883 717 q 799 870 835 828 q 717 940 763 913 q 851 772 801 885 q 901 500 901 658 q 879 301 901 390 q 815 147 857 211 q 714 43 772 82 m 654 1263 q 704 1246 685 1263 q 724 1203 724 1229 q 704 1160 724 1176 q 654 1144 685 1144 q 602 1160 622 1144 q 582 1203 582 1176 q 602 1246 582 1229 q 654 1263 622 1263 m 654 1157 q 695 1170 679 1157 q 711 1203 711 1183 q 695 1237 711 1224 q 654 1250 679 1250 q 611 1237 628 1250 q 594 1203 594 1224 q 611 1170 594 1183 q 654 1157 628 1157 m 376 1263 q 426 1246 407 1263 q 446 1203 446 1229 q 426 1160 446 1176 q 376 1144 407 1144 q 324 1160 344 1144 q 304 1203 304 1176 q 324 1246 304 1229 q 376 1263 344 1263 m 376 1157 q 417 1170 401 1157 q 433 1203 433 1183 q 417 1237 433 1224 q 376 1250 401 1250 q 333 1237 350 1250 q 317 1203 317 1224 q 333 1170 317 1183 q 376 1157 350 1157 z "},"Ò":{"ha":1028,"x_min":111,"x_max":917,"o":"m 515 1004 q 684 970 610 1004 q 810 871 758 936 q 890 713 863 806 q 917 500 917 619 q 890 281 917 378 q 810 117 863 183 q 684 15 758 50 q 515 -21 610 -21 q 344 15 419 -21 q 217 117 269 50 q 138 281 165 183 q 111 500 111 378 q 138 713 111 619 q 217 871 165 806 q 344 970 269 936 q 515 1004 419 1004 m 515 983 q 354 951 425 983 q 234 856 283 918 q 159 703 185 793 q 133 500 133 614 q 159 290 133 382 q 234 133 185 197 q 354 34 283 68 q 515 0 425 0 q 676 34 606 0 q 794 133 746 68 q 869 290 843 197 q 894 500 894 382 q 869 703 894 614 q 794 856 843 793 q 676 951 746 918 q 515 983 606 983 m 317 43 q 176 218 225 101 q 126 500 126 335 q 177 772 126 660 q 313 940 228 885 q 231 870 267 913 q 169 772 194 828 q 131 649 144 717 q 118 500 118 581 q 131 346 118 417 q 168 217 143 275 q 230 116 193 160 q 317 43 267 72 m 714 43 q 797 116 761 72 q 858 217 833 160 q 897 346 883 275 q 910 500 910 417 q 897 648 910 579 q 859 772 883 717 q 799 870 835 828 q 717 940 763 913 q 851 772 801 885 q 901 500 901 658 q 879 301 901 390 q 815 147 857 211 q 714 43 772 82 m 571 1103 l 363 1275 l 376 1290 l 585 1117 l 571 1103 m 574 1117 l 378 1279 l 374 1275 l 569 1113 l 574 1117 z "},"Ő":{"ha":1028,"x_min":111,"x_max":917,"o":"m 515 1004 q 684 970 610 1004 q 810 871 758 936 q 890 713 863 806 q 917 500 917 619 q 890 281 917 378 q 810 117 863 183 q 684 15 758 50 q 515 -21 610 -21 q 344 15 419 -21 q 217 117 269 50 q 138 281 165 183 q 111 500 111 378 q 138 713 111 619 q 217 871 165 806 q 344 970 269 936 q 515 1004 419 1004 m 515 983 q 354 951 425 983 q 234 856 283 918 q 159 703 185 793 q 133 500 133 614 q 159 290 133 382 q 234 133 185 197 q 354 34 283 68 q 515 0 425 0 q 676 34 606 0 q 794 133 746 68 q 869 290 843 197 q 894 500 894 382 q 869 703 894 614 q 794 856 843 793 q 676 951 746 918 q 515 983 606 983 m 317 43 q 176 218 225 101 q 126 500 126 335 q 177 772 126 660 q 313 940 228 885 q 231 870 267 913 q 169 772 194 828 q 131 649 144 717 q 118 500 118 581 q 131 346 118 417 q 168 217 143 275 q 230 116 193 160 q 317 43 267 72 m 714 43 q 797 116 761 72 q 858 217 833 160 q 897 346 883 275 q 910 500 910 417 q 897 648 910 579 q 859 772 883 717 q 799 870 835 828 q 717 940 763 913 q 851 772 801 885 q 901 500 901 658 q 879 301 901 390 q 815 147 857 211 q 714 43 772 82 m 626 1103 l 613 1117 l 821 1290 l 835 1275 l 626 1103 m 624 1117 l 628 1113 l 824 1275 l 819 1279 l 624 1117 m 460 1103 l 446 1117 l 654 1290 l 668 1275 l 460 1103 m 457 1117 l 461 1113 l 657 1275 l 653 1279 l 457 1117 z "},"Ō":{"ha":1028,"x_min":111,"x_max":917,"o":"m 515 1004 q 684 970 610 1004 q 810 871 758 936 q 890 713 863 806 q 917 500 917 619 q 890 281 917 378 q 810 117 863 183 q 684 15 758 50 q 515 -21 610 -21 q 344 15 419 -21 q 217 117 269 50 q 138 281 165 183 q 111 500 111 378 q 138 713 111 619 q 217 871 165 806 q 344 970 269 936 q 515 1004 419 1004 m 515 983 q 354 951 425 983 q 234 856 283 918 q 159 703 185 793 q 133 500 133 614 q 159 290 133 382 q 234 133 185 197 q 354 34 283 68 q 515 0 425 0 q 676 34 606 0 q 794 133 746 68 q 869 290 843 197 q 894 500 894 382 q 869 703 894 614 q 794 856 843 793 q 676 951 746 918 q 515 983 606 983 m 317 43 q 176 218 225 101 q 126 500 126 335 q 177 772 126 660 q 313 940 228 885 q 231 870 267 913 q 169 772 194 828 q 131 649 144 717 q 118 500 118 581 q 131 346 118 417 q 168 217 143 275 q 230 116 193 160 q 317 43 267 72 m 714 43 q 797 116 761 72 q 858 217 833 160 q 897 346 883 275 q 910 500 910 417 q 897 648 910 579 q 859 772 883 717 q 799 870 835 828 q 717 940 763 913 q 851 772 801 885 q 901 500 901 658 q 879 301 901 390 q 815 147 857 211 q 714 43 772 82 m 293 1178 l 293 1199 l 738 1199 l 738 1178 l 293 1178 m 307 1185 l 724 1185 l 724 1192 l 307 1192 l 307 1185 z "},"Ø":{"ha":1028,"x_min":111,"x_max":917,"o":"m 299 -135 l 279 -128 l 732 1118 l 751 1111 l 299 -135 m 294 -122 l 740 1106 l 736 1107 l 290 -121 l 294 -122 m 515 1004 q 684 970 610 1004 q 810 871 758 936 q 890 713 863 806 q 917 500 917 619 q 890 281 917 378 q 810 117 863 183 q 684 15 758 50 q 515 -21 610 -21 q 344 15 419 -21 q 217 117 269 50 q 138 281 165 183 q 111 500 111 378 q 138 713 111 619 q 217 871 165 806 q 344 970 269 936 q 515 1004 419 1004 m 515 983 q 354 951 425 983 q 234 856 283 918 q 159 703 185 793 q 133 500 133 614 q 159 290 133 382 q 234 133 185 197 q 354 34 283 68 q 515 0 425 0 q 676 34 606 0 q 794 133 746 68 q 869 290 843 197 q 894 500 894 382 q 869 703 894 614 q 794 856 843 793 q 676 951 746 918 q 515 983 606 983 m 317 43 q 176 218 225 101 q 126 500 126 335 q 177 772 126 660 q 313 940 228 885 q 231 870 267 913 q 169 772 194 828 q 131 649 144 717 q 118 500 118 581 q 131 346 118 417 q 168 217 143 275 q 230 116 193 160 q 317 43 267 72 m 714 43 q 797 116 761 72 q 858 217 833 160 q 897 346 883 275 q 910 500 910 417 q 897 648 910 579 q 859 772 883 717 q 799 870 835 828 q 717 940 763 913 q 851 772 801 885 q 901 500 901 658 q 879 301 901 390 q 815 147 857 211 q 714 43 772 82 z "},"Õ":{"ha":1028,"x_min":111,"x_max":917,"o":"m 515 1004 q 684 970 610 1004 q 810 871 758 936 q 890 713 863 806 q 917 500 917 619 q 890 281 917 378 q 810 117 863 183 q 684 15 758 50 q 515 -21 610 -21 q 344 15 419 -21 q 217 117 269 50 q 138 281 165 183 q 111 500 111 378 q 138 713 111 619 q 217 871 165 806 q 344 970 269 936 q 515 1004 419 1004 m 515 983 q 354 951 425 983 q 234 856 283 918 q 159 703 185 793 q 133 500 133 614 q 159 290 133 382 q 234 133 185 197 q 354 34 283 68 q 515 0 425 0 q 676 34 606 0 q 794 133 746 68 q 869 290 843 197 q 894 500 894 382 q 869 703 894 614 q 794 856 843 793 q 676 951 746 918 q 515 983 606 983 m 317 43 q 176 218 225 101 q 126 500 126 335 q 177 772 126 660 q 313 940 228 885 q 231 870 267 913 q 169 772 194 828 q 131 649 144 717 q 118 500 118 581 q 131 346 118 417 q 168 217 143 275 q 230 116 193 160 q 317 43 267 72 m 714 43 q 797 116 761 72 q 858 217 833 160 q 897 346 883 275 q 910 500 910 417 q 897 648 910 579 q 859 772 883 717 q 799 870 835 828 q 717 940 763 913 q 851 772 801 885 q 901 500 901 658 q 879 301 901 390 q 815 147 857 211 q 714 43 772 82 m 647 1117 q 581 1135 611 1117 q 522 1179 550 1154 q 467 1223 494 1204 q 408 1242 439 1242 q 337 1212 363 1242 q 290 1119 311 1182 l 272 1122 q 303 1199 285 1168 q 347 1247 321 1231 q 408 1263 374 1263 q 472 1244 442 1263 q 530 1200 501 1225 q 588 1156 558 1175 q 647 1138 617 1138 q 707 1167 688 1138 q 740 1260 726 1197 l 758 1257 q 736 1178 750 1210 q 701 1132 722 1147 q 647 1117 681 1117 m 647 1124 q 686 1132 669 1124 q 715 1158 703 1140 q 735 1204 728 1175 q 703 1148 724 1165 q 647 1131 682 1131 q 584 1149 614 1131 q 526 1193 554 1168 q 470 1237 499 1218 q 408 1256 442 1256 q 339 1233 365 1256 q 296 1163 313 1210 q 339 1227 313 1206 q 408 1249 365 1249 q 469 1230 440 1249 q 525 1186 497 1211 q 583 1142 553 1161 q 647 1124 613 1124 z "},"Œ":{"ha":1431,"x_min":111,"x_max":1326,"o":"m 515 0 q 619 15 568 0 q 713 56 671 29 q 713 204 713 131 q 713 352 713 278 q 713 500 713 426 q 713 644 713 572 q 713 787 713 715 q 713 929 713 858 q 619 969 672 954 q 515 983 567 983 q 354 951 425 983 q 234 856 283 918 q 159 703 185 793 q 133 500 133 614 q 159 290 133 382 q 234 133 185 197 q 354 34 283 68 q 515 0 425 0 m 1196 963 l 733 963 l 733 511 l 996 511 q 1019 517 1010 511 q 1035 535 1029 524 q 1044 585 1042 551 q 1047 692 1047 619 l 1061 692 l 1061 356 l 1047 356 l 1039 490 l 733 490 l 733 21 l 1219 21 q 1281 42 1267 21 q 1289 115 1296 63 l 1258 338 l 1279 338 l 1326 0 l 647 0 q 584 -15 617 -10 q 515 -21 551 -21 q 344 15 419 -21 q 217 117 269 50 q 138 281 165 183 q 111 500 111 378 q 138 713 111 619 q 217 871 165 806 q 344 970 269 936 q 515 1004 419 1004 q 586 999 553 1004 q 650 983 619 994 l 1326 983 l 1279 672 l 1258 672 l 1281 882 q 1267 945 1286 928 q 1196 963 1249 963 m 1046 500 l 1051 400 l 1051 539 q 1050 526 1051 533 q 1048 513 1049 519 q 1046 500 1047 507 m 1219 10 l 1315 10 l 1269 328 l 1299 117 q 1290 35 1307 60 q 1219 10 1272 10 m 1271 682 l 1315 974 l 1196 974 q 1275 953 1254 974 q 1290 881 1296 932 l 1271 682 m 317 43 q 176 218 225 101 q 126 500 126 335 q 177 772 126 660 q 313 940 228 885 q 208 840 251 903 q 141 692 164 778 q 118 500 118 607 q 131 346 118 417 q 168 217 143 275 q 230 116 193 160 q 317 43 267 72 m 726 7 l 726 976 l 719 976 q 719 803 719 886 q 719 644 719 719 q 719 500 719 568 q 719 340 719 425 q 719 168 719 254 q 719 7 719 82 l 726 7 z "},"P":{"ha":853,"x_min":111,"x_max":797,"o":"m 479 983 q 651 952 579 983 q 760 861 722 921 q 797 718 797 801 q 713 512 797 586 q 476 438 628 438 q 353 442 419 438 q 221 457 286 447 l 221 494 q 476 460 315 460 q 697 528 618 460 q 776 718 776 596 q 741 849 776 794 q 640 932 706 903 q 479 961 574 961 q 374 960 422 961 q 290 956 326 958 q 229 949 253 953 l 229 35 l 326 14 l 326 0 l 111 0 l 111 14 l 208 35 l 208 949 l 111 969 l 111 983 l 479 983 m 215 7 l 222 7 l 222 976 l 215 976 l 215 7 m 581 460 q 737 548 683 481 q 790 718 790 615 q 737 878 790 814 q 590 961 683 943 q 731 876 678 939 q 783 718 783 814 q 729 549 783 615 q 581 460 675 483 z "},"Þ":{"ha":853,"x_min":111,"x_max":797,"o":"m 111 0 l 111 14 l 208 28 l 208 956 l 111 969 l 111 983 l 326 983 l 326 969 l 229 956 l 229 28 l 326 14 l 326 0 l 111 0 m 451 781 q 328 774 385 781 q 224 754 271 768 l 224 786 q 333 799 276 794 q 451 803 389 803 q 640 772 563 803 q 757 683 717 742 q 797 538 797 624 q 759 387 797 450 q 649 290 721 324 q 476 257 578 257 q 353 262 419 257 q 221 276 286 267 l 221 314 q 333 288 269 296 q 476 279 396 279 q 638 310 571 279 q 741 399 706 340 q 776 538 776 457 q 739 669 776 615 q 628 752 701 724 q 451 781 556 781 m 215 7 l 222 7 l 222 976 l 215 976 l 215 7 m 581 279 q 697 328 650 293 q 767 416 743 363 q 790 538 790 469 q 737 694 790 633 q 590 775 683 756 q 731 693 678 753 q 783 538 783 633 q 729 369 783 435 q 581 279 675 303 z "},"Q":{"ha":1028,"x_min":111,"x_max":917,"o":"m 528 -7 l 547 -7 q 599 -120 568 -75 q 674 -187 631 -165 q 769 -210 717 -210 q 823 -203 799 -210 q 867 -181 847 -196 q 903 -146 888 -167 l 910 -153 q 886 -186 903 -168 q 841 -217 869 -204 q 769 -229 813 -229 q 622 -174 682 -229 q 528 -7 563 -118 m 515 1004 q 684 970 610 1004 q 810 871 758 936 q 890 713 863 806 q 917 500 917 619 q 890 281 917 378 q 810 117 863 183 q 684 15 758 50 q 515 -21 610 -21 q 344 15 419 -21 q 217 117 269 50 q 138 281 165 183 q 111 500 111 378 q 138 713 111 619 q 217 871 165 806 q 344 970 269 936 q 515 1004 419 1004 m 515 983 q 354 951 425 983 q 234 856 283 918 q 159 703 185 793 q 133 500 133 614 q 159 290 133 382 q 234 133 185 197 q 354 34 283 68 q 515 0 425 0 q 676 34 606 0 q 794 133 746 68 q 869 290 843 197 q 894 500 894 382 q 869 703 894 614 q 794 856 843 793 q 676 951 746 918 q 515 983 606 983 m 317 43 q 176 218 225 101 q 126 500 126 335 q 177 772 126 660 q 313 940 228 885 q 231 870 267 913 q 169 772 194 828 q 131 649 144 717 q 118 500 118 581 q 131 346 118 417 q 168 217 143 275 q 230 116 193 160 q 317 43 267 72 m 714 43 q 797 116 761 72 q 858 217 833 160 q 897 346 883 275 q 910 500 910 417 q 897 648 910 579 q 859 772 883 717 q 799 870 835 828 q 717 940 763 913 q 851 772 801 885 q 901 500 901 658 q 879 301 901 390 q 815 147 857 211 q 714 43 772 82 m 847 -204 q 815 -213 835 -210 q 769 -217 796 -217 q 665 -192 711 -217 q 586 -117 619 -167 q 665 -196 619 -169 q 769 -222 710 -222 q 811 -218 792 -222 q 847 -204 831 -214 z "},"R":{"ha":924,"x_min":111,"x_max":917,"o":"m 875 -21 q 826 3 851 -21 q 769 85 801 28 q 692 238 738 142 q 577 419 635 363 q 450 476 519 476 l 229 476 l 229 35 l 326 14 l 326 0 l 111 0 l 111 14 l 208 35 l 208 949 l 111 969 l 111 983 l 493 983 q 658 957 590 983 q 762 878 726 931 q 797 746 797 825 q 766 625 797 679 q 674 535 735 571 q 525 486 613 500 l 525 479 q 571 456 549 472 q 615 411 593 439 q 660 344 638 383 q 708 250 683 304 q 784 102 753 157 q 840 24 815 47 q 885 0 864 0 q 917 8 900 0 l 917 -6 q 903 -13 911 -10 q 889 -19 896 -17 q 875 -21 882 -21 m 426 499 q 572 516 507 499 q 682 566 636 533 q 752 644 728 599 q 776 746 776 690 q 744 865 776 817 q 648 938 711 913 q 493 963 585 963 q 342 959 407 963 q 229 949 276 956 l 229 507 q 301 501 258 503 q 426 499 344 499 m 215 7 l 222 7 l 222 976 l 215 976 l 215 7 m 588 511 q 667 544 631 524 q 732 594 704 565 q 775 661 760 624 q 790 746 790 699 q 778 824 790 789 q 741 888 765 860 q 680 935 717 915 q 594 965 643 954 q 731 891 679 946 q 783 746 783 836 q 756 636 783 683 q 683 558 728 589 q 588 511 639 528 m 511 475 q 609 394 563 453 q 699 240 656 335 q 774 90 743 146 q 830 11 806 35 q 875 -12 854 -12 q 895 -10 888 -12 q 910 -3 903 -8 q 899 -7 904 -6 q 885 -8 893 -8 q 835 16 861 -8 q 778 96 810 40 q 701 249 746 151 q 607 407 654 351 q 511 475 560 463 z "},"Ŕ":{"ha":924,"x_min":111,"x_max":917,"o":"m 875 -21 q 826 3 851 -21 q 769 85 801 28 q 692 238 738 142 q 577 419 635 363 q 450 476 519 476 l 229 476 l 229 35 l 326 14 l 326 0 l 111 0 l 111 14 l 208 35 l 208 949 l 111 969 l 111 983 l 493 983 q 658 957 590 983 q 762 878 726 931 q 797 746 797 825 q 766 625 797 679 q 674 535 735 571 q 525 486 613 500 l 525 479 q 571 456 549 472 q 615 411 593 439 q 660 344 638 383 q 708 250 683 304 q 784 102 753 157 q 840 24 815 47 q 885 0 864 0 q 917 8 900 0 l 917 -6 q 903 -13 911 -10 q 889 -19 896 -17 q 875 -21 882 -21 m 426 499 q 572 516 507 499 q 682 566 636 533 q 752 644 728 599 q 776 746 776 690 q 744 865 776 817 q 648 938 711 913 q 493 963 585 963 q 342 959 407 963 q 229 949 276 956 l 229 507 q 301 501 258 503 q 426 499 344 499 m 215 7 l 222 7 l 222 976 l 215 976 l 215 7 m 588 511 q 667 544 631 524 q 732 594 704 565 q 775 661 760 624 q 790 746 790 699 q 778 824 790 789 q 741 888 765 860 q 680 935 717 915 q 594 965 643 954 q 731 891 679 946 q 783 746 783 836 q 756 636 783 683 q 683 558 728 589 q 588 511 639 528 m 511 475 q 609 394 563 453 q 699 240 656 335 q 774 90 743 146 q 830 11 806 35 q 875 -12 854 -12 q 895 -10 888 -12 q 910 -3 903 -8 q 899 -7 904 -6 q 885 -8 893 -8 q 835 16 861 -8 q 778 96 810 40 q 701 249 746 151 q 607 407 654 351 q 511 475 560 463 m 428 1103 l 414 1117 l 622 1290 l 636 1275 l 428 1103 m 425 1117 l 429 1113 l 625 1275 l 621 1279 l 425 1117 z "},"Ř":{"ha":924,"x_min":111,"x_max":917,"o":"m 875 -21 q 826 3 851 -21 q 769 85 801 28 q 692 238 738 142 q 577 419 635 363 q 450 476 519 476 l 229 476 l 229 35 l 326 14 l 326 0 l 111 0 l 111 14 l 208 35 l 208 949 l 111 969 l 111 983 l 493 983 q 658 957 590 983 q 762 878 726 931 q 797 746 797 825 q 766 625 797 679 q 674 535 735 571 q 525 486 613 500 l 525 479 q 571 456 549 472 q 615 411 593 439 q 660 344 638 383 q 708 250 683 304 q 784 102 753 157 q 840 24 815 47 q 885 0 864 0 q 917 8 900 0 l 917 -6 q 903 -13 911 -10 q 889 -19 896 -17 q 875 -21 882 -21 m 426 499 q 572 516 507 499 q 682 566 636 533 q 752 644 728 599 q 776 746 776 690 q 744 865 776 817 q 648 938 711 913 q 493 963 585 963 q 342 959 407 963 q 229 949 276 956 l 229 507 q 301 501 258 503 q 426 499 344 499 m 215 7 l 222 7 l 222 976 l 215 976 l 215 7 m 588 511 q 667 544 631 524 q 732 594 704 565 q 775 661 760 624 q 790 746 790 699 q 778 824 790 789 q 741 888 765 860 q 680 935 717 915 q 594 965 643 954 q 731 891 679 946 q 783 746 783 836 q 756 636 783 683 q 683 558 728 589 q 588 511 639 528 m 511 475 q 609 394 563 453 q 699 240 656 335 q 774 90 743 146 q 830 11 806 35 q 875 -12 854 -12 q 895 -10 888 -12 q 910 -3 903 -8 q 899 -7 904 -6 q 885 -8 893 -8 q 835 16 861 -8 q 778 96 810 40 q 701 249 746 151 q 607 407 654 351 q 511 475 560 463 m 660 1276 l 671 1265 l 475 1103 l 453 1103 l 254 1265 l 267 1276 l 464 1118 l 660 1276 m 265 1265 l 453 1111 l 458 1111 l 457 1113 l 268 1268 l 265 1265 z "},"Ŗ":{"ha":924,"x_min":111,"x_max":917,"o":"m 875 -21 q 826 3 851 -21 q 769 85 801 28 q 692 238 738 142 q 577 419 635 363 q 450 476 519 476 l 229 476 l 229 35 l 326 14 l 326 0 l 111 0 l 111 14 l 208 35 l 208 949 l 111 969 l 111 983 l 493 983 q 658 957 590 983 q 762 878 726 931 q 797 746 797 825 q 766 625 797 679 q 674 535 735 571 q 525 486 613 500 l 525 479 q 571 456 549 472 q 615 411 593 439 q 660 344 638 383 q 708 250 683 304 q 784 102 753 157 q 840 24 815 47 q 885 0 864 0 q 917 8 900 0 l 917 -6 q 903 -13 911 -10 q 889 -19 896 -17 q 875 -21 882 -21 m 426 499 q 572 516 507 499 q 682 566 636 533 q 752 644 728 599 q 776 746 776 690 q 744 865 776 817 q 648 938 711 913 q 493 963 585 963 q 342 959 407 963 q 229 949 276 956 l 229 507 q 301 501 258 503 q 426 499 344 499 m 215 7 l 222 7 l 222 976 l 215 976 l 215 7 m 588 511 q 667 544 631 524 q 732 594 704 565 q 775 661 760 624 q 790 746 790 699 q 778 824 790 789 q 741 888 765 860 q 680 935 717 915 q 594 965 643 954 q 731 891 679 946 q 783 746 783 836 q 756 636 783 683 q 683 558 728 589 q 588 511 639 528 m 511 475 q 609 394 563 453 q 699 240 656 335 q 774 90 743 146 q 830 11 806 35 q 875 -12 854 -12 q 895 -10 888 -12 q 910 -3 903 -8 q 899 -7 904 -6 q 885 -8 893 -8 q 835 16 861 -8 q 778 96 810 40 q 701 249 746 151 q 607 407 654 351 q 511 475 560 463 m 449 -285 l 443 -272 q 480 -254 463 -264 q 512 -232 497 -244 q 535 -207 526 -219 l 521 -194 l 515 -194 q 481 -186 496 -194 q 458 -163 467 -178 q 450 -129 450 -149 q 459 -98 450 -111 q 484 -77 468 -85 q 519 -69 500 -69 q 554 -78 539 -69 q 578 -100 569 -86 q 586 -132 586 -114 q 578 -178 586 -157 q 552 -219 569 -200 q 509 -255 535 -239 q 449 -285 483 -271 m 547 -203 q 566 -169 560 -187 q 572 -132 572 -151 q 565 -106 572 -117 q 547 -88 558 -94 q 518 -82 535 -82 q 489 -88 501 -82 q 469 -105 476 -94 q 461 -129 461 -115 q 468 -156 461 -144 q 487 -175 475 -168 q 514 -182 499 -182 q 519 -182 517 -182 q 524 -182 522 -182 l 547 -203 z "},"S":{"ha":928,"x_min":97,"x_max":831,"o":"m 476 -21 q 349 -5 414 -21 q 220 41 283 11 q 97 113 157 71 l 125 389 l 139 389 l 131 228 q 170 107 128 158 q 292 28 213 56 q 476 0 371 0 q 656 28 582 0 q 770 108 731 56 q 810 232 810 160 q 778 345 810 299 q 672 428 746 392 q 472 500 599 465 q 267 572 343 535 q 158 660 190 610 q 125 779 125 710 q 148 874 125 832 q 214 944 171 915 q 319 989 257 974 q 460 1004 381 1004 q 600 988 535 1004 q 719 942 665 971 q 814 875 774 913 l 786 626 l 772 626 l 776 749 q 744 880 779 828 q 637 958 708 932 q 460 983 565 983 q 291 959 361 983 q 183 889 221 935 q 146 779 146 843 q 176 670 146 715 q 279 590 207 625 q 475 524 351 556 q 643 469 575 497 q 753 406 711 440 q 813 330 794 372 q 831 232 831 288 q 815 145 831 185 q 770 75 800 106 q 697 23 740 44 q 599 -10 654 1 q 476 -21 543 -21 m 124 228 l 132 382 l 104 115 q 160 81 132 97 q 217 50 188 64 q 274 25 246 36 q 158 110 197 57 q 124 228 119 163 m 636 967 q 748 885 710 939 q 783 749 786 831 l 781 635 l 807 872 q 758 910 785 893 q 701 942 731 928 q 636 967 671 957 m 824 232 q 806 327 824 286 q 747 401 788 368 q 640 463 707 435 q 474 517 572 490 q 275 585 349 550 q 170 667 201 621 q 139 779 139 714 q 180 897 139 849 q 289 969 221 944 q 202 926 238 953 q 149 862 167 899 q 132 779 132 825 q 149 689 132 728 q 206 619 167 650 q 311 560 246 588 q 472 508 376 533 q 677 436 601 474 q 785 350 753 399 q 817 232 817 301 q 771 97 817 151 q 644 14 725 42 q 722 49 689 28 q 778 97 756 69 q 813 159 801 125 q 824 232 824 193 z "},"Ś":{"ha":928,"x_min":97,"x_max":831,"o":"m 476 -21 q 349 -5 414 -21 q 220 41 283 11 q 97 113 157 71 l 125 389 l 139 389 l 131 228 q 170 107 128 158 q 292 28 213 56 q 476 0 371 0 q 656 28 582 0 q 770 108 731 56 q 810 232 810 160 q 778 345 810 299 q 672 428 746 392 q 472 500 599 465 q 267 572 343 535 q 158 660 190 610 q 125 779 125 710 q 148 874 125 832 q 214 944 171 915 q 319 989 257 974 q 460 1004 381 1004 q 600 988 535 1004 q 719 942 665 971 q 814 875 774 913 l 786 626 l 772 626 l 776 749 q 744 880 779 828 q 637 958 708 932 q 460 983 565 983 q 291 959 361 983 q 183 889 221 935 q 146 779 146 843 q 176 670 146 715 q 279 590 207 625 q 475 524 351 556 q 643 469 575 497 q 753 406 711 440 q 813 330 794 372 q 831 232 831 288 q 815 145 831 185 q 770 75 800 106 q 697 23 740 44 q 599 -10 654 1 q 476 -21 543 -21 m 124 228 l 132 382 l 104 115 q 160 81 132 97 q 217 50 188 64 q 274 25 246 36 q 158 110 197 57 q 124 228 119 163 m 636 967 q 748 885 710 939 q 783 749 786 831 l 781 635 l 807 872 q 758 910 785 893 q 701 942 731 928 q 636 967 671 957 m 824 232 q 806 327 824 286 q 747 401 788 368 q 640 463 707 435 q 474 517 572 490 q 275 585 349 550 q 170 667 201 621 q 139 779 139 714 q 180 897 139 849 q 289 969 221 944 q 202 926 238 953 q 149 862 167 899 q 132 779 132 825 q 149 689 132 728 q 206 619 167 650 q 311 560 246 588 q 472 508 376 533 q 677 436 601 474 q 785 350 753 399 q 817 232 817 301 q 771 97 817 151 q 644 14 725 42 q 722 49 689 28 q 778 97 756 69 q 813 159 801 125 q 824 232 824 193 m 439 1103 l 425 1117 l 633 1290 l 647 1275 l 439 1103 m 436 1117 l 440 1113 l 636 1275 l 632 1279 l 436 1117 z "},"Š":{"ha":928,"x_min":97,"x_max":831,"o":"m 476 -21 q 349 -5 414 -21 q 220 41 283 11 q 97 113 157 71 l 125 389 l 139 389 l 131 228 q 170 107 128 158 q 292 28 213 56 q 476 0 371 0 q 656 28 582 0 q 770 108 731 56 q 810 232 810 160 q 778 345 810 299 q 672 428 746 392 q 472 500 599 465 q 267 572 343 535 q 158 660 190 610 q 125 779 125 710 q 148 874 125 832 q 214 944 171 915 q 319 989 257 974 q 460 1004 381 1004 q 600 988 535 1004 q 719 942 665 971 q 814 875 774 913 l 786 626 l 772 626 l 776 749 q 744 880 779 828 q 637 958 708 932 q 460 983 565 983 q 291 959 361 983 q 183 889 221 935 q 146 779 146 843 q 176 670 146 715 q 279 590 207 625 q 475 524 351 556 q 643 469 575 497 q 753 406 711 440 q 813 330 794 372 q 831 232 831 288 q 815 145 831 185 q 770 75 800 106 q 697 23 740 44 q 599 -10 654 1 q 476 -21 543 -21 m 124 228 l 132 382 l 104 115 q 160 81 132 97 q 217 50 188 64 q 274 25 246 36 q 158 110 197 57 q 124 228 119 163 m 636 967 q 748 885 710 939 q 783 749 786 831 l 781 635 l 807 872 q 758 910 785 893 q 701 942 731 928 q 636 967 671 957 m 824 232 q 806 327 824 286 q 747 401 788 368 q 640 463 707 435 q 474 517 572 490 q 275 585 349 550 q 170 667 201 621 q 139 779 139 714 q 180 897 139 849 q 289 969 221 944 q 202 926 238 953 q 149 862 167 899 q 132 779 132 825 q 149 689 132 728 q 206 619 167 650 q 311 560 246 588 q 472 508 376 533 q 677 436 601 474 q 785 350 753 399 q 817 232 817 301 q 771 97 817 151 q 644 14 725 42 q 722 49 689 28 q 778 97 756 69 q 813 159 801 125 q 824 232 824 193 m 671 1276 l 682 1265 l 486 1103 l 464 1103 l 265 1265 l 278 1276 l 475 1118 l 671 1276 m 276 1265 l 464 1111 l 469 1111 l 468 1113 l 279 1268 l 276 1265 z "},"Ş":{"ha":928,"x_min":97,"x_max":831,"o":"m 476 -21 q 349 -5 414 -21 q 220 41 283 11 q 97 113 157 71 l 125 389 l 139 389 l 131 228 q 170 107 128 158 q 292 28 213 56 q 476 0 371 0 q 656 28 582 0 q 770 108 731 56 q 810 232 810 160 q 778 345 810 299 q 672 428 746 392 q 472 500 599 465 q 267 572 343 535 q 158 660 190 610 q 125 779 125 710 q 148 874 125 832 q 214 944 171 915 q 319 989 257 974 q 460 1004 381 1004 q 600 988 535 1004 q 719 942 665 971 q 814 875 774 913 l 786 626 l 772 626 l 776 749 q 744 880 779 828 q 637 958 708 932 q 460 983 565 983 q 291 959 361 983 q 183 889 221 935 q 146 779 146 843 q 176 670 146 715 q 279 590 207 625 q 475 524 351 556 q 643 469 575 497 q 753 406 711 440 q 813 330 794 372 q 831 232 831 288 q 815 145 831 185 q 770 75 800 106 q 697 23 740 44 q 599 -10 654 1 q 476 -21 543 -21 m 124 228 l 132 382 l 104 115 q 160 81 132 97 q 217 50 188 64 q 274 25 246 36 q 158 110 197 57 q 124 228 119 163 m 636 967 q 748 885 710 939 q 783 749 786 831 l 781 635 l 807 872 q 758 910 785 893 q 701 942 731 928 q 636 967 671 957 m 824 232 q 806 327 824 286 q 747 401 788 368 q 640 463 707 435 q 474 517 572 490 q 275 585 349 550 q 170 667 201 621 q 139 779 139 714 q 180 897 139 849 q 289 969 221 944 q 202 926 238 953 q 149 862 167 899 q 132 779 132 825 q 149 689 132 728 q 206 619 167 650 q 311 560 246 588 q 472 508 376 533 q 677 436 601 474 q 785 350 753 399 q 817 232 817 301 q 771 97 817 151 q 644 14 725 42 q 722 49 689 28 q 778 97 756 69 q 813 159 801 125 q 824 232 824 193 m 529 -299 q 444 -275 481 -299 q 393 -208 408 -251 l 407 -194 q 454 -256 422 -233 q 529 -278 486 -278 q 577 -266 557 -278 q 609 -232 597 -254 q 621 -182 621 -210 q 610 -136 621 -157 q 580 -99 600 -115 q 530 -73 560 -82 q 463 -64 500 -64 l 485 -10 l 506 -10 l 497 -32 l 508 -47 q 581 -74 551 -56 q 626 -119 611 -92 q 642 -182 642 -146 q 627 -242 642 -215 q 588 -283 613 -268 q 529 -299 563 -299 m 529 -289 q 606 -259 576 -289 q 635 -182 635 -229 q 627 -140 635 -158 q 603 -108 619 -122 q 564 -86 588 -94 q 612 -124 596 -100 q 628 -182 628 -149 q 614 -238 628 -214 q 574 -275 600 -262 q 515 -287 549 -287 q 520 -289 517 -289 q 529 -289 524 -289 z "},"Ș":{"ha":928,"x_min":97,"x_max":831,"o":"m 476 -21 q 349 -5 414 -21 q 220 41 283 11 q 97 113 157 71 l 125 389 l 139 389 l 131 228 q 170 107 128 158 q 292 28 213 56 q 476 0 371 0 q 656 28 582 0 q 770 108 731 56 q 810 232 810 160 q 778 345 810 299 q 672 428 746 392 q 472 500 599 465 q 267 572 343 535 q 158 660 190 610 q 125 779 125 710 q 148 874 125 832 q 214 944 171 915 q 319 989 257 974 q 460 1004 381 1004 q 600 988 535 1004 q 719 942 665 971 q 814 875 774 913 l 786 626 l 772 626 l 776 749 q 744 880 779 828 q 637 958 708 932 q 460 983 565 983 q 291 959 361 983 q 183 889 221 935 q 146 779 146 843 q 176 670 146 715 q 279 590 207 625 q 475 524 351 556 q 643 469 575 497 q 753 406 711 440 q 813 330 794 372 q 831 232 831 288 q 815 145 831 185 q 770 75 800 106 q 697 23 740 44 q 599 -10 654 1 q 476 -21 543 -21 m 124 228 l 132 382 l 104 115 q 160 81 132 97 q 217 50 188 64 q 274 25 246 36 q 158 110 197 57 q 124 228 119 163 m 636 967 q 748 885 710 939 q 783 749 786 831 l 781 635 l 807 872 q 758 910 785 893 q 701 942 731 928 q 636 967 671 957 m 824 232 q 806 327 824 286 q 747 401 788 368 q 640 463 707 435 q 474 517 572 490 q 275 585 349 550 q 170 667 201 621 q 139 779 139 714 q 180 897 139 849 q 289 969 221 944 q 202 926 238 953 q 149 862 167 899 q 132 779 132 825 q 149 689 132 728 q 206 619 167 650 q 311 560 246 588 q 472 508 376 533 q 677 436 601 474 q 785 350 753 399 q 817 232 817 301 q 771 97 817 151 q 644 14 725 42 q 722 49 689 28 q 778 97 756 69 q 813 159 801 125 q 824 232 824 193 m 432 -285 l 426 -272 q 463 -254 446 -264 q 495 -232 481 -244 q 518 -207 510 -219 l 504 -194 l 499 -194 q 465 -186 479 -194 q 442 -163 450 -178 q 433 -129 433 -149 q 442 -98 433 -111 q 467 -77 451 -85 q 503 -69 483 -69 q 538 -78 522 -69 q 561 -100 553 -86 q 569 -132 569 -114 q 561 -178 569 -157 q 535 -219 553 -200 q 492 -255 518 -239 q 432 -285 467 -271 m 531 -203 q 549 -169 543 -187 q 556 -132 556 -151 q 549 -106 556 -117 q 530 -88 542 -94 q 501 -82 518 -82 q 472 -88 485 -82 q 452 -105 460 -94 q 444 -129 444 -115 q 451 -156 444 -144 q 470 -175 458 -168 q 497 -182 482 -182 q 503 -182 500 -182 q 507 -182 506 -182 l 531 -203 z "},"ẞ":{"ha":993,"x_min":111,"x_max":910,"o":"m 601 -21 q 455 3 517 -21 q 355 63 393 26 q 298 142 317 100 q 279 219 279 183 q 293 274 279 253 q 328 306 307 296 q 372 317 350 317 q 410 309 393 317 q 438 288 428 301 q 449 251 449 274 q 436 222 449 233 q 406 200 424 210 q 369 182 388 190 q 338 164 350 174 q 325 140 325 154 q 343 103 325 126 q 396 57 361 81 q 483 17 431 33 q 601 0 535 0 q 750 33 685 0 q 852 123 815 65 q 889 257 889 181 q 791 451 889 383 q 511 518 693 518 l 511 539 l 810 963 l 229 963 l 229 35 l 326 14 l 326 0 l 111 0 l 111 14 l 208 35 l 208 983 l 833 983 l 833 961 l 532 538 q 737 503 653 538 q 865 407 821 469 q 910 257 910 344 q 870 112 910 175 q 761 14 831 49 q 601 -21 692 -21 m 215 13 l 221 13 l 221 971 l 215 971 l 215 13 m 331 101 q 317 125 322 114 q 311 144 311 136 q 325 169 311 157 q 374 199 339 181 q 417 222 399 210 q 435 251 435 233 q 426 281 435 269 q 403 298 417 292 q 371 304 389 304 q 333 295 351 304 q 302 267 314 286 q 290 219 290 249 q 299 156 290 182 q 331 101 308 131 m 778 39 q 822 72 803 54 q 856 109 842 89 q 881 152 871 129 q 895 201 890 175 q 900 257 900 228 q 856 406 900 344 q 728 498 813 467 q 522 529 643 529 l 522 538 l 826 967 l 821 967 l 518 539 l 518 525 q 798 456 700 525 q 896 257 896 386 q 867 135 896 189 q 778 39 838 81 z "},"T":{"ha":974,"x_min":83,"x_max":890,"o":"m 379 0 l 379 14 l 476 35 l 476 963 l 243 963 q 171 951 199 963 q 132 909 143 940 q 125 818 121 878 l 138 644 l 117 644 l 83 983 l 890 983 l 857 644 l 836 644 l 850 810 q 844 906 856 874 q 806 951 833 939 q 731 963 778 963 l 497 963 l 497 35 l 594 14 l 594 0 l 379 0 m 125 654 l 115 818 q 133 934 111 900 q 215 974 156 968 l 94 974 l 125 654 m 483 7 l 490 7 l 490 976 l 483 976 l 483 7 m 849 654 l 879 974 l 758 974 q 844 931 821 967 q 860 808 867 894 l 849 654 z "},"Ť":{"ha":974,"x_min":83,"x_max":890,"o":"m 379 0 l 379 14 l 476 35 l 476 963 l 243 963 q 171 951 199 963 q 132 909 143 940 q 125 818 121 878 l 138 644 l 117 644 l 83 983 l 890 983 l 857 644 l 836 644 l 850 810 q 844 906 856 874 q 806 951 833 939 q 731 963 778 963 l 497 963 l 497 35 l 594 14 l 594 0 l 379 0 m 125 654 l 115 818 q 133 934 111 900 q 215 974 156 968 l 94 974 l 125 654 m 483 7 l 490 7 l 490 976 l 483 976 l 483 7 m 849 654 l 879 974 l 758 974 q 844 931 821 967 q 860 808 867 894 l 849 654 m 685 1276 l 696 1265 l 500 1103 l 478 1103 l 279 1265 l 292 1276 l 489 1118 l 685 1276 m 290 1265 l 478 1111 l 483 1111 l 482 1113 l 293 1268 l 290 1265 z "},"Ț":{"ha":974,"x_min":83,"x_max":890,"o":"m 379 0 l 379 14 l 476 35 l 476 963 l 243 963 q 171 951 199 963 q 132 909 143 940 q 125 818 121 878 l 138 644 l 117 644 l 83 983 l 890 983 l 857 644 l 836 644 l 850 810 q 844 906 856 874 q 806 951 833 939 q 731 963 778 963 l 497 963 l 497 35 l 594 14 l 594 0 l 379 0 m 125 654 l 115 818 q 133 934 111 900 q 215 974 156 968 l 94 974 l 125 654 m 483 7 l 490 7 l 490 976 l 483 976 l 483 7 m 849 654 l 879 974 l 758 974 q 844 931 821 967 q 860 808 867 894 l 849 654 m 418 -285 l 413 -272 q 449 -254 432 -264 q 481 -232 467 -244 q 504 -207 496 -219 l 490 -194 l 485 -194 q 451 -186 465 -194 q 428 -163 436 -178 q 419 -129 419 -149 q 428 -98 419 -111 q 453 -77 438 -85 q 489 -69 469 -69 q 524 -78 508 -69 q 547 -100 539 -86 q 556 -132 556 -114 q 547 -178 556 -157 q 522 -219 539 -200 q 478 -255 504 -239 q 418 -285 453 -271 m 517 -203 q 535 -169 529 -187 q 542 -132 542 -151 q 535 -106 542 -117 q 516 -88 528 -94 q 488 -82 504 -82 q 458 -88 471 -82 q 438 -105 446 -94 q 431 -129 431 -115 q 438 -156 431 -144 q 456 -175 444 -168 q 483 -182 468 -182 q 489 -182 486 -182 q 493 -182 492 -182 l 517 -203 z "},"U":{"ha":1028,"x_min":69,"x_max":979,"o":"m 543 -21 q 260 90 354 -21 q 167 422 167 200 l 167 949 l 69 969 l 69 983 l 285 983 l 285 969 l 188 949 l 188 422 q 276 105 188 210 q 543 0 364 0 q 781 105 703 0 q 860 422 860 210 l 860 781 q 852 869 860 833 q 827 928 844 906 q 781 960 810 950 q 708 969 751 969 l 708 983 l 979 983 l 979 969 l 882 949 l 882 422 q 798 90 882 200 q 543 -21 714 -21 m 543 -14 q 653 1 604 -14 q 740 44 701 17 q 652 6 701 18 q 543 -7 603 -7 q 342 40 422 -7 q 221 183 261 88 q 181 422 181 279 l 181 976 l 174 976 l 174 422 q 266 95 174 204 q 543 -14 358 -14 m 744 974 q 795 965 774 974 q 831 940 817 957 q 855 898 846 924 q 868 836 864 872 l 872 804 l 875 804 l 875 974 l 744 974 z "},"Ú":{"ha":1028,"x_min":69,"x_max":979,"o":"m 543 -21 q 260 90 354 -21 q 167 422 167 200 l 167 949 l 69 969 l 69 983 l 285 983 l 285 969 l 188 949 l 188 422 q 276 105 188 210 q 543 0 364 0 q 781 105 703 0 q 860 422 860 210 l 860 781 q 852 869 860 833 q 827 928 844 906 q 781 960 810 950 q 708 969 751 969 l 708 983 l 979 983 l 979 969 l 882 949 l 882 422 q 798 90 882 200 q 543 -21 714 -21 m 543 -14 q 653 1 604 -14 q 740 44 701 17 q 652 6 701 18 q 543 -7 603 -7 q 342 40 422 -7 q 221 183 261 88 q 181 422 181 279 l 181 976 l 174 976 l 174 422 q 266 95 174 204 q 543 -14 358 -14 m 744 974 q 795 965 774 974 q 831 940 817 957 q 855 898 846 924 q 868 836 864 872 l 872 804 l 875 804 l 875 974 l 744 974 m 488 1103 l 474 1117 l 682 1290 l 696 1275 l 488 1103 m 485 1117 l 489 1113 l 685 1275 l 681 1279 l 485 1117 z "},"Ŭ":{"ha":1028,"x_min":69,"x_max":979,"o":"m 543 -21 q 260 90 354 -21 q 167 422 167 200 l 167 949 l 69 969 l 69 983 l 285 983 l 285 969 l 188 949 l 188 422 q 276 105 188 210 q 543 0 364 0 q 781 105 703 0 q 860 422 860 210 l 860 781 q 852 869 860 833 q 827 928 844 906 q 781 960 810 950 q 708 969 751 969 l 708 983 l 979 983 l 979 969 l 882 949 l 882 422 q 798 90 882 200 q 543 -21 714 -21 m 543 -14 q 653 1 604 -14 q 740 44 701 17 q 652 6 701 18 q 543 -7 603 -7 q 342 40 422 -7 q 221 183 261 88 q 181 422 181 279 l 181 976 l 174 976 l 174 422 q 266 95 174 204 q 543 -14 358 -14 m 744 974 q 795 965 774 974 q 831 940 817 957 q 855 898 846 924 q 868 836 864 872 l 872 804 l 875 804 l 875 974 l 744 974 m 522 1117 q 399 1153 453 1117 q 314 1256 344 1189 l 332 1263 q 378 1194 350 1222 q 442 1152 406 1167 q 522 1138 479 1138 q 603 1152 567 1138 q 667 1194 639 1167 q 713 1263 694 1222 l 731 1256 q 646 1153 700 1189 q 522 1117 592 1117 m 522 1124 q 634 1153 585 1124 q 711 1236 683 1182 q 662 1179 690 1203 q 598 1143 633 1156 q 522 1131 563 1131 q 447 1143 482 1131 q 383 1179 411 1156 q 333 1236 354 1203 q 410 1153 361 1182 q 522 1124 460 1124 z "},"Û":{"ha":1028,"x_min":69,"x_max":979,"o":"m 543 -21 q 260 90 354 -21 q 167 422 167 200 l 167 949 l 69 969 l 69 983 l 285 983 l 285 969 l 188 949 l 188 422 q 276 105 188 210 q 543 0 364 0 q 781 105 703 0 q 860 422 860 210 l 860 781 q 852 869 860 833 q 827 928 844 906 q 781 960 810 950 q 708 969 751 969 l 708 983 l 979 983 l 979 969 l 882 949 l 882 422 q 798 90 882 200 q 543 -21 714 -21 m 543 -14 q 653 1 604 -14 q 740 44 701 17 q 652 6 701 18 q 543 -7 603 -7 q 342 40 422 -7 q 221 183 261 88 q 181 422 181 279 l 181 976 l 174 976 l 174 422 q 266 95 174 204 q 543 -14 358 -14 m 744 974 q 795 965 774 974 q 831 940 817 957 q 855 898 846 924 q 868 836 864 872 l 872 804 l 875 804 l 875 974 l 744 974 m 325 1103 l 314 1114 l 511 1276 l 533 1276 l 731 1114 l 718 1103 l 522 1261 l 325 1103 m 719 1114 l 532 1268 l 526 1268 l 528 1267 l 717 1111 l 719 1114 z "},"Ü":{"ha":1028,"x_min":69,"x_max":979,"o":"m 543 -21 q 260 90 354 -21 q 167 422 167 200 l 167 949 l 69 969 l 69 983 l 285 983 l 285 969 l 188 949 l 188 422 q 276 105 188 210 q 543 0 364 0 q 781 105 703 0 q 860 422 860 210 l 860 781 q 852 869 860 833 q 827 928 844 906 q 781 960 810 950 q 708 969 751 969 l 708 983 l 979 983 l 979 969 l 882 949 l 882 422 q 798 90 882 200 q 543 -21 714 -21 m 543 -14 q 653 1 604 -14 q 740 44 701 17 q 652 6 701 18 q 543 -7 603 -7 q 342 40 422 -7 q 221 183 261 88 q 181 422 181 279 l 181 976 l 174 976 l 174 422 q 266 95 174 204 q 543 -14 358 -14 m 744 974 q 795 965 774 974 q 831 940 817 957 q 855 898 846 924 q 868 836 864 872 l 872 804 l 875 804 l 875 974 l 744 974 m 661 1263 q 711 1246 692 1263 q 731 1203 731 1229 q 711 1160 731 1176 q 661 1144 692 1144 q 609 1160 629 1144 q 589 1203 589 1176 q 609 1246 589 1229 q 661 1263 629 1263 m 661 1157 q 702 1170 686 1157 q 718 1203 718 1183 q 702 1237 718 1224 q 661 1250 686 1250 q 618 1237 635 1250 q 601 1203 601 1224 q 618 1170 601 1183 q 661 1157 635 1157 m 383 1263 q 433 1246 414 1263 q 453 1203 453 1229 q 433 1160 453 1176 q 383 1144 414 1144 q 331 1160 351 1144 q 311 1203 311 1176 q 331 1246 311 1229 q 383 1263 351 1263 m 383 1157 q 424 1170 408 1157 q 440 1203 440 1183 q 424 1237 440 1224 q 383 1250 408 1250 q 340 1237 357 1250 q 324 1203 324 1224 q 340 1170 324 1183 q 383 1157 357 1157 z "},"Ù":{"ha":1028,"x_min":69,"x_max":979,"o":"m 543 -21 q 260 90 354 -21 q 167 422 167 200 l 167 949 l 69 969 l 69 983 l 285 983 l 285 969 l 188 949 l 188 422 q 276 105 188 210 q 543 0 364 0 q 781 105 703 0 q 860 422 860 210 l 860 781 q 852 869 860 833 q 827 928 844 906 q 781 960 810 950 q 708 969 751 969 l 708 983 l 979 983 l 979 969 l 882 949 l 882 422 q 798 90 882 200 q 543 -21 714 -21 m 543 -14 q 653 1 604 -14 q 740 44 701 17 q 652 6 701 18 q 543 -7 603 -7 q 342 40 422 -7 q 221 183 261 88 q 181 422 181 279 l 181 976 l 174 976 l 174 422 q 266 95 174 204 q 543 -14 358 -14 m 744 974 q 795 965 774 974 q 831 940 817 957 q 855 898 846 924 q 868 836 864 872 l 872 804 l 875 804 l 875 974 l 744 974 m 578 1103 l 369 1275 l 383 1290 l 592 1117 l 578 1103 m 581 1117 l 385 1279 l 381 1275 l 576 1113 l 581 1117 z "},"Ű":{"ha":1028,"x_min":69,"x_max":979,"o":"m 543 -21 q 260 90 354 -21 q 167 422 167 200 l 167 949 l 69 969 l 69 983 l 285 983 l 285 969 l 188 949 l 188 422 q 276 105 188 210 q 543 0 364 0 q 781 105 703 0 q 860 422 860 210 l 860 781 q 852 869 860 833 q 827 928 844 906 q 781 960 810 950 q 708 969 751 969 l 708 983 l 979 983 l 979 969 l 882 949 l 882 422 q 798 90 882 200 q 543 -21 714 -21 m 543 -14 q 653 1 604 -14 q 740 44 701 17 q 652 6 701 18 q 543 -7 603 -7 q 342 40 422 -7 q 221 183 261 88 q 181 422 181 279 l 181 976 l 174 976 l 174 422 q 266 95 174 204 q 543 -14 358 -14 m 744 974 q 795 965 774 974 q 831 940 817 957 q 855 898 846 924 q 868 836 864 872 l 872 804 l 875 804 l 875 974 l 744 974 m 633 1103 l 619 1117 l 828 1290 l 842 1275 l 633 1103 m 631 1117 l 635 1113 l 831 1275 l 826 1279 l 631 1117 m 467 1103 l 453 1117 l 661 1290 l 675 1275 l 467 1103 m 464 1117 l 468 1113 l 664 1275 l 660 1279 l 464 1117 z "},"Ū":{"ha":1028,"x_min":69,"x_max":979,"o":"m 543 -21 q 260 90 354 -21 q 167 422 167 200 l 167 949 l 69 969 l 69 983 l 285 983 l 285 969 l 188 949 l 188 422 q 276 105 188 210 q 543 0 364 0 q 781 105 703 0 q 860 422 860 210 l 860 781 q 852 869 860 833 q 827 928 844 906 q 781 960 810 950 q 708 969 751 969 l 708 983 l 979 983 l 979 969 l 882 949 l 882 422 q 798 90 882 200 q 543 -21 714 -21 m 543 -14 q 653 1 604 -14 q 740 44 701 17 q 652 6 701 18 q 543 -7 603 -7 q 342 40 422 -7 q 221 183 261 88 q 181 422 181 279 l 181 976 l 174 976 l 174 422 q 266 95 174 204 q 543 -14 358 -14 m 744 974 q 795 965 774 974 q 831 940 817 957 q 855 898 846 924 q 868 836 864 872 l 872 804 l 875 804 l 875 974 l 744 974 m 300 1178 l 300 1199 l 744 1199 l 744 1178 l 300 1178 m 314 1185 l 731 1185 l 731 1192 l 314 1192 l 314 1185 z "},"Ų":{"ha":1028,"x_min":69,"x_max":979,"o":"m 543 -21 q 260 90 354 -21 q 167 422 167 200 l 167 949 l 69 969 l 69 983 l 285 983 l 285 969 l 188 949 l 188 422 q 276 105 188 210 q 543 0 364 0 q 781 105 703 0 q 860 422 860 210 l 860 781 q 852 869 860 833 q 827 928 844 906 q 781 960 810 950 q 708 969 751 969 l 708 983 l 979 983 l 979 969 l 882 949 l 882 422 q 798 90 882 200 q 543 -21 714 -21 m 543 -14 q 653 1 604 -14 q 740 44 701 17 q 652 6 701 18 q 543 -7 603 -7 q 342 40 422 -7 q 221 183 261 88 q 181 422 181 279 l 181 976 l 174 976 l 174 422 q 266 95 174 204 q 543 -14 358 -14 m 744 974 q 795 965 774 974 q 831 940 817 957 q 855 898 846 924 q 868 836 864 872 l 872 804 l 875 804 l 875 974 l 744 974 m 688 6 q 546 -97 593 -47 q 499 -194 499 -146 q 523 -251 499 -229 q 585 -272 547 -272 q 660 -251 625 -272 q 726 -187 696 -231 l 736 -197 q 667 -268 706 -243 q 585 -293 628 -293 q 530 -281 554 -293 q 492 -246 506 -268 q 478 -194 478 -224 q 528 -87 478 -139 q 678 14 578 -35 l 688 6 m 585 -286 q 638 -276 613 -286 q 674 -253 663 -265 q 631 -273 651 -267 q 585 -279 610 -279 q 518 -255 544 -279 q 492 -194 492 -231 q 519 -116 492 -153 q 610 -32 546 -79 q 513 -113 542 -76 q 485 -194 485 -150 q 498 -242 485 -221 q 533 -274 511 -262 q 585 -286 556 -286 z "},"Ů":{"ha":1028,"x_min":69,"x_max":979,"o":"m 543 -21 q 260 90 354 -21 q 167 422 167 200 l 167 949 l 69 969 l 69 983 l 285 983 l 285 969 l 188 949 l 188 422 q 276 105 188 210 q 543 0 364 0 q 781 105 703 0 q 860 422 860 210 l 860 781 q 852 869 860 833 q 827 928 844 906 q 781 960 810 950 q 708 969 751 969 l 708 983 l 979 983 l 979 969 l 882 949 l 882 422 q 798 90 882 200 q 543 -21 714 -21 m 543 -14 q 653 1 604 -14 q 740 44 701 17 q 652 6 701 18 q 543 -7 603 -7 q 342 40 422 -7 q 221 183 261 88 q 181 422 181 279 l 181 976 l 174 976 l 174 422 q 266 95 174 204 q 543 -14 358 -14 m 744 974 q 795 965 774 974 q 831 940 817 957 q 855 898 846 924 q 868 836 864 872 l 872 804 l 875 804 l 875 974 l 744 974 m 521 1286 q 578 1274 553 1286 q 619 1241 604 1263 q 633 1192 633 1219 q 619 1142 633 1164 q 578 1107 604 1119 q 521 1094 553 1094 q 464 1107 489 1094 q 425 1142 439 1119 q 411 1192 411 1164 q 425 1241 411 1219 q 464 1274 439 1263 q 521 1286 489 1286 m 521 1265 q 457 1244 482 1265 q 432 1192 432 1224 q 457 1137 432 1158 q 521 1115 482 1115 q 586 1137 560 1115 q 613 1192 613 1158 q 586 1244 613 1224 q 521 1265 560 1265 m 478 1111 q 438 1144 453 1122 q 422 1192 422 1165 q 438 1239 422 1218 q 478 1269 453 1260 q 447 1253 460 1264 q 428 1226 435 1242 q 421 1192 421 1211 q 428 1156 421 1172 q 447 1129 435 1140 q 478 1111 460 1118 m 565 1111 q 597 1129 583 1118 q 617 1156 610 1140 q 624 1192 624 1172 q 617 1226 624 1211 q 597 1253 610 1242 q 565 1269 583 1264 q 606 1240 590 1260 q 622 1192 622 1219 q 606 1144 622 1165 q 565 1111 590 1122 z "},"V":{"ha":957,"x_min":14,"x_max":943,"o":"m 467 0 l 111 949 l 14 969 l 14 983 l 231 983 l 231 969 l 132 950 l 472 39 l 485 39 l 785 840 q 797 881 793 863 q 801 911 801 899 q 772 957 801 944 q 669 969 743 969 l 669 983 l 943 983 l 943 969 l 846 949 l 492 0 l 467 0 m 494 29 l 468 29 l 115 976 l 108 976 l 471 10 l 488 10 l 494 29 m 790 829 l 846 974 l 747 974 q 783 962 769 969 q 804 942 797 954 q 811 911 811 929 q 806 881 811 901 q 790 829 801 860 z "},"W":{"ha":1543,"x_min":14,"x_max":1529,"o":"m 1053 0 l 764 769 l 775 796 l 1058 39 l 1071 39 l 1371 840 q 1383 880 1379 863 q 1388 911 1388 897 q 1375 946 1388 933 q 1334 964 1363 958 q 1256 969 1306 969 l 1256 983 l 1529 983 l 1529 969 l 1432 949 l 1078 0 l 1053 0 m 467 0 l 111 949 l 14 969 l 14 983 l 231 983 l 231 969 l 132 950 l 472 39 l 485 39 l 785 840 q 797 881 793 863 q 801 911 801 899 q 772 957 801 944 q 669 969 743 969 l 669 983 l 943 983 l 943 969 l 846 949 l 492 0 l 467 0 m 494 29 l 468 29 l 115 976 l 108 976 l 471 10 l 488 10 l 494 29 m 790 829 l 846 974 l 747 974 q 783 962 769 969 q 804 942 797 954 q 811 911 811 929 q 806 881 811 901 q 790 829 801 860 m 1057 10 l 1074 10 l 1081 29 l 1054 29 l 775 778 l 772 769 l 1057 10 m 1376 829 l 1432 974 l 1333 974 q 1369 962 1356 969 q 1390 942 1383 954 q 1397 911 1397 929 q 1392 881 1397 901 q 1376 829 1388 860 z "},"Ẃ":{"ha":1543,"x_min":14,"x_max":1529,"o":"m 1053 0 l 764 769 l 775 796 l 1058 39 l 1071 39 l 1371 840 q 1383 880 1379 863 q 1388 911 1388 897 q 1375 946 1388 933 q 1334 964 1363 958 q 1256 969 1306 969 l 1256 983 l 1529 983 l 1529 969 l 1432 949 l 1078 0 l 1053 0 m 467 0 l 111 949 l 14 969 l 14 983 l 231 983 l 231 969 l 132 950 l 472 39 l 485 39 l 785 840 q 797 881 793 863 q 801 911 801 899 q 772 957 801 944 q 669 969 743 969 l 669 983 l 943 983 l 943 969 l 846 949 l 492 0 l 467 0 m 494 29 l 468 29 l 115 976 l 108 976 l 471 10 l 488 10 l 494 29 m 790 829 l 846 974 l 747 974 q 783 962 769 969 q 804 942 797 954 q 811 911 811 929 q 806 881 811 901 q 790 829 801 860 m 1057 10 l 1074 10 l 1081 29 l 1054 29 l 775 778 l 772 769 l 1057 10 m 1376 829 l 1432 974 l 1333 974 q 1369 962 1356 969 q 1390 942 1383 954 q 1397 911 1397 929 q 1392 881 1397 901 q 1376 829 1388 860 m 764 1103 l 750 1117 l 958 1290 l 972 1275 l 764 1103 m 761 1117 l 765 1113 l 961 1275 l 957 1279 l 761 1117 z "},"Ŵ":{"ha":1543,"x_min":14,"x_max":1529,"o":"m 1053 0 l 764 769 l 775 796 l 1058 39 l 1071 39 l 1371 840 q 1383 880 1379 863 q 1388 911 1388 897 q 1375 946 1388 933 q 1334 964 1363 958 q 1256 969 1306 969 l 1256 983 l 1529 983 l 1529 969 l 1432 949 l 1078 0 l 1053 0 m 467 0 l 111 949 l 14 969 l 14 983 l 231 983 l 231 969 l 132 950 l 472 39 l 485 39 l 785 840 q 797 881 793 863 q 801 911 801 899 q 772 957 801 944 q 669 969 743 969 l 669 983 l 943 983 l 943 969 l 846 949 l 492 0 l 467 0 m 494 29 l 468 29 l 115 976 l 108 976 l 471 10 l 488 10 l 494 29 m 790 829 l 846 974 l 747 974 q 783 962 769 969 q 804 942 797 954 q 811 911 811 929 q 806 881 811 901 q 790 829 801 860 m 1057 10 l 1074 10 l 1081 29 l 1054 29 l 775 778 l 772 769 l 1057 10 m 1376 829 l 1432 974 l 1333 974 q 1369 962 1356 969 q 1390 942 1383 954 q 1397 911 1397 929 q 1392 881 1397 901 q 1376 829 1388 860 m 601 1103 l 590 1114 l 788 1276 l 810 1276 l 1007 1114 l 994 1103 l 799 1261 l 601 1103 m 996 1114 l 808 1268 l 803 1268 l 804 1267 l 993 1111 l 996 1114 z "},"Ẅ":{"ha":1543,"x_min":14,"x_max":1529,"o":"m 1053 0 l 764 769 l 775 796 l 1058 39 l 1071 39 l 1371 840 q 1383 880 1379 863 q 1388 911 1388 897 q 1375 946 1388 933 q 1334 964 1363 958 q 1256 969 1306 969 l 1256 983 l 1529 983 l 1529 969 l 1432 949 l 1078 0 l 1053 0 m 467 0 l 111 949 l 14 969 l 14 983 l 231 983 l 231 969 l 132 950 l 472 39 l 485 39 l 785 840 q 797 881 793 863 q 801 911 801 899 q 772 957 801 944 q 669 969 743 969 l 669 983 l 943 983 l 943 969 l 846 949 l 492 0 l 467 0 m 494 29 l 468 29 l 115 976 l 108 976 l 471 10 l 488 10 l 494 29 m 790 829 l 846 974 l 747 974 q 783 962 769 969 q 804 942 797 954 q 811 911 811 929 q 806 881 811 901 q 790 829 801 860 m 1057 10 l 1074 10 l 1081 29 l 1054 29 l 775 778 l 772 769 l 1057 10 m 1376 829 l 1432 974 l 1333 974 q 1369 962 1356 969 q 1390 942 1383 954 q 1397 911 1397 929 q 1392 881 1397 901 q 1376 829 1388 860 m 938 1263 q 988 1246 968 1263 q 1007 1203 1007 1229 q 988 1160 1007 1176 q 938 1144 968 1144 q 885 1160 906 1144 q 865 1203 865 1176 q 885 1246 865 1229 q 938 1263 906 1263 m 938 1157 q 978 1170 963 1157 q 994 1203 994 1183 q 978 1237 994 1224 q 938 1250 963 1250 q 894 1237 911 1250 q 878 1203 878 1224 q 894 1170 878 1183 q 938 1157 911 1157 m 660 1263 q 710 1246 690 1263 q 729 1203 729 1229 q 710 1160 729 1176 q 660 1144 690 1144 q 608 1160 628 1144 q 588 1203 588 1176 q 608 1246 588 1229 q 660 1263 628 1263 m 660 1157 q 701 1170 685 1157 q 717 1203 717 1183 q 701 1237 717 1224 q 660 1250 685 1250 q 617 1237 633 1250 q 600 1203 600 1224 q 617 1170 600 1183 q 660 1157 633 1157 z "},"Ẁ":{"ha":1543,"x_min":14,"x_max":1529,"o":"m 1053 0 l 764 769 l 775 796 l 1058 39 l 1071 39 l 1371 840 q 1383 880 1379 863 q 1388 911 1388 897 q 1375 946 1388 933 q 1334 964 1363 958 q 1256 969 1306 969 l 1256 983 l 1529 983 l 1529 969 l 1432 949 l 1078 0 l 1053 0 m 467 0 l 111 949 l 14 969 l 14 983 l 231 983 l 231 969 l 132 950 l 472 39 l 485 39 l 785 840 q 797 881 793 863 q 801 911 801 899 q 772 957 801 944 q 669 969 743 969 l 669 983 l 943 983 l 943 969 l 846 949 l 492 0 l 467 0 m 494 29 l 468 29 l 115 976 l 108 976 l 471 10 l 488 10 l 494 29 m 790 829 l 846 974 l 747 974 q 783 962 769 969 q 804 942 797 954 q 811 911 811 929 q 806 881 811 901 q 790 829 801 860 m 1057 10 l 1074 10 l 1081 29 l 1054 29 l 775 778 l 772 769 l 1057 10 m 1376 829 l 1432 974 l 1333 974 q 1369 962 1356 969 q 1390 942 1383 954 q 1397 911 1397 929 q 1392 881 1397 901 q 1376 829 1388 860 m 854 1103 l 646 1275 l 660 1290 l 868 1117 l 854 1103 m 857 1117 l 661 1279 l 657 1275 l 853 1113 l 857 1117 z "},"X":{"ha":946,"x_min":28,"x_max":918,"o":"m 700 0 l 700 14 l 797 35 l 132 949 l 35 969 l 35 983 l 249 983 l 249 969 l 151 950 l 819 35 l 917 14 l 917 0 l 700 0 m 119 11 l 300 11 q 202 22 229 11 q 175 61 175 33 q 187 94 175 74 q 225 156 199 115 l 119 11 m 28 0 l 28 14 l 125 33 l 465 497 l 499 450 l 451 450 l 228 146 q 195 94 206 114 q 185 61 185 75 q 219 25 185 36 q 331 14 253 14 l 331 0 l 28 0 m 825 7 l 832 7 l 125 976 l 118 976 l 825 7 m 483 490 l 457 525 l 488 525 l 718 836 q 758 897 747 876 q 769 926 769 917 q 756 951 769 942 q 710 965 742 961 q 624 969 678 969 l 624 983 l 918 983 l 918 969 l 821 950 l 483 490 m 726 832 l 832 976 l 651 976 q 750 965 722 976 q 778 926 778 954 q 766 893 778 914 q 726 832 754 872 z "},"Y":{"ha":869,"x_min":14,"x_max":856,"o":"m 329 0 l 329 14 l 426 35 l 426 421 l 111 949 l 14 969 l 14 983 l 229 983 l 229 969 l 132 950 l 425 460 l 449 460 l 703 885 q 711 903 708 894 q 714 919 714 913 q 687 958 714 947 q 590 969 660 969 l 590 983 l 856 983 l 856 969 l 763 949 l 447 421 l 447 35 l 544 14 l 544 0 l 329 0 m 103 976 l 433 422 l 433 7 l 440 7 l 440 424 l 458 453 l 421 453 l 108 976 l 103 976 m 597 976 q 669 971 642 976 q 708 953 696 965 q 721 919 721 940 q 720 907 721 913 q 718 899 719 901 l 711 883 l 714 882 l 771 976 l 597 976 z "},"Ý":{"ha":869,"x_min":14,"x_max":856,"o":"m 329 0 l 329 14 l 426 35 l 426 421 l 111 949 l 14 969 l 14 983 l 229 983 l 229 969 l 132 950 l 425 460 l 449 460 l 703 885 q 711 903 708 894 q 714 919 714 913 q 687 958 714 947 q 590 969 660 969 l 590 983 l 856 983 l 856 969 l 763 949 l 447 421 l 447 35 l 544 14 l 544 0 l 329 0 m 103 976 l 433 422 l 433 7 l 440 7 l 440 424 l 458 453 l 421 453 l 108 976 l 103 976 m 597 976 q 669 971 642 976 q 708 953 696 965 q 721 919 721 940 q 720 907 721 913 q 718 899 719 901 l 711 883 l 714 882 l 771 976 l 597 976 m 403 1103 l 389 1117 l 597 1290 l 611 1275 l 403 1103 m 400 1117 l 404 1113 l 600 1275 l 596 1279 l 400 1117 z "},"Ŷ":{"ha":869,"x_min":14,"x_max":856,"o":"m 329 0 l 329 14 l 426 35 l 426 421 l 111 949 l 14 969 l 14 983 l 229 983 l 229 969 l 132 950 l 425 460 l 449 460 l 703 885 q 711 903 708 894 q 714 919 714 913 q 687 958 714 947 q 590 969 660 969 l 590 983 l 856 983 l 856 969 l 763 949 l 447 421 l 447 35 l 544 14 l 544 0 l 329 0 m 103 976 l 433 422 l 433 7 l 440 7 l 440 424 l 458 453 l 421 453 l 108 976 l 103 976 m 597 976 q 669 971 642 976 q 708 953 696 965 q 721 919 721 940 q 720 907 721 913 q 718 899 719 901 l 711 883 l 714 882 l 771 976 l 597 976 m 240 1103 l 229 1114 l 426 1276 l 449 1276 l 646 1114 l 633 1103 l 438 1261 l 240 1103 m 635 1114 l 447 1268 l 442 1268 l 443 1267 l 632 1111 l 635 1114 z "},"Ÿ":{"ha":869,"x_min":14,"x_max":856,"o":"m 329 0 l 329 14 l 426 35 l 426 421 l 111 949 l 14 969 l 14 983 l 229 983 l 229 969 l 132 950 l 425 460 l 449 460 l 703 885 q 711 903 708 894 q 714 919 714 913 q 687 958 714 947 q 590 969 660 969 l 590 983 l 856 983 l 856 969 l 763 949 l 447 421 l 447 35 l 544 14 l 544 0 l 329 0 m 103 976 l 433 422 l 433 7 l 440 7 l 440 424 l 458 453 l 421 453 l 108 976 l 103 976 m 597 976 q 669 971 642 976 q 708 953 696 965 q 721 919 721 940 q 720 907 721 913 q 718 899 719 901 l 711 883 l 714 882 l 771 976 l 597 976 m 576 1263 q 626 1246 607 1263 q 646 1203 646 1229 q 626 1160 646 1176 q 576 1144 607 1144 q 524 1160 544 1144 q 504 1203 504 1176 q 524 1246 504 1229 q 576 1263 544 1263 m 576 1157 q 617 1170 601 1157 q 633 1203 633 1183 q 617 1237 633 1224 q 576 1250 601 1250 q 533 1237 550 1250 q 517 1203 517 1224 q 533 1170 517 1183 q 576 1157 550 1157 m 299 1263 q 349 1246 329 1263 q 368 1203 368 1229 q 349 1160 368 1176 q 299 1144 329 1144 q 247 1160 267 1144 q 226 1203 226 1176 q 247 1246 226 1229 q 299 1263 267 1263 m 299 1157 q 340 1170 324 1157 q 356 1203 356 1183 q 340 1237 356 1224 q 299 1250 324 1250 q 256 1237 272 1250 q 239 1203 239 1224 q 256 1170 239 1183 q 299 1157 272 1157 z "},"Ỳ":{"ha":869,"x_min":14,"x_max":856,"o":"m 329 0 l 329 14 l 426 35 l 426 421 l 111 949 l 14 969 l 14 983 l 229 983 l 229 969 l 132 950 l 425 460 l 449 460 l 703 885 q 711 903 708 894 q 714 919 714 913 q 687 958 714 947 q 590 969 660 969 l 590 983 l 856 983 l 856 969 l 763 949 l 447 421 l 447 35 l 544 14 l 544 0 l 329 0 m 103 976 l 433 422 l 433 7 l 440 7 l 440 424 l 458 453 l 421 453 l 108 976 l 103 976 m 597 976 q 669 971 642 976 q 708 953 696 965 q 721 919 721 940 q 720 907 721 913 q 718 899 719 901 l 711 883 l 714 882 l 771 976 l 597 976 m 493 1103 l 285 1275 l 299 1290 l 507 1117 l 493 1103 m 496 1117 l 300 1279 l 296 1275 l 492 1113 l 496 1117 z "},"Z":{"ha":925,"x_min":69,"x_max":856,"o":"m 69 0 l 811 963 l 224 963 q 184 949 199 963 q 163 899 169 936 q 158 792 157 863 l 161 644 l 147 644 l 111 983 l 856 983 l 113 21 l 722 21 q 765 37 749 21 q 788 99 782 53 q 789 233 794 144 l 781 361 l 794 361 l 836 0 l 69 0 m 154 651 l 151 806 q 165 936 150 896 q 224 976 181 976 l 119 976 l 154 651 m 85 7 l 93 7 l 840 976 l 832 976 l 85 7 m 722 7 l 828 7 l 789 354 l 797 219 q 790 56 804 106 q 722 7 776 7 z "},"Ź":{"ha":925,"x_min":69,"x_max":856,"o":"m 69 0 l 811 963 l 224 963 q 184 949 199 963 q 163 899 169 936 q 158 792 157 863 l 161 644 l 147 644 l 111 983 l 856 983 l 113 21 l 722 21 q 765 37 749 21 q 788 99 782 53 q 789 233 794 144 l 781 361 l 794 361 l 836 0 l 69 0 m 154 651 l 151 806 q 165 936 150 896 q 224 976 181 976 l 119 976 l 154 651 m 85 7 l 93 7 l 840 976 l 832 976 l 85 7 m 722 7 l 828 7 l 789 354 l 797 219 q 790 56 804 106 q 722 7 776 7 m 435 1103 l 421 1117 l 629 1290 l 643 1275 l 435 1103 m 432 1117 l 436 1113 l 632 1275 l 628 1279 l 432 1117 z "},"Ž":{"ha":925,"x_min":69,"x_max":856,"o":"m 69 0 l 811 963 l 224 963 q 184 949 199 963 q 163 899 169 936 q 158 792 157 863 l 161 644 l 147 644 l 111 983 l 856 983 l 113 21 l 722 21 q 765 37 749 21 q 788 99 782 53 q 789 233 794 144 l 781 361 l 794 361 l 836 0 l 69 0 m 154 651 l 151 806 q 165 936 150 896 q 224 976 181 976 l 119 976 l 154 651 m 85 7 l 93 7 l 840 976 l 832 976 l 85 7 m 722 7 l 828 7 l 789 354 l 797 219 q 790 56 804 106 q 722 7 776 7 m 667 1276 l 678 1265 l 482 1103 l 460 1103 l 261 1265 l 274 1276 l 471 1118 l 667 1276 m 272 1265 l 460 1111 l 465 1111 l 464 1113 l 275 1268 l 272 1265 z "},"Ż":{"ha":925,"x_min":69,"x_max":856,"o":"m 69 0 l 811 963 l 224 963 q 184 949 199 963 q 163 899 169 936 q 158 792 157 863 l 161 644 l 147 644 l 111 983 l 856 983 l 113 21 l 722 21 q 765 37 749 21 q 788 99 782 53 q 789 233 794 144 l 781 361 l 794 361 l 836 0 l 69 0 m 154 651 l 151 806 q 165 936 150 896 q 224 976 181 976 l 119 976 l 154 651 m 85 7 l 93 7 l 840 976 l 832 976 l 85 7 m 722 7 l 828 7 l 789 354 l 797 219 q 790 56 804 106 q 722 7 776 7 m 471 1263 q 521 1246 501 1263 q 540 1203 540 1229 q 521 1160 540 1176 q 471 1144 501 1144 q 419 1160 439 1144 q 399 1203 399 1176 q 419 1246 399 1229 q 471 1263 439 1263 m 471 1157 q 512 1170 496 1157 q 528 1203 528 1183 q 512 1237 528 1224 q 471 1250 496 1250 q 428 1237 444 1250 q 411 1203 411 1224 q 428 1170 411 1183 q 471 1157 444 1157 z "},"a":{"ha":869,"x_min":97,"x_max":828,"o":"m 419 715 q 540 694 490 715 q 621 631 589 674 q 667 521 653 588 q 682 364 682 454 l 682 51 q 695 12 682 24 q 726 0 708 0 q 777 13 750 0 q 828 43 804 25 l 828 28 q 794 1 813 13 q 758 -15 776 -10 q 721 -21 739 -21 q 676 -1 690 -21 q 663 60 663 19 q 663 127 663 106 q 663 159 663 149 q 663 181 663 169 l 649 189 q 581 100 622 139 q 488 34 539 61 q 384 -7 438 7 q 282 -21 331 -21 q 190 -6 232 -21 q 123 41 149 8 q 97 126 97 74 q 238 304 97 244 q 663 364 378 364 q 638 551 663 478 q 560 659 614 624 q 419 694 507 694 q 306 683 356 694 q 228 656 256 671 q 200 626 200 640 q 208 615 200 621 q 239 597 217 608 q 274 549 274 579 q 251 509 274 522 q 201 496 229 496 q 152 510 175 496 q 129 553 129 524 q 153 610 129 582 q 219 663 178 639 q 312 701 260 688 q 419 715 364 715 m 663 344 q 359 320 481 344 q 177 248 238 296 q 117 126 117 200 q 139 53 117 81 q 199 13 161 25 q 282 0 236 0 q 390 16 333 0 q 501 65 447 32 q 597 144 554 97 q 663 254 640 192 l 663 344 m 282 -15 q 394 2 339 -15 q 497 50 450 19 q 388 6 444 21 q 282 -10 332 -10 q 189 6 228 -10 q 130 53 150 22 q 110 126 110 83 q 203 275 110 218 q 468 346 296 332 q 198 275 292 332 q 104 126 104 218 q 125 49 104 81 q 186 1 146 18 q 282 -15 226 -15 m 485 700 q 550 678 521 693 q 601 638 579 664 q 653 528 636 597 q 669 364 669 460 l 669 51 q 672 28 669 39 q 681 10 675 18 q 694 -3 686 3 q 701 -8 697 -6 q 711 -11 706 -10 q 683 13 690 -1 q 675 51 675 26 l 675 364 q 658 529 675 461 q 604 639 640 597 q 571 668 589 656 q 531 688 553 681 q 485 700 510 696 m 201 503 q 248 517 229 503 q 267 549 267 531 q 253 578 267 568 q 222 597 239 589 q 202 608 213 601 q 192 626 192 615 q 199 642 192 635 q 165 614 179 629 q 144 583 151 599 q 136 553 136 568 q 155 517 136 532 q 201 503 174 503 z "},"á":{"ha":869,"x_min":97,"x_max":828,"o":"m 419 715 q 540 694 490 715 q 621 631 589 674 q 667 521 653 588 q 682 364 682 454 l 682 51 q 695 12 682 24 q 726 0 708 0 q 777 13 750 0 q 828 43 804 25 l 828 28 q 794 1 813 13 q 758 -15 776 -10 q 721 -21 739 -21 q 676 -1 690 -21 q 663 60 663 19 q 663 127 663 106 q 663 159 663 149 q 663 181 663 169 l 649 189 q 581 100 622 139 q 488 34 539 61 q 384 -7 438 7 q 282 -21 331 -21 q 190 -6 232 -21 q 123 41 149 8 q 97 126 97 74 q 238 304 97 244 q 663 364 378 364 q 638 551 663 478 q 560 659 614 624 q 419 694 507 694 q 306 683 356 694 q 228 656 256 671 q 200 626 200 640 q 208 615 200 621 q 239 597 217 608 q 274 549 274 579 q 251 509 274 522 q 201 496 229 496 q 152 510 175 496 q 129 553 129 524 q 153 610 129 582 q 219 663 178 639 q 312 701 260 688 q 419 715 364 715 m 663 344 q 359 320 481 344 q 177 248 238 296 q 117 126 117 200 q 139 53 117 81 q 199 13 161 25 q 282 0 236 0 q 390 16 333 0 q 501 65 447 32 q 597 144 554 97 q 663 254 640 192 l 663 344 m 282 -15 q 394 2 339 -15 q 497 50 450 19 q 388 6 444 21 q 282 -10 332 -10 q 189 6 228 -10 q 130 53 150 22 q 110 126 110 83 q 203 275 110 218 q 468 346 296 332 q 198 275 292 332 q 104 126 104 218 q 125 49 104 81 q 186 1 146 18 q 282 -15 226 -15 m 485 700 q 550 678 521 693 q 601 638 579 664 q 653 528 636 597 q 669 364 669 460 l 669 51 q 672 28 669 39 q 681 10 675 18 q 694 -3 686 3 q 701 -8 697 -6 q 711 -11 706 -10 q 683 13 690 -1 q 675 51 675 26 l 675 364 q 658 529 675 461 q 604 639 640 597 q 571 668 589 656 q 531 688 553 681 q 485 700 510 696 m 201 503 q 248 517 229 503 q 267 549 267 531 q 253 578 267 568 q 222 597 239 589 q 202 608 213 601 q 192 626 192 615 q 199 642 192 635 q 165 614 179 629 q 144 583 151 599 q 136 553 136 568 q 155 517 136 532 q 201 503 174 503 m 376 814 l 363 828 l 571 1001 l 585 986 l 376 814 m 374 828 l 378 824 l 574 986 l 569 990 l 374 828 z "},"ă":{"ha":869,"x_min":97,"x_max":828,"o":"m 419 715 q 540 694 490 715 q 621 631 589 674 q 667 521 653 588 q 682 364 682 454 l 682 51 q 695 12 682 24 q 726 0 708 0 q 777 13 750 0 q 828 43 804 25 l 828 28 q 794 1 813 13 q 758 -15 776 -10 q 721 -21 739 -21 q 676 -1 690 -21 q 663 60 663 19 q 663 127 663 106 q 663 159 663 149 q 663 181 663 169 l 649 189 q 581 100 622 139 q 488 34 539 61 q 384 -7 438 7 q 282 -21 331 -21 q 190 -6 232 -21 q 123 41 149 8 q 97 126 97 74 q 238 304 97 244 q 663 364 378 364 q 638 551 663 478 q 560 659 614 624 q 419 694 507 694 q 306 683 356 694 q 228 656 256 671 q 200 626 200 640 q 208 615 200 621 q 239 597 217 608 q 274 549 274 579 q 251 509 274 522 q 201 496 229 496 q 152 510 175 496 q 129 553 129 524 q 153 610 129 582 q 219 663 178 639 q 312 701 260 688 q 419 715 364 715 m 663 344 q 359 320 481 344 q 177 248 238 296 q 117 126 117 200 q 139 53 117 81 q 199 13 161 25 q 282 0 236 0 q 390 16 333 0 q 501 65 447 32 q 597 144 554 97 q 663 254 640 192 l 663 344 m 282 -15 q 394 2 339 -15 q 497 50 450 19 q 388 6 444 21 q 282 -10 332 -10 q 189 6 228 -10 q 130 53 150 22 q 110 126 110 83 q 203 275 110 218 q 468 346 296 332 q 198 275 292 332 q 104 126 104 218 q 125 49 104 81 q 186 1 146 18 q 282 -15 226 -15 m 485 700 q 550 678 521 693 q 601 638 579 664 q 653 528 636 597 q 669 364 669 460 l 669 51 q 672 28 669 39 q 681 10 675 18 q 694 -3 686 3 q 701 -8 697 -6 q 711 -11 706 -10 q 683 13 690 -1 q 675 51 675 26 l 675 364 q 658 529 675 461 q 604 639 640 597 q 571 668 589 656 q 531 688 553 681 q 485 700 510 696 m 201 503 q 248 517 229 503 q 267 549 267 531 q 253 578 267 568 q 222 597 239 589 q 202 608 213 601 q 192 626 192 615 q 199 642 192 635 q 165 614 179 629 q 144 583 151 599 q 136 553 136 568 q 155 517 136 532 q 201 503 174 503 m 411 828 q 288 864 342 828 q 203 967 233 900 l 221 974 q 267 906 239 933 q 331 863 294 878 q 411 849 368 849 q 492 863 456 849 q 556 906 528 878 q 601 974 583 933 l 619 967 q 535 864 589 900 q 411 828 481 828 m 411 835 q 523 864 474 835 q 600 947 572 893 q 551 890 579 914 q 487 854 522 867 q 411 842 451 842 q 335 854 371 842 q 272 890 300 867 q 222 947 243 914 q 299 864 250 893 q 411 835 349 835 z "},"ǎ":{"ha":869,"x_min":97,"x_max":828,"o":"m 419 715 q 540 694 490 715 q 621 631 589 674 q 667 521 653 588 q 682 364 682 454 l 682 51 q 695 12 682 24 q 726 0 708 0 q 777 13 750 0 q 828 43 804 25 l 828 28 q 794 1 813 13 q 758 -15 776 -10 q 721 -21 739 -21 q 676 -1 690 -21 q 663 60 663 19 q 663 127 663 106 q 663 159 663 149 q 663 181 663 169 l 649 189 q 581 100 622 139 q 488 34 539 61 q 384 -7 438 7 q 282 -21 331 -21 q 190 -6 232 -21 q 123 41 149 8 q 97 126 97 74 q 238 304 97 244 q 663 364 378 364 q 638 551 663 478 q 560 659 614 624 q 419 694 507 694 q 306 683 356 694 q 228 656 256 671 q 200 626 200 640 q 208 615 200 621 q 239 597 217 608 q 274 549 274 579 q 251 509 274 522 q 201 496 229 496 q 152 510 175 496 q 129 553 129 524 q 153 610 129 582 q 219 663 178 639 q 312 701 260 688 q 419 715 364 715 m 663 344 q 359 320 481 344 q 177 248 238 296 q 117 126 117 200 q 139 53 117 81 q 199 13 161 25 q 282 0 236 0 q 390 16 333 0 q 501 65 447 32 q 597 144 554 97 q 663 254 640 192 l 663 344 m 282 -15 q 394 2 339 -15 q 497 50 450 19 q 388 6 444 21 q 282 -10 332 -10 q 189 6 228 -10 q 130 53 150 22 q 110 126 110 83 q 203 275 110 218 q 468 346 296 332 q 198 275 292 332 q 104 126 104 218 q 125 49 104 81 q 186 1 146 18 q 282 -15 226 -15 m 485 700 q 550 678 521 693 q 601 638 579 664 q 653 528 636 597 q 669 364 669 460 l 669 51 q 672 28 669 39 q 681 10 675 18 q 694 -3 686 3 q 701 -8 697 -6 q 711 -11 706 -10 q 683 13 690 -1 q 675 51 675 26 l 675 364 q 658 529 675 461 q 604 639 640 597 q 571 668 589 656 q 531 688 553 681 q 485 700 510 696 m 201 503 q 248 517 229 503 q 267 549 267 531 q 253 578 267 568 q 222 597 239 589 q 202 608 213 601 q 192 626 192 615 q 199 642 192 635 q 165 614 179 629 q 144 583 151 599 q 136 553 136 568 q 155 517 136 532 q 201 503 174 503 m 608 988 l 619 976 l 424 814 l 401 814 l 203 976 l 215 988 l 413 829 l 608 988 m 214 976 l 401 822 l 407 822 l 406 824 l 217 979 l 214 976 z "},"â":{"ha":869,"x_min":97,"x_max":828,"o":"m 419 715 q 540 694 490 715 q 621 631 589 674 q 667 521 653 588 q 682 364 682 454 l 682 51 q 695 12 682 24 q 726 0 708 0 q 777 13 750 0 q 828 43 804 25 l 828 28 q 794 1 813 13 q 758 -15 776 -10 q 721 -21 739 -21 q 676 -1 690 -21 q 663 60 663 19 q 663 127 663 106 q 663 159 663 149 q 663 181 663 169 l 649 189 q 581 100 622 139 q 488 34 539 61 q 384 -7 438 7 q 282 -21 331 -21 q 190 -6 232 -21 q 123 41 149 8 q 97 126 97 74 q 238 304 97 244 q 663 364 378 364 q 638 551 663 478 q 560 659 614 624 q 419 694 507 694 q 306 683 356 694 q 228 656 256 671 q 200 626 200 640 q 208 615 200 621 q 239 597 217 608 q 274 549 274 579 q 251 509 274 522 q 201 496 229 496 q 152 510 175 496 q 129 553 129 524 q 153 610 129 582 q 219 663 178 639 q 312 701 260 688 q 419 715 364 715 m 663 344 q 359 320 481 344 q 177 248 238 296 q 117 126 117 200 q 139 53 117 81 q 199 13 161 25 q 282 0 236 0 q 390 16 333 0 q 501 65 447 32 q 597 144 554 97 q 663 254 640 192 l 663 344 m 282 -15 q 394 2 339 -15 q 497 50 450 19 q 388 6 444 21 q 282 -10 332 -10 q 189 6 228 -10 q 130 53 150 22 q 110 126 110 83 q 203 275 110 218 q 468 346 296 332 q 198 275 292 332 q 104 126 104 218 q 125 49 104 81 q 186 1 146 18 q 282 -15 226 -15 m 485 700 q 550 678 521 693 q 601 638 579 664 q 653 528 636 597 q 669 364 669 460 l 669 51 q 672 28 669 39 q 681 10 675 18 q 694 -3 686 3 q 701 -8 697 -6 q 711 -11 706 -10 q 683 13 690 -1 q 675 51 675 26 l 675 364 q 658 529 675 461 q 604 639 640 597 q 571 668 589 656 q 531 688 553 681 q 485 700 510 696 m 201 503 q 248 517 229 503 q 267 549 267 531 q 253 578 267 568 q 222 597 239 589 q 202 608 213 601 q 192 626 192 615 q 199 642 192 635 q 165 614 179 629 q 144 583 151 599 q 136 553 136 568 q 155 517 136 532 q 201 503 174 503 m 214 814 l 203 825 l 400 988 l 422 988 l 619 825 l 607 814 l 411 972 l 214 814 m 608 825 l 421 979 l 415 979 l 417 978 l 606 822 l 608 825 z "},"ä":{"ha":869,"x_min":97,"x_max":828,"o":"m 419 715 q 540 694 490 715 q 621 631 589 674 q 667 521 653 588 q 682 364 682 454 l 682 51 q 695 12 682 24 q 726 0 708 0 q 777 13 750 0 q 828 43 804 25 l 828 28 q 794 1 813 13 q 758 -15 776 -10 q 721 -21 739 -21 q 676 -1 690 -21 q 663 60 663 19 q 663 127 663 106 q 663 159 663 149 q 663 181 663 169 l 649 189 q 581 100 622 139 q 488 34 539 61 q 384 -7 438 7 q 282 -21 331 -21 q 190 -6 232 -21 q 123 41 149 8 q 97 126 97 74 q 238 304 97 244 q 663 364 378 364 q 638 551 663 478 q 560 659 614 624 q 419 694 507 694 q 306 683 356 694 q 228 656 256 671 q 200 626 200 640 q 208 615 200 621 q 239 597 217 608 q 274 549 274 579 q 251 509 274 522 q 201 496 229 496 q 152 510 175 496 q 129 553 129 524 q 153 610 129 582 q 219 663 178 639 q 312 701 260 688 q 419 715 364 715 m 663 344 q 359 320 481 344 q 177 248 238 296 q 117 126 117 200 q 139 53 117 81 q 199 13 161 25 q 282 0 236 0 q 390 16 333 0 q 501 65 447 32 q 597 144 554 97 q 663 254 640 192 l 663 344 m 282 -15 q 394 2 339 -15 q 497 50 450 19 q 388 6 444 21 q 282 -10 332 -10 q 189 6 228 -10 q 130 53 150 22 q 110 126 110 83 q 203 275 110 218 q 468 346 296 332 q 198 275 292 332 q 104 126 104 218 q 125 49 104 81 q 186 1 146 18 q 282 -15 226 -15 m 485 700 q 550 678 521 693 q 601 638 579 664 q 653 528 636 597 q 669 364 669 460 l 669 51 q 672 28 669 39 q 681 10 675 18 q 694 -3 686 3 q 701 -8 697 -6 q 711 -11 706 -10 q 683 13 690 -1 q 675 51 675 26 l 675 364 q 658 529 675 461 q 604 639 640 597 q 571 668 589 656 q 531 688 553 681 q 485 700 510 696 m 201 503 q 248 517 229 503 q 267 549 267 531 q 253 578 267 568 q 222 597 239 589 q 202 608 213 601 q 192 626 192 615 q 199 642 192 635 q 165 614 179 629 q 144 583 151 599 q 136 553 136 568 q 155 517 136 532 q 201 503 174 503 m 550 974 q 600 957 581 974 q 619 914 619 940 q 600 872 619 888 q 550 856 581 856 q 498 872 518 856 q 478 914 478 888 q 498 957 478 940 q 550 974 518 974 m 550 868 q 591 881 575 868 q 607 914 607 894 q 591 948 607 935 q 550 961 575 961 q 507 948 524 961 q 490 914 490 935 q 507 881 490 894 q 550 868 524 868 m 272 974 q 322 957 303 974 q 342 914 342 940 q 322 872 342 888 q 272 856 303 856 q 220 872 240 856 q 200 914 200 888 q 220 957 200 940 q 272 974 240 974 m 272 868 q 313 881 297 868 q 329 914 329 894 q 313 948 329 935 q 272 961 297 961 q 229 948 246 961 q 213 914 213 935 q 229 881 213 894 q 272 868 246 868 z "},"à":{"ha":869,"x_min":97,"x_max":828,"o":"m 419 715 q 540 694 490 715 q 621 631 589 674 q 667 521 653 588 q 682 364 682 454 l 682 51 q 695 12 682 24 q 726 0 708 0 q 777 13 750 0 q 828 43 804 25 l 828 28 q 794 1 813 13 q 758 -15 776 -10 q 721 -21 739 -21 q 676 -1 690 -21 q 663 60 663 19 q 663 127 663 106 q 663 159 663 149 q 663 181 663 169 l 649 189 q 581 100 622 139 q 488 34 539 61 q 384 -7 438 7 q 282 -21 331 -21 q 190 -6 232 -21 q 123 41 149 8 q 97 126 97 74 q 238 304 97 244 q 663 364 378 364 q 638 551 663 478 q 560 659 614 624 q 419 694 507 694 q 306 683 356 694 q 228 656 256 671 q 200 626 200 640 q 208 615 200 621 q 239 597 217 608 q 274 549 274 579 q 251 509 274 522 q 201 496 229 496 q 152 510 175 496 q 129 553 129 524 q 153 610 129 582 q 219 663 178 639 q 312 701 260 688 q 419 715 364 715 m 663 344 q 359 320 481 344 q 177 248 238 296 q 117 126 117 200 q 139 53 117 81 q 199 13 161 25 q 282 0 236 0 q 390 16 333 0 q 501 65 447 32 q 597 144 554 97 q 663 254 640 192 l 663 344 m 282 -15 q 394 2 339 -15 q 497 50 450 19 q 388 6 444 21 q 282 -10 332 -10 q 189 6 228 -10 q 130 53 150 22 q 110 126 110 83 q 203 275 110 218 q 468 346 296 332 q 198 275 292 332 q 104 126 104 218 q 125 49 104 81 q 186 1 146 18 q 282 -15 226 -15 m 485 700 q 550 678 521 693 q 601 638 579 664 q 653 528 636 597 q 669 364 669 460 l 669 51 q 672 28 669 39 q 681 10 675 18 q 694 -3 686 3 q 701 -8 697 -6 q 711 -11 706 -10 q 683 13 690 -1 q 675 51 675 26 l 675 364 q 658 529 675 461 q 604 639 640 597 q 571 668 589 656 q 531 688 553 681 q 485 700 510 696 m 201 503 q 248 517 229 503 q 267 549 267 531 q 253 578 267 568 q 222 597 239 589 q 202 608 213 601 q 192 626 192 615 q 199 642 192 635 q 165 614 179 629 q 144 583 151 599 q 136 553 136 568 q 155 517 136 532 q 201 503 174 503 m 467 814 l 258 986 l 272 1001 l 481 828 l 467 814 m 469 828 l 274 990 l 269 986 l 465 824 l 469 828 z "},"ā":{"ha":869,"x_min":97,"x_max":828,"o":"m 419 715 q 540 694 490 715 q 621 631 589 674 q 667 521 653 588 q 682 364 682 454 l 682 51 q 695 12 682 24 q 726 0 708 0 q 777 13 750 0 q 828 43 804 25 l 828 28 q 794 1 813 13 q 758 -15 776 -10 q 721 -21 739 -21 q 676 -1 690 -21 q 663 60 663 19 q 663 127 663 106 q 663 159 663 149 q 663 181 663 169 l 649 189 q 581 100 622 139 q 488 34 539 61 q 384 -7 438 7 q 282 -21 331 -21 q 190 -6 232 -21 q 123 41 149 8 q 97 126 97 74 q 238 304 97 244 q 663 364 378 364 q 638 551 663 478 q 560 659 614 624 q 419 694 507 694 q 306 683 356 694 q 228 656 256 671 q 200 626 200 640 q 208 615 200 621 q 239 597 217 608 q 274 549 274 579 q 251 509 274 522 q 201 496 229 496 q 152 510 175 496 q 129 553 129 524 q 153 610 129 582 q 219 663 178 639 q 312 701 260 688 q 419 715 364 715 m 663 344 q 359 320 481 344 q 177 248 238 296 q 117 126 117 200 q 139 53 117 81 q 199 13 161 25 q 282 0 236 0 q 390 16 333 0 q 501 65 447 32 q 597 144 554 97 q 663 254 640 192 l 663 344 m 282 -15 q 394 2 339 -15 q 497 50 450 19 q 388 6 444 21 q 282 -10 332 -10 q 189 6 228 -10 q 130 53 150 22 q 110 126 110 83 q 203 275 110 218 q 468 346 296 332 q 198 275 292 332 q 104 126 104 218 q 125 49 104 81 q 186 1 146 18 q 282 -15 226 -15 m 485 700 q 550 678 521 693 q 601 638 579 664 q 653 528 636 597 q 669 364 669 460 l 669 51 q 672 28 669 39 q 681 10 675 18 q 694 -3 686 3 q 701 -8 697 -6 q 711 -11 706 -10 q 683 13 690 -1 q 675 51 675 26 l 675 364 q 658 529 675 461 q 604 639 640 597 q 571 668 589 656 q 531 688 553 681 q 485 700 510 696 m 201 503 q 248 517 229 503 q 267 549 267 531 q 253 578 267 568 q 222 597 239 589 q 202 608 213 601 q 192 626 192 615 q 199 642 192 635 q 165 614 179 629 q 144 583 151 599 q 136 553 136 568 q 155 517 136 532 q 201 503 174 503 m 189 889 l 189 910 l 633 910 l 633 889 l 189 889 m 203 896 l 619 896 l 619 903 l 203 903 l 203 896 z "},"ą":{"ha":869,"x_min":97,"x_max":849,"o":"m 419 715 q 540 694 490 715 q 621 631 589 674 q 667 521 653 588 q 682 364 682 454 l 682 51 q 695 12 682 24 q 726 0 708 0 q 777 13 750 0 q 828 43 804 25 l 828 28 q 794 1 813 13 q 758 -15 776 -10 q 721 -21 739 -21 q 676 -1 690 -21 q 663 60 663 19 q 663 127 663 106 q 663 159 663 149 q 663 181 663 169 l 649 189 q 581 100 622 139 q 488 34 539 61 q 384 -7 438 7 q 282 -21 331 -21 q 190 -6 232 -21 q 123 41 149 8 q 97 126 97 74 q 238 304 97 244 q 663 364 378 364 q 638 551 663 478 q 560 659 614 624 q 419 694 507 694 q 306 683 356 694 q 228 656 256 671 q 200 626 200 640 q 208 615 200 621 q 239 597 217 608 q 274 549 274 579 q 251 509 274 522 q 201 496 229 496 q 152 510 175 496 q 129 553 129 524 q 153 610 129 582 q 219 663 178 639 q 312 701 260 688 q 419 715 364 715 m 663 344 q 359 320 481 344 q 177 248 238 296 q 117 126 117 200 q 139 53 117 81 q 199 13 161 25 q 282 0 236 0 q 390 16 333 0 q 501 65 447 32 q 597 144 554 97 q 663 254 640 192 l 663 344 m 282 -15 q 394 2 339 -15 q 497 50 450 19 q 388 6 444 21 q 282 -10 332 -10 q 189 6 228 -10 q 130 53 150 22 q 110 126 110 83 q 203 275 110 218 q 468 346 296 332 q 198 275 292 332 q 104 126 104 218 q 125 49 104 81 q 186 1 146 18 q 282 -15 226 -15 m 485 700 q 550 678 521 693 q 601 638 579 664 q 653 528 636 597 q 669 364 669 460 l 669 51 q 672 28 669 39 q 681 10 675 18 q 694 -3 686 3 q 701 -8 697 -6 q 711 -11 706 -10 q 683 13 690 -1 q 675 51 675 26 l 675 364 q 658 529 675 461 q 604 639 640 597 q 571 668 589 656 q 531 688 553 681 q 485 700 510 696 m 201 503 q 248 517 229 503 q 267 549 267 531 q 253 578 267 568 q 222 597 239 589 q 202 608 213 601 q 192 626 192 615 q 199 642 192 635 q 165 614 179 629 q 144 583 151 599 q 136 553 136 568 q 155 517 136 532 q 201 503 174 503 m 800 6 q 658 -97 706 -47 q 611 -194 611 -146 q 635 -251 611 -229 q 697 -272 660 -272 q 773 -251 738 -272 q 839 -187 808 -231 l 849 -197 q 779 -268 818 -243 q 697 -293 740 -293 q 642 -281 667 -293 q 604 -246 618 -268 q 590 -194 590 -224 q 640 -87 590 -139 q 790 14 690 -35 l 800 6 m 697 -286 q 750 -276 725 -286 q 786 -253 775 -265 q 743 -273 764 -267 q 697 -279 722 -279 q 631 -255 657 -279 q 604 -194 604 -231 q 631 -116 604 -153 q 722 -32 658 -79 q 626 -113 654 -76 q 597 -194 597 -150 q 610 -242 597 -221 q 646 -274 624 -262 q 697 -286 668 -286 z "},"å":{"ha":869,"x_min":97,"x_max":828,"o":"m 419 715 q 540 694 490 715 q 621 631 589 674 q 667 521 653 588 q 682 364 682 454 l 682 51 q 695 12 682 24 q 726 0 708 0 q 777 13 750 0 q 828 43 804 25 l 828 28 q 794 1 813 13 q 758 -15 776 -10 q 721 -21 739 -21 q 676 -1 690 -21 q 663 60 663 19 q 663 127 663 106 q 663 159 663 149 q 663 181 663 169 l 649 189 q 581 100 622 139 q 488 34 539 61 q 384 -7 438 7 q 282 -21 331 -21 q 190 -6 232 -21 q 123 41 149 8 q 97 126 97 74 q 238 304 97 244 q 663 364 378 364 q 638 551 663 478 q 560 659 614 624 q 419 694 507 694 q 306 683 356 694 q 228 656 256 671 q 200 626 200 640 q 208 615 200 621 q 239 597 217 608 q 274 549 274 579 q 251 509 274 522 q 201 496 229 496 q 152 510 175 496 q 129 553 129 524 q 153 610 129 582 q 219 663 178 639 q 312 701 260 688 q 419 715 364 715 m 663 344 q 359 320 481 344 q 177 248 238 296 q 117 126 117 200 q 139 53 117 81 q 199 13 161 25 q 282 0 236 0 q 390 16 333 0 q 501 65 447 32 q 597 144 554 97 q 663 254 640 192 l 663 344 m 282 -15 q 394 2 339 -15 q 497 50 450 19 q 388 6 444 21 q 282 -10 332 -10 q 189 6 228 -10 q 130 53 150 22 q 110 126 110 83 q 203 275 110 218 q 468 346 296 332 q 198 275 292 332 q 104 126 104 218 q 125 49 104 81 q 186 1 146 18 q 282 -15 226 -15 m 485 700 q 550 678 521 693 q 601 638 579 664 q 653 528 636 597 q 669 364 669 460 l 669 51 q 672 28 669 39 q 681 10 675 18 q 694 -3 686 3 q 701 -8 697 -6 q 711 -11 706 -10 q 683 13 690 -1 q 675 51 675 26 l 675 364 q 658 529 675 461 q 604 639 640 597 q 571 668 589 656 q 531 688 553 681 q 485 700 510 696 m 201 503 q 248 517 229 503 q 267 549 267 531 q 253 578 267 568 q 222 597 239 589 q 202 608 213 601 q 192 626 192 615 q 199 642 192 635 q 165 614 179 629 q 144 583 151 599 q 136 553 136 568 q 155 517 136 532 q 201 503 174 503 m 410 997 q 467 985 442 997 q 508 952 493 974 q 522 903 522 931 q 508 853 522 875 q 467 818 493 831 q 410 806 442 806 q 353 818 378 806 q 314 853 328 831 q 300 903 300 875 q 314 952 300 931 q 353 985 328 974 q 410 997 378 997 m 410 976 q 346 956 371 976 q 321 903 321 935 q 346 848 321 869 q 410 826 371 826 q 475 848 449 826 q 501 903 501 869 q 475 956 501 935 q 410 976 449 976 m 367 822 q 326 855 342 833 q 311 903 311 876 q 326 950 311 929 q 367 981 342 971 q 336 964 349 975 q 317 938 324 953 q 310 903 310 922 q 317 867 310 883 q 336 840 324 851 q 367 822 349 829 m 454 822 q 485 840 472 829 q 506 867 499 851 q 513 903 513 883 q 506 938 513 922 q 485 964 499 953 q 454 981 472 975 q 495 951 479 971 q 511 903 511 931 q 495 855 511 876 q 454 822 479 833 z "},"ã":{"ha":869,"x_min":97,"x_max":828,"o":"m 419 715 q 540 694 490 715 q 621 631 589 674 q 667 521 653 588 q 682 364 682 454 l 682 51 q 695 12 682 24 q 726 0 708 0 q 777 13 750 0 q 828 43 804 25 l 828 28 q 794 1 813 13 q 758 -15 776 -10 q 721 -21 739 -21 q 676 -1 690 -21 q 663 60 663 19 q 663 127 663 106 q 663 159 663 149 q 663 181 663 169 l 649 189 q 581 100 622 139 q 488 34 539 61 q 384 -7 438 7 q 282 -21 331 -21 q 190 -6 232 -21 q 123 41 149 8 q 97 126 97 74 q 238 304 97 244 q 663 364 378 364 q 638 551 663 478 q 560 659 614 624 q 419 694 507 694 q 306 683 356 694 q 228 656 256 671 q 200 626 200 640 q 208 615 200 621 q 239 597 217 608 q 274 549 274 579 q 251 509 274 522 q 201 496 229 496 q 152 510 175 496 q 129 553 129 524 q 153 610 129 582 q 219 663 178 639 q 312 701 260 688 q 419 715 364 715 m 663 344 q 359 320 481 344 q 177 248 238 296 q 117 126 117 200 q 139 53 117 81 q 199 13 161 25 q 282 0 236 0 q 390 16 333 0 q 501 65 447 32 q 597 144 554 97 q 663 254 640 192 l 663 344 m 282 -15 q 394 2 339 -15 q 497 50 450 19 q 388 6 444 21 q 282 -10 332 -10 q 189 6 228 -10 q 130 53 150 22 q 110 126 110 83 q 203 275 110 218 q 468 346 296 332 q 198 275 292 332 q 104 126 104 218 q 125 49 104 81 q 186 1 146 18 q 282 -15 226 -15 m 485 700 q 550 678 521 693 q 601 638 579 664 q 653 528 636 597 q 669 364 669 460 l 669 51 q 672 28 669 39 q 681 10 675 18 q 694 -3 686 3 q 701 -8 697 -6 q 711 -11 706 -10 q 683 13 690 -1 q 675 51 675 26 l 675 364 q 658 529 675 461 q 604 639 640 597 q 571 668 589 656 q 531 688 553 681 q 485 700 510 696 m 201 503 q 248 517 229 503 q 267 549 267 531 q 253 578 267 568 q 222 597 239 589 q 202 608 213 601 q 192 626 192 615 q 199 642 192 635 q 165 614 179 629 q 144 583 151 599 q 136 553 136 568 q 155 517 136 532 q 201 503 174 503 m 543 828 q 476 847 507 828 q 418 890 446 865 q 363 934 390 915 q 304 953 335 953 q 233 923 258 953 q 186 831 207 893 l 168 833 q 199 910 181 879 q 243 958 217 942 q 304 974 269 974 q 367 955 338 974 q 426 911 397 936 q 483 867 454 886 q 543 849 513 849 q 603 878 583 849 q 636 971 622 908 l 654 968 q 632 890 646 921 q 597 843 618 858 q 543 828 576 828 m 543 835 q 582 843 565 835 q 611 869 599 851 q 631 915 624 886 q 599 859 619 876 q 543 842 578 842 q 480 860 510 842 q 422 904 450 879 q 366 948 394 929 q 304 967 338 967 q 235 944 261 967 q 192 874 208 921 q 235 938 208 917 q 304 960 261 960 q 365 941 336 960 q 421 897 393 922 q 478 853 449 872 q 543 835 508 835 z "},"æ":{"ha":1413,"x_min":97,"x_max":1322,"o":"m 282 -21 q 189 -6 231 -21 q 122 41 147 8 q 97 126 97 74 q 236 305 97 246 q 663 364 375 364 q 638 551 663 478 q 560 659 614 624 q 419 694 507 694 q 306 683 356 694 q 228 656 256 671 q 200 626 200 640 q 208 615 200 621 q 239 597 217 608 q 274 549 274 579 q 251 509 274 522 q 201 496 229 496 q 152 510 175 496 q 129 553 129 524 q 153 610 129 582 q 219 663 178 639 q 312 701 260 688 q 419 715 364 715 q 601 653 539 715 q 678 461 664 592 q 744 594 699 538 q 856 683 789 651 q 1003 715 922 715 q 1166 676 1099 715 q 1269 562 1233 636 q 1304 383 1304 488 l 682 383 l 682 344 q 705 205 682 268 q 769 96 728 142 q 867 25 810 50 q 992 0 924 0 q 1095 12 1047 0 q 1183 47 1143 24 q 1255 105 1222 69 q 1313 188 1288 140 l 1322 174 q 1265 88 1297 125 q 1191 27 1232 51 q 1100 -9 1150 3 q 992 -21 1050 -21 q 797 43 879 -21 q 682 213 714 107 l 660 213 q 594 113 636 157 q 499 40 551 69 q 390 -6 446 10 q 282 -21 333 -21 m 282 0 q 390 16 333 0 q 501 65 447 32 q 597 144 554 97 q 663 254 640 192 l 663 344 q 358 320 479 344 q 176 248 236 296 q 117 126 117 200 q 139 53 117 81 q 199 13 161 25 q 282 0 236 0 m 685 397 l 1285 403 q 1251 560 1285 494 q 1153 660 1217 625 q 1003 694 1090 694 q 850 657 918 694 q 739 553 782 619 q 685 397 696 486 m 1293 390 l 1299 390 q 1279 518 1296 467 q 1235 603 1263 569 q 1169 661 1208 638 q 1256 562 1224 622 q 1293 390 1288 501 m 201 503 q 248 517 229 503 q 267 549 267 531 q 253 578 267 568 q 222 597 239 589 q 202 608 213 601 q 192 626 192 615 q 199 642 192 635 q 165 614 179 629 q 144 583 151 599 q 136 553 136 568 q 155 517 136 532 q 201 503 174 503 m 282 -15 q 394 2 339 -15 q 497 50 450 19 q 388 6 444 21 q 282 -10 332 -10 q 188 6 226 -10 q 130 53 150 22 q 110 126 110 83 q 203 275 110 218 q 468 346 296 332 q 312 321 379 339 q 198 275 244 303 q 128 210 151 247 q 104 126 104 172 q 125 49 104 81 q 186 1 146 18 q 282 -15 226 -15 m 485 700 q 550 678 521 693 q 601 638 579 664 q 653 528 636 597 q 669 364 669 460 l 669 344 q 693 200 669 265 q 760 87 717 135 q 862 13 803 39 q 992 -14 921 -14 q 1078 -6 1038 -14 q 1146 17 1118 3 q 1080 -2 1119 4 q 992 -8 1040 -8 q 864 17 922 -8 q 763 90 806 43 q 698 202 721 138 q 675 344 675 267 q 718 535 675 451 q 836 661 761 618 q 759 599 793 636 q 703 514 725 561 q 674 410 682 467 q 604 639 668 568 q 552 679 582 664 q 485 700 522 694 z "},"b":{"ha":874,"x_min":83,"x_max":783,"o":"m 181 -21 l 181 978 l 83 978 l 83 993 l 200 1035 l 200 503 l 211 492 q 246 552 222 515 q 306 626 269 589 q 392 690 343 664 q 504 715 442 715 q 622 691 569 715 q 710 619 674 667 q 765 506 746 572 q 783 354 783 439 q 763 196 783 265 q 703 78 743 126 q 608 4 664 29 q 479 -21 551 -21 q 408 -12 444 -21 q 338 15 372 -3 q 271 60 303 33 q 214 125 239 88 l 200 125 l 194 -21 l 181 -21 m 328 33 q 232 124 267 74 q 193 231 197 175 l 193 1025 l 188 1022 l 188 32 l 193 132 l 219 132 q 250 94 233 113 q 286 61 267 76 q 328 33 306 46 m 479 0 q 631 42 567 0 q 729 164 694 85 q 764 354 764 243 q 734 537 764 461 q 646 653 704 613 q 504 694 588 694 q 382 660 442 694 q 274 563 322 626 q 200 407 226 499 l 200 249 q 227 147 200 193 q 297 68 254 101 q 389 17 340 35 q 479 0 438 0 m 588 10 q 690 79 647 32 q 754 197 732 126 q 776 354 776 267 q 744 547 776 468 q 651 666 713 625 q 504 707 590 707 q 420 692 458 707 q 350 653 382 676 q 426 690 386 678 q 504 701 465 701 q 647 660 588 701 q 739 542 707 619 q 771 354 771 465 q 723 135 771 224 q 588 10 675 46 z "},"c":{"ha":840,"x_min":90,"x_max":750,"o":"m 419 -21 q 249 26 324 -21 q 133 155 175 72 q 90 344 90 238 q 115 494 90 426 q 185 611 140 561 q 293 688 231 661 q 431 715 356 715 q 534 703 485 715 q 623 670 583 692 q 685 619 663 649 q 707 553 707 589 q 697 521 707 533 q 669 502 686 508 q 635 496 653 496 q 585 509 608 496 q 563 549 563 522 q 574 578 563 564 q 607 601 585 592 q 636 629 636 618 q 612 657 636 642 q 542 683 588 672 q 431 694 496 694 q 301 669 360 694 q 200 597 243 643 q 133 486 157 550 q 110 344 110 422 q 133 205 110 268 q 197 96 156 142 q 294 25 238 50 q 419 0 351 0 q 554 21 494 0 q 660 83 614 42 q 740 188 707 125 l 750 174 q 692 88 725 125 q 619 27 660 51 q 528 -9 578 3 q 419 -21 478 -21 m 644 644 l 646 639 q 638 615 646 625 q 611 593 631 604 q 572 549 572 574 q 591 516 572 526 q 635 506 610 506 q 678 517 660 506 q 697 553 697 528 q 694 579 697 567 q 683 603 690 592 q 667 624 676 614 q 644 644 657 635 m 97 344 q 138 159 97 240 q 252 32 179 78 q 419 -14 325 -14 q 506 -6 465 -14 q 574 17 546 3 q 508 -2 547 4 q 419 -8 468 -8 q 291 17 349 -8 q 191 90 233 43 q 126 202 149 138 q 103 344 103 267 q 130 497 103 428 q 206 615 157 565 q 319 688 254 664 q 203 616 253 665 q 125 498 153 567 q 97 344 97 429 z "},"ć":{"ha":840,"x_min":90,"x_max":750,"o":"m 419 -21 q 249 26 324 -21 q 133 155 175 72 q 90 344 90 238 q 115 494 90 426 q 185 611 140 561 q 293 688 231 661 q 431 715 356 715 q 534 703 485 715 q 623 670 583 692 q 685 619 663 649 q 707 553 707 589 q 697 521 707 533 q 669 502 686 508 q 635 496 653 496 q 585 509 608 496 q 563 549 563 522 q 574 578 563 564 q 607 601 585 592 q 636 629 636 618 q 612 657 636 642 q 542 683 588 672 q 431 694 496 694 q 301 669 360 694 q 200 597 243 643 q 133 486 157 550 q 110 344 110 422 q 133 205 110 268 q 197 96 156 142 q 294 25 238 50 q 419 0 351 0 q 554 21 494 0 q 660 83 614 42 q 740 188 707 125 l 750 174 q 692 88 725 125 q 619 27 660 51 q 528 -9 578 3 q 419 -21 478 -21 m 644 644 l 646 639 q 638 615 646 625 q 611 593 631 604 q 572 549 572 574 q 591 516 572 526 q 635 506 610 506 q 678 517 660 506 q 697 553 697 528 q 694 579 697 567 q 683 603 690 592 q 667 624 676 614 q 644 644 657 635 m 97 344 q 138 159 97 240 q 252 32 179 78 q 419 -14 325 -14 q 506 -6 465 -14 q 574 17 546 3 q 508 -2 547 4 q 419 -8 468 -8 q 291 17 349 -8 q 191 90 233 43 q 126 202 149 138 q 103 344 103 267 q 130 497 103 428 q 206 615 157 565 q 319 688 254 664 q 203 616 253 665 q 125 498 153 567 q 97 344 97 429 m 396 814 l 382 828 l 590 1001 l 604 986 l 396 814 m 393 828 l 397 824 l 593 986 l 589 990 l 393 828 z "},"č":{"ha":840,"x_min":90,"x_max":750,"o":"m 419 -21 q 249 26 324 -21 q 133 155 175 72 q 90 344 90 238 q 115 494 90 426 q 185 611 140 561 q 293 688 231 661 q 431 715 356 715 q 534 703 485 715 q 623 670 583 692 q 685 619 663 649 q 707 553 707 589 q 697 521 707 533 q 669 502 686 508 q 635 496 653 496 q 585 509 608 496 q 563 549 563 522 q 574 578 563 564 q 607 601 585 592 q 636 629 636 618 q 612 657 636 642 q 542 683 588 672 q 431 694 496 694 q 301 669 360 694 q 200 597 243 643 q 133 486 157 550 q 110 344 110 422 q 133 205 110 268 q 197 96 156 142 q 294 25 238 50 q 419 0 351 0 q 554 21 494 0 q 660 83 614 42 q 740 188 707 125 l 750 174 q 692 88 725 125 q 619 27 660 51 q 528 -9 578 3 q 419 -21 478 -21 m 644 644 l 646 639 q 638 615 646 625 q 611 593 631 604 q 572 549 572 574 q 591 516 572 526 q 635 506 610 506 q 678 517 660 506 q 697 553 697 528 q 694 579 697 567 q 683 603 690 592 q 667 624 676 614 q 644 644 657 635 m 97 344 q 138 159 97 240 q 252 32 179 78 q 419 -14 325 -14 q 506 -6 465 -14 q 574 17 546 3 q 508 -2 547 4 q 419 -8 468 -8 q 291 17 349 -8 q 191 90 233 43 q 126 202 149 138 q 103 344 103 267 q 130 497 103 428 q 206 615 157 565 q 319 688 254 664 q 203 616 253 665 q 125 498 153 567 q 97 344 97 429 m 628 988 l 639 976 l 443 814 l 421 814 l 222 976 l 235 988 l 432 829 l 628 988 m 233 976 l 421 822 l 426 822 l 425 824 l 236 979 l 233 976 z "},"ç":{"ha":840,"x_min":90,"x_max":750,"o":"m 419 -21 q 249 26 324 -21 q 133 155 175 72 q 90 344 90 238 q 115 494 90 426 q 185 611 140 561 q 293 688 231 661 q 431 715 356 715 q 534 703 485 715 q 623 670 583 692 q 685 619 663 649 q 707 553 707 589 q 697 521 707 533 q 669 502 686 508 q 635 496 653 496 q 585 509 608 496 q 563 549 563 522 q 574 578 563 564 q 607 601 585 592 q 636 629 636 618 q 612 657 636 642 q 542 683 588 672 q 431 694 496 694 q 301 669 360 694 q 200 597 243 643 q 133 486 157 550 q 110 344 110 422 q 133 205 110 268 q 197 96 156 142 q 294 25 238 50 q 419 0 351 0 q 554 21 494 0 q 660 83 614 42 q 740 188 707 125 l 750 174 q 692 88 725 125 q 619 27 660 51 q 528 -9 578 3 q 419 -21 478 -21 m 644 644 l 646 639 q 638 615 646 625 q 611 593 631 604 q 572 549 572 574 q 591 516 572 526 q 635 506 610 506 q 678 517 660 506 q 697 553 697 528 q 694 579 697 567 q 683 603 690 592 q 667 624 676 614 q 644 644 657 635 m 97 344 q 138 159 97 240 q 252 32 179 78 q 419 -14 325 -14 q 506 -6 465 -14 q 574 17 546 3 q 508 -2 547 4 q 419 -8 468 -8 q 291 17 349 -8 q 191 90 233 43 q 126 202 149 138 q 103 344 103 267 q 130 497 103 428 q 206 615 157 565 q 319 688 254 664 q 203 616 253 665 q 125 498 153 567 q 97 344 97 429 m 458 -299 q 374 -275 410 -299 q 322 -208 338 -251 l 336 -194 q 383 -256 351 -233 q 458 -278 415 -278 q 506 -266 486 -278 q 538 -232 526 -254 q 550 -182 550 -210 q 540 -136 550 -157 q 509 -99 529 -115 q 459 -73 489 -82 q 392 -64 429 -64 l 414 -10 l 435 -10 l 426 -32 l 438 -47 q 510 -74 481 -56 q 556 -119 540 -92 q 571 -182 571 -146 q 556 -242 571 -215 q 517 -283 542 -268 q 458 -299 492 -299 m 458 -289 q 535 -259 506 -289 q 564 -182 564 -229 q 556 -140 564 -158 q 533 -108 549 -122 q 493 -86 517 -94 q 541 -124 525 -100 q 557 -182 557 -149 q 543 -238 557 -214 q 503 -275 529 -262 q 444 -287 478 -287 q 449 -289 446 -289 q 458 -289 453 -289 z "},"ċ":{"ha":840,"x_min":90,"x_max":750,"o":"m 419 -21 q 249 26 324 -21 q 133 155 175 72 q 90 344 90 238 q 115 494 90 426 q 185 611 140 561 q 293 688 231 661 q 431 715 356 715 q 534 703 485 715 q 623 670 583 692 q 685 619 663 649 q 707 553 707 589 q 697 521 707 533 q 669 502 686 508 q 635 496 653 496 q 585 509 608 496 q 563 549 563 522 q 574 578 563 564 q 607 601 585 592 q 636 629 636 618 q 612 657 636 642 q 542 683 588 672 q 431 694 496 694 q 301 669 360 694 q 200 597 243 643 q 133 486 157 550 q 110 344 110 422 q 133 205 110 268 q 197 96 156 142 q 294 25 238 50 q 419 0 351 0 q 554 21 494 0 q 660 83 614 42 q 740 188 707 125 l 750 174 q 692 88 725 125 q 619 27 660 51 q 528 -9 578 3 q 419 -21 478 -21 m 644 644 l 646 639 q 638 615 646 625 q 611 593 631 604 q 572 549 572 574 q 591 516 572 526 q 635 506 610 506 q 678 517 660 506 q 697 553 697 528 q 694 579 697 567 q 683 603 690 592 q 667 624 676 614 q 644 644 657 635 m 97 344 q 138 159 97 240 q 252 32 179 78 q 419 -14 325 -14 q 506 -6 465 -14 q 574 17 546 3 q 508 -2 547 4 q 419 -8 468 -8 q 291 17 349 -8 q 191 90 233 43 q 126 202 149 138 q 103 344 103 267 q 130 497 103 428 q 206 615 157 565 q 319 688 254 664 q 203 616 253 665 q 125 498 153 567 q 97 344 97 429 m 432 974 q 482 957 463 974 q 501 914 501 940 q 482 872 501 888 q 432 856 463 856 q 380 872 400 856 q 360 914 360 888 q 380 957 360 940 q 432 974 400 974 m 432 868 q 473 881 457 868 q 489 914 489 894 q 473 948 489 935 q 432 961 457 961 q 389 948 406 961 q 372 914 372 935 q 389 881 372 894 q 432 868 406 868 z "},"d":{"ha":860,"x_min":90,"x_max":790,"o":"m 376 -21 q 228 26 293 -21 q 127 156 164 72 q 90 346 90 239 q 131 538 90 454 q 244 668 172 621 q 408 715 315 715 q 514 694 461 715 q 610 635 567 674 q 674 540 653 596 l 674 964 l 576 964 l 576 979 l 693 1035 l 693 49 l 790 49 l 790 35 l 674 -21 l 674 192 l 663 203 q 613 111 642 153 q 549 40 585 69 q 469 -5 513 11 q 376 -21 426 -21 m 376 -14 q 461 2 422 -14 q 531 40 500 18 q 456 3 492 14 q 376 -8 421 -8 q 233 37 294 -8 q 137 163 171 82 q 103 346 103 243 q 142 530 103 450 q 250 655 181 610 q 408 700 319 700 q 451 698 431 700 q 486 692 471 696 q 408 706 451 706 q 283 679 340 706 q 185 605 226 653 q 120 491 143 557 q 97 346 97 425 q 133 159 97 240 q 231 32 168 78 q 376 -14 293 -14 m 376 0 q 488 27 439 0 q 573 99 536 54 q 635 198 610 144 q 674 306 660 251 l 674 431 q 656 519 674 472 q 603 605 638 565 q 520 669 569 644 q 408 694 471 694 q 256 649 324 694 q 150 526 189 604 q 111 346 111 447 q 144 167 111 246 q 236 44 176 89 q 376 0 296 0 m 681 -10 l 686 -7 l 686 1024 l 681 1021 l 681 -10 z "},"ď":{"ha":901,"x_min":90,"x_max":839,"o":"m 376 -21 q 228 26 293 -21 q 127 156 164 72 q 90 346 90 239 q 131 538 90 454 q 244 668 172 621 q 408 715 315 715 q 514 694 461 715 q 610 635 567 674 q 674 540 653 596 l 674 964 l 576 964 l 576 979 l 693 1035 l 693 49 l 790 49 l 790 35 l 674 -21 l 674 192 l 663 203 q 613 111 642 153 q 549 40 585 69 q 469 -5 513 11 q 376 -21 426 -21 m 376 -14 q 461 2 422 -14 q 531 40 500 18 q 456 3 492 14 q 376 -8 421 -8 q 233 37 294 -8 q 137 163 171 82 q 103 346 103 243 q 142 530 103 450 q 250 655 181 610 q 408 700 319 700 q 451 698 431 700 q 486 692 471 696 q 408 706 451 706 q 283 679 340 706 q 185 605 226 653 q 120 491 143 557 q 97 346 97 425 q 133 159 97 240 q 231 32 168 78 q 376 -14 293 -14 m 376 0 q 488 27 439 0 q 573 99 536 54 q 635 198 610 144 q 674 306 660 251 l 674 431 q 656 519 674 472 q 603 605 638 565 q 520 669 569 644 q 408 694 471 694 q 256 649 324 694 q 150 526 189 604 q 111 346 111 447 q 144 167 111 246 q 236 44 176 89 q 376 0 296 0 m 681 -10 l 686 -7 l 686 1024 l 681 1021 l 681 -10 m 792 772 l 792 1001 l 839 1001 l 797 772 l 792 772 m 803 858 l 828 992 l 801 992 l 801 858 l 803 858 z "},"đ":{"ha":860,"x_min":90,"x_max":790,"o":"m 535 844 l 790 844 l 790 824 l 535 824 l 535 844 m 549 831 l 776 831 l 776 838 l 549 838 l 549 831 m 376 -21 q 228 26 293 -21 q 127 156 164 72 q 90 346 90 239 q 131 538 90 454 q 244 668 172 621 q 408 715 315 715 q 514 694 461 715 q 610 635 567 674 q 674 540 653 596 l 674 964 l 576 964 l 576 979 l 693 1035 l 693 49 l 790 49 l 790 35 l 674 -21 l 674 192 l 663 203 q 613 111 642 153 q 549 40 585 69 q 469 -5 513 11 q 376 -21 426 -21 m 376 -14 q 461 2 422 -14 q 531 40 500 18 q 456 3 492 14 q 376 -8 421 -8 q 233 37 294 -8 q 137 163 171 82 q 103 346 103 243 q 142 530 103 450 q 250 655 181 610 q 408 700 319 700 q 451 698 431 700 q 486 692 471 696 q 408 706 451 706 q 283 679 340 706 q 185 605 226 653 q 120 491 143 557 q 97 346 97 425 q 133 159 97 240 q 231 32 168 78 q 376 -14 293 -14 m 376 0 q 488 27 439 0 q 573 99 536 54 q 635 198 610 144 q 674 306 660 251 l 674 431 q 656 519 674 472 q 603 605 638 565 q 520 669 569 644 q 408 694 471 694 q 256 649 324 694 q 150 526 189 604 q 111 346 111 447 q 144 167 111 246 q 236 44 176 89 q 376 0 296 0 m 681 -10 l 686 -7 l 686 1024 l 681 1021 l 681 -10 z "},"ð":{"ha":778,"x_min":90,"x_max":688,"o":"m 388 -21 q 228 22 294 -21 q 126 147 161 65 q 90 342 90 228 q 126 543 90 460 q 228 671 161 626 q 388 715 294 715 q 501 696 449 715 q 594 638 553 676 l 604 643 q 541 763 581 706 q 449 868 501 819 q 334 956 396 917 q 203 1021 272 994 l 214 1035 q 379 947 304 999 q 512 831 454 896 q 608 690 569 767 q 667 526 647 614 q 688 342 688 439 q 652 147 688 228 q 549 22 617 65 q 388 -21 482 -21 m 265 14 q 178 84 215 39 q 122 194 142 129 q 103 342 103 260 q 122 493 103 426 q 178 608 142 560 q 265 681 214 656 q 192 631 224 663 q 139 556 160 599 q 108 459 118 513 q 97 342 97 406 q 108 227 97 279 q 140 133 119 175 q 192 62 161 92 q 265 14 224 32 m 388 0 q 506 23 454 0 q 594 90 558 46 q 649 198 631 135 q 668 342 668 261 q 649 490 668 425 q 594 601 631 556 q 506 671 558 647 q 388 694 454 694 q 271 671 322 694 q 183 601 219 647 q 128 490 147 556 q 110 342 110 425 q 128 198 110 261 q 183 90 147 135 q 271 23 219 46 q 388 0 322 0 m 508 14 q 583 62 550 32 q 637 133 615 92 q 669 226 658 174 q 681 342 681 279 q 661 520 681 435 q 603 682 642 606 q 510 822 565 758 q 381 938 454 886 q 217 1024 307 989 q 387 929 308 988 q 524 797 465 871 q 617 638 583 724 q 651 537 639 585 q 669 442 664 489 q 675 342 675 394 q 655 194 675 258 q 598 84 635 129 q 508 14 561 39 m 306 847 l 293 858 l 514 1006 l 521 992 l 306 847 m 308 857 l 510 992 l 508 994 l 306 860 l 308 857 z "},"e":{"ha":840,"x_min":90,"x_max":750,"o":"m 431 715 q 594 676 526 715 q 697 562 661 636 q 732 383 732 488 l 110 383 l 110 397 l 713 403 q 678 558 713 493 q 582 659 644 624 q 431 694 519 694 q 265 650 338 694 q 151 526 192 606 q 110 344 110 447 q 133 205 110 268 q 197 96 156 142 q 294 25 238 50 q 419 0 351 0 q 523 12 475 0 q 610 47 571 24 q 683 105 650 69 q 740 188 715 140 l 750 174 q 692 88 725 125 q 619 27 660 51 q 528 -9 578 3 q 419 -21 478 -21 q 287 6 347 -21 q 183 82 226 33 q 115 197 139 131 q 90 344 90 264 q 115 494 90 426 q 185 611 140 561 q 293 688 231 661 q 431 715 356 715 m 97 344 q 138 159 97 240 q 251 32 179 78 q 419 -14 324 -14 q 506 -6 465 -14 q 574 17 546 3 q 508 -2 547 4 q 419 -8 468 -8 q 292 17 350 -8 q 191 90 233 43 q 126 202 149 138 q 103 344 103 267 q 146 535 103 451 q 264 661 189 618 q 175 585 213 632 q 117 477 138 538 q 97 344 97 417 m 721 390 l 726 390 q 710 512 726 460 q 665 601 693 564 q 597 661 636 638 q 686 557 651 622 q 721 390 721 492 z "},"é":{"ha":840,"x_min":90,"x_max":750,"o":"m 431 715 q 594 676 526 715 q 697 562 661 636 q 732 383 732 488 l 110 383 l 110 397 l 713 403 q 678 558 713 493 q 582 659 644 624 q 431 694 519 694 q 265 650 338 694 q 151 526 192 606 q 110 344 110 447 q 133 205 110 268 q 197 96 156 142 q 294 25 238 50 q 419 0 351 0 q 523 12 475 0 q 610 47 571 24 q 683 105 650 69 q 740 188 715 140 l 750 174 q 692 88 725 125 q 619 27 660 51 q 528 -9 578 3 q 419 -21 478 -21 q 287 6 347 -21 q 183 82 226 33 q 115 197 139 131 q 90 344 90 264 q 115 494 90 426 q 185 611 140 561 q 293 688 231 661 q 431 715 356 715 m 97 344 q 138 159 97 240 q 251 32 179 78 q 419 -14 324 -14 q 506 -6 465 -14 q 574 17 546 3 q 508 -2 547 4 q 419 -8 468 -8 q 292 17 350 -8 q 191 90 233 43 q 126 202 149 138 q 103 344 103 267 q 146 535 103 451 q 264 661 189 618 q 175 585 213 632 q 117 477 138 538 q 97 344 97 417 m 721 390 l 726 390 q 710 512 726 460 q 665 601 693 564 q 597 661 636 638 q 686 557 651 622 q 721 390 721 492 m 379 814 l 365 828 l 574 1001 l 588 986 l 379 814 m 376 828 l 381 824 l 576 986 l 572 990 l 376 828 z "},"ě":{"ha":840,"x_min":90,"x_max":750,"o":"m 431 715 q 594 676 526 715 q 697 562 661 636 q 732 383 732 488 l 110 383 l 110 397 l 713 403 q 678 558 713 493 q 582 659 644 624 q 431 694 519 694 q 265 650 338 694 q 151 526 192 606 q 110 344 110 447 q 133 205 110 268 q 197 96 156 142 q 294 25 238 50 q 419 0 351 0 q 523 12 475 0 q 610 47 571 24 q 683 105 650 69 q 740 188 715 140 l 750 174 q 692 88 725 125 q 619 27 660 51 q 528 -9 578 3 q 419 -21 478 -21 q 287 6 347 -21 q 183 82 226 33 q 115 197 139 131 q 90 344 90 264 q 115 494 90 426 q 185 611 140 561 q 293 688 231 661 q 431 715 356 715 m 97 344 q 138 159 97 240 q 251 32 179 78 q 419 -14 324 -14 q 506 -6 465 -14 q 574 17 546 3 q 508 -2 547 4 q 419 -8 468 -8 q 292 17 350 -8 q 191 90 233 43 q 126 202 149 138 q 103 344 103 267 q 146 535 103 451 q 264 661 189 618 q 175 585 213 632 q 117 477 138 538 q 97 344 97 417 m 721 390 l 726 390 q 710 512 726 460 q 665 601 693 564 q 597 661 636 638 q 686 557 651 622 q 721 390 721 492 m 611 988 l 622 976 l 426 814 l 404 814 l 206 976 l 218 988 l 415 829 l 611 988 m 217 976 l 404 822 l 410 822 l 408 824 l 219 979 l 217 976 z "},"ê":{"ha":840,"x_min":90,"x_max":750,"o":"m 431 715 q 594 676 526 715 q 697 562 661 636 q 732 383 732 488 l 110 383 l 110 397 l 713 403 q 678 558 713 493 q 582 659 644 624 q 431 694 519 694 q 265 650 338 694 q 151 526 192 606 q 110 344 110 447 q 133 205 110 268 q 197 96 156 142 q 294 25 238 50 q 419 0 351 0 q 523 12 475 0 q 610 47 571 24 q 683 105 650 69 q 740 188 715 140 l 750 174 q 692 88 725 125 q 619 27 660 51 q 528 -9 578 3 q 419 -21 478 -21 q 287 6 347 -21 q 183 82 226 33 q 115 197 139 131 q 90 344 90 264 q 115 494 90 426 q 185 611 140 561 q 293 688 231 661 q 431 715 356 715 m 97 344 q 138 159 97 240 q 251 32 179 78 q 419 -14 324 -14 q 506 -6 465 -14 q 574 17 546 3 q 508 -2 547 4 q 419 -8 468 -8 q 292 17 350 -8 q 191 90 233 43 q 126 202 149 138 q 103 344 103 267 q 146 535 103 451 q 264 661 189 618 q 175 585 213 632 q 117 477 138 538 q 97 344 97 417 m 721 390 l 726 390 q 710 512 726 460 q 665 601 693 564 q 597 661 636 638 q 686 557 651 622 q 721 390 721 492 m 217 814 l 206 825 l 403 988 l 425 988 l 622 825 l 610 814 l 414 972 l 217 814 m 611 825 l 424 979 l 418 979 l 419 978 l 608 822 l 611 825 z "},"ë":{"ha":840,"x_min":90,"x_max":750,"o":"m 431 715 q 594 676 526 715 q 697 562 661 636 q 732 383 732 488 l 110 383 l 110 397 l 713 403 q 678 558 713 493 q 582 659 644 624 q 431 694 519 694 q 265 650 338 694 q 151 526 192 606 q 110 344 110 447 q 133 205 110 268 q 197 96 156 142 q 294 25 238 50 q 419 0 351 0 q 523 12 475 0 q 610 47 571 24 q 683 105 650 69 q 740 188 715 140 l 750 174 q 692 88 725 125 q 619 27 660 51 q 528 -9 578 3 q 419 -21 478 -21 q 287 6 347 -21 q 183 82 226 33 q 115 197 139 131 q 90 344 90 264 q 115 494 90 426 q 185 611 140 561 q 293 688 231 661 q 431 715 356 715 m 97 344 q 138 159 97 240 q 251 32 179 78 q 419 -14 324 -14 q 506 -6 465 -14 q 574 17 546 3 q 508 -2 547 4 q 419 -8 468 -8 q 292 17 350 -8 q 191 90 233 43 q 126 202 149 138 q 103 344 103 267 q 146 535 103 451 q 264 661 189 618 q 175 585 213 632 q 117 477 138 538 q 97 344 97 417 m 721 390 l 726 390 q 710 512 726 460 q 665 601 693 564 q 597 661 636 638 q 686 557 651 622 q 721 390 721 492 m 553 974 q 603 957 583 974 q 622 914 622 940 q 603 872 622 888 q 553 856 583 856 q 501 872 521 856 q 481 914 481 888 q 501 957 481 940 q 553 974 521 974 m 553 868 q 594 881 578 868 q 610 914 610 894 q 594 948 610 935 q 553 961 578 961 q 510 948 526 961 q 493 914 493 935 q 510 881 493 894 q 553 868 526 868 m 275 974 q 325 957 306 974 q 344 914 344 940 q 325 872 344 888 q 275 856 306 856 q 223 872 243 856 q 203 914 203 888 q 223 957 203 940 q 275 974 243 974 m 275 868 q 316 881 300 868 q 332 914 332 894 q 316 948 332 935 q 275 961 300 961 q 232 948 249 961 q 215 914 215 935 q 232 881 215 894 q 275 868 249 868 z "},"ė":{"ha":840,"x_min":90,"x_max":750,"o":"m 431 715 q 594 676 526 715 q 697 562 661 636 q 732 383 732 488 l 110 383 l 110 397 l 713 403 q 678 558 713 493 q 582 659 644 624 q 431 694 519 694 q 265 650 338 694 q 151 526 192 606 q 110 344 110 447 q 133 205 110 268 q 197 96 156 142 q 294 25 238 50 q 419 0 351 0 q 523 12 475 0 q 610 47 571 24 q 683 105 650 69 q 740 188 715 140 l 750 174 q 692 88 725 125 q 619 27 660 51 q 528 -9 578 3 q 419 -21 478 -21 q 287 6 347 -21 q 183 82 226 33 q 115 197 139 131 q 90 344 90 264 q 115 494 90 426 q 185 611 140 561 q 293 688 231 661 q 431 715 356 715 m 97 344 q 138 159 97 240 q 251 32 179 78 q 419 -14 324 -14 q 506 -6 465 -14 q 574 17 546 3 q 508 -2 547 4 q 419 -8 468 -8 q 292 17 350 -8 q 191 90 233 43 q 126 202 149 138 q 103 344 103 267 q 146 535 103 451 q 264 661 189 618 q 175 585 213 632 q 117 477 138 538 q 97 344 97 417 m 721 390 l 726 390 q 710 512 726 460 q 665 601 693 564 q 597 661 636 638 q 686 557 651 622 q 721 390 721 492 m 415 974 q 465 957 446 974 q 485 914 485 940 q 465 872 485 888 q 415 856 446 856 q 363 872 383 856 q 343 914 343 888 q 363 957 343 940 q 415 974 383 974 m 415 868 q 456 881 440 868 q 472 914 472 894 q 456 948 472 935 q 415 961 440 961 q 372 948 389 961 q 356 914 356 935 q 372 881 356 894 q 415 868 389 868 z "},"è":{"ha":840,"x_min":90,"x_max":750,"o":"m 431 715 q 594 676 526 715 q 697 562 661 636 q 732 383 732 488 l 110 383 l 110 397 l 713 403 q 678 558 713 493 q 582 659 644 624 q 431 694 519 694 q 265 650 338 694 q 151 526 192 606 q 110 344 110 447 q 133 205 110 268 q 197 96 156 142 q 294 25 238 50 q 419 0 351 0 q 523 12 475 0 q 610 47 571 24 q 683 105 650 69 q 740 188 715 140 l 750 174 q 692 88 725 125 q 619 27 660 51 q 528 -9 578 3 q 419 -21 478 -21 q 287 6 347 -21 q 183 82 226 33 q 115 197 139 131 q 90 344 90 264 q 115 494 90 426 q 185 611 140 561 q 293 688 231 661 q 431 715 356 715 m 97 344 q 138 159 97 240 q 251 32 179 78 q 419 -14 324 -14 q 506 -6 465 -14 q 574 17 546 3 q 508 -2 547 4 q 419 -8 468 -8 q 292 17 350 -8 q 191 90 233 43 q 126 202 149 138 q 103 344 103 267 q 146 535 103 451 q 264 661 189 618 q 175 585 213 632 q 117 477 138 538 q 97 344 97 417 m 721 390 l 726 390 q 710 512 726 460 q 665 601 693 564 q 597 661 636 638 q 686 557 651 622 q 721 390 721 492 m 469 814 l 261 986 l 275 1001 l 483 828 l 469 814 m 472 828 l 276 990 l 272 986 l 468 824 l 472 828 z "},"ē":{"ha":840,"x_min":90,"x_max":750,"o":"m 431 715 q 594 676 526 715 q 697 562 661 636 q 732 383 732 488 l 110 383 l 110 397 l 713 403 q 678 558 713 493 q 582 659 644 624 q 431 694 519 694 q 265 650 338 694 q 151 526 192 606 q 110 344 110 447 q 133 205 110 268 q 197 96 156 142 q 294 25 238 50 q 419 0 351 0 q 523 12 475 0 q 610 47 571 24 q 683 105 650 69 q 740 188 715 140 l 750 174 q 692 88 725 125 q 619 27 660 51 q 528 -9 578 3 q 419 -21 478 -21 q 287 6 347 -21 q 183 82 226 33 q 115 197 139 131 q 90 344 90 264 q 115 494 90 426 q 185 611 140 561 q 293 688 231 661 q 431 715 356 715 m 97 344 q 138 159 97 240 q 251 32 179 78 q 419 -14 324 -14 q 506 -6 465 -14 q 574 17 546 3 q 508 -2 547 4 q 419 -8 468 -8 q 292 17 350 -8 q 191 90 233 43 q 126 202 149 138 q 103 344 103 267 q 146 535 103 451 q 264 661 189 618 q 175 585 213 632 q 117 477 138 538 q 97 344 97 417 m 721 390 l 726 390 q 710 512 726 460 q 665 601 693 564 q 597 661 636 638 q 686 557 651 622 q 721 390 721 492 m 192 889 l 192 910 l 636 910 l 636 889 l 192 889 m 206 896 l 622 896 l 622 903 l 206 903 l 206 896 z "},"ę":{"ha":840,"x_min":90,"x_max":750,"o":"m 431 715 q 594 676 526 715 q 697 562 661 636 q 732 383 732 488 l 110 383 l 110 397 l 713 403 q 678 558 713 493 q 582 659 644 624 q 431 694 519 694 q 265 650 338 694 q 151 526 192 606 q 110 344 110 447 q 133 205 110 268 q 197 96 156 142 q 294 25 238 50 q 419 0 351 0 q 523 12 475 0 q 610 47 571 24 q 683 105 650 69 q 740 188 715 140 l 750 174 q 692 88 725 125 q 619 27 660 51 q 528 -9 578 3 q 419 -21 478 -21 q 287 6 347 -21 q 183 82 226 33 q 115 197 139 131 q 90 344 90 264 q 115 494 90 426 q 185 611 140 561 q 293 688 231 661 q 431 715 356 715 m 97 344 q 138 159 97 240 q 251 32 179 78 q 419 -14 324 -14 q 506 -6 465 -14 q 574 17 546 3 q 508 -2 547 4 q 419 -8 468 -8 q 292 17 350 -8 q 191 90 233 43 q 126 202 149 138 q 103 344 103 267 q 146 535 103 451 q 264 661 189 618 q 175 585 213 632 q 117 477 138 538 q 97 344 97 417 m 721 390 l 726 390 q 710 512 726 460 q 665 601 693 564 q 597 661 636 638 q 686 557 651 622 q 721 390 721 492 m 572 6 q 431 -97 478 -47 q 383 -194 383 -146 q 408 -251 383 -229 q 469 -272 432 -272 q 545 -251 510 -272 q 611 -187 581 -231 l 621 -197 q 551 -268 590 -243 q 469 -293 513 -293 q 415 -281 439 -293 q 376 -246 390 -268 q 363 -194 363 -224 q 413 -87 363 -139 q 563 14 463 -35 l 572 6 m 469 -286 q 522 -276 497 -286 q 558 -253 547 -265 q 515 -273 536 -267 q 469 -279 494 -279 q 403 -255 429 -279 q 376 -194 376 -231 q 403 -116 376 -153 q 494 -32 431 -79 q 398 -113 426 -76 q 369 -194 369 -150 q 383 -242 369 -221 q 418 -274 396 -262 q 469 -286 440 -286 z "},"f":{"ha":475,"x_min":83,"x_max":447,"o":"m 83 0 l 83 14 l 181 28 l 181 667 l 83 667 l 83 681 l 181 694 q 172 801 175 751 q 169 885 169 850 q 184 970 169 938 q 229 1019 199 1003 q 307 1035 260 1035 q 363 1027 338 1035 q 408 1004 389 1019 q 437 968 426 989 q 447 922 447 947 q 437 890 447 903 q 410 872 426 878 q 375 865 393 865 q 326 878 349 865 q 303 918 303 892 q 310 949 303 936 q 328 972 318 963 q 345 990 338 982 q 353 1007 353 999 q 343 1017 353 1014 q 307 1019 333 1019 q 217 987 246 1019 q 189 885 189 954 q 190 818 189 851 q 194 753 192 785 q 200 694 197 722 l 388 681 l 388 667 l 200 667 l 200 28 l 311 14 l 311 0 l 83 0 m 211 993 q 192 967 200 982 q 181 931 185 951 q 176 885 176 911 q 181 781 176 831 q 188 694 185 731 l 188 7 l 193 7 l 193 694 q 186 781 190 731 q 182 885 182 831 q 183 913 182 900 q 186 940 185 926 q 195 969 189 956 q 211 993 201 983 m 313 918 q 329 887 313 899 q 375 875 346 875 q 421 888 404 875 q 438 922 438 900 q 432 953 438 939 q 417 981 426 968 q 393 1002 407 993 q 363 1017 379 1011 l 363 1013 q 357 996 363 1006 q 336 968 351 986 q 319 942 325 956 q 313 918 313 929 z "},"g":{"ha":778,"x_min":49,"x_max":688,"o":"m 353 -299 q 244 -285 299 -299 q 147 -248 190 -271 q 76 -196 103 -225 q 49 -136 49 -167 q 59 -104 49 -117 q 86 -85 69 -92 q 121 -79 103 -79 q 171 -92 149 -79 q 193 -132 193 -106 q 185 -157 193 -147 q 167 -174 178 -167 q 146 -186 157 -181 q 127 -197 135 -192 q 119 -210 119 -203 q 152 -241 119 -225 q 238 -267 185 -257 q 353 -278 292 -278 q 517 -255 447 -278 q 624 -190 586 -232 q 661 -90 661 -147 q 633 -4 661 -39 q 541 51 604 31 q 372 81 478 72 q 113 90 267 90 l 113 111 l 281 261 l 297 247 l 156 121 l 156 110 q 362 103 274 110 q 511 83 450 97 q 610 45 572 68 q 664 -12 647 22 q 681 -90 681 -46 q 640 -201 681 -154 q 527 -273 600 -247 q 353 -299 454 -299 m 369 239 q 248 255 303 239 q 153 301 193 271 q 92 372 114 331 q 69 461 69 413 q 92 563 69 517 q 153 644 114 610 q 248 697 193 678 q 369 715 303 715 q 490 697 436 715 q 584 644 544 678 q 645 563 624 610 q 667 461 667 517 q 645 372 667 413 q 584 301 624 331 q 490 255 544 271 q 369 239 435 239 m 369 260 q 514 285 451 260 q 612 357 576 311 q 647 461 647 403 q 612 583 647 531 q 514 665 576 635 q 369 694 451 694 q 224 665 288 694 q 124 583 160 635 q 89 461 89 531 q 124 357 89 403 q 224 285 160 311 q 369 260 288 260 m 496 681 l 428 711 q 480 713 454 713 q 532 715 506 714 q 584 716 558 715 q 635 717 610 717 q 688 719 661 718 l 688 699 l 496 699 l 496 681 m 104 -207 q 114 -193 104 -200 q 147 -174 124 -186 q 172 -158 161 -167 q 183 -132 183 -149 q 165 -99 183 -110 q 121 -89 146 -89 q 77 -100 96 -89 q 58 -136 58 -111 q 61 -155 58 -146 q 69 -174 64 -164 q 83 -192 75 -183 q 104 -207 92 -200 m 506 -268 q 575 -240 544 -257 q 628 -199 606 -222 q 662 -149 650 -176 q 674 -90 674 -122 q 647 1 674 -36 q 558 60 619 38 q 397 93 497 83 q 149 103 296 103 l 149 136 l 119 110 l 119 97 q 379 88 274 97 q 549 56 485 78 q 640 -1 613 35 q 668 -90 668 -37 q 624 -199 668 -154 q 506 -268 579 -244 m 246 267 q 126 344 169 292 q 82 461 82 396 q 103 558 82 513 q 167 640 125 604 q 271 694 208 676 q 186 657 222 681 q 126 603 150 633 q 89 536 101 572 q 76 461 76 500 q 88 398 76 428 q 122 342 100 368 q 176 298 144 317 q 246 267 207 279 m 489 267 q 560 298 529 279 q 614 342 592 317 q 648 398 636 368 q 660 461 660 428 q 648 535 660 500 q 613 601 636 571 q 555 655 590 632 q 472 692 519 678 q 574 638 533 674 q 634 558 614 603 q 654 461 654 513 q 610 344 654 396 q 489 267 567 292 m 506 706 l 681 706 l 681 713 q 600 708 646 710 q 506 706 554 706 z "},"ğ":{"ha":778,"x_min":49,"x_max":688,"o":"m 353 -299 q 244 -285 299 -299 q 147 -248 190 -271 q 76 -196 103 -225 q 49 -136 49 -167 q 59 -104 49 -117 q 86 -85 69 -92 q 121 -79 103 -79 q 171 -92 149 -79 q 193 -132 193 -106 q 185 -157 193 -147 q 167 -174 178 -167 q 146 -186 157 -181 q 127 -197 135 -192 q 119 -210 119 -203 q 152 -241 119 -225 q 238 -267 185 -257 q 353 -278 292 -278 q 517 -255 447 -278 q 624 -190 586 -232 q 661 -90 661 -147 q 633 -4 661 -39 q 541 51 604 31 q 372 81 478 72 q 113 90 267 90 l 113 111 l 281 261 l 297 247 l 156 121 l 156 110 q 362 103 274 110 q 511 83 450 97 q 610 45 572 68 q 664 -12 647 22 q 681 -90 681 -46 q 640 -201 681 -154 q 527 -273 600 -247 q 353 -299 454 -299 m 369 239 q 248 255 303 239 q 153 301 193 271 q 92 372 114 331 q 69 461 69 413 q 92 563 69 517 q 153 644 114 610 q 248 697 193 678 q 369 715 303 715 q 490 697 436 715 q 584 644 544 678 q 645 563 624 610 q 667 461 667 517 q 645 372 667 413 q 584 301 624 331 q 490 255 544 271 q 369 239 435 239 m 369 260 q 514 285 451 260 q 612 357 576 311 q 647 461 647 403 q 612 583 647 531 q 514 665 576 635 q 369 694 451 694 q 224 665 288 694 q 124 583 160 635 q 89 461 89 531 q 124 357 89 403 q 224 285 160 311 q 369 260 288 260 m 496 681 l 428 711 q 480 713 454 713 q 532 715 506 714 q 584 716 558 715 q 635 717 610 717 q 688 719 661 718 l 688 699 l 496 699 l 496 681 m 104 -207 q 114 -193 104 -200 q 147 -174 124 -186 q 172 -158 161 -167 q 183 -132 183 -149 q 165 -99 183 -110 q 121 -89 146 -89 q 77 -100 96 -89 q 58 -136 58 -111 q 61 -155 58 -146 q 69 -174 64 -164 q 83 -192 75 -183 q 104 -207 92 -200 m 506 -268 q 575 -240 544 -257 q 628 -199 606 -222 q 662 -149 650 -176 q 674 -90 674 -122 q 647 1 674 -36 q 558 60 619 38 q 397 93 497 83 q 149 103 296 103 l 149 136 l 119 110 l 119 97 q 379 88 274 97 q 549 56 485 78 q 640 -1 613 35 q 668 -90 668 -37 q 624 -199 668 -154 q 506 -268 579 -244 m 246 267 q 126 344 169 292 q 82 461 82 396 q 103 558 82 513 q 167 640 125 604 q 271 694 208 676 q 186 657 222 681 q 126 603 150 633 q 89 536 101 572 q 76 461 76 500 q 88 398 76 428 q 122 342 100 368 q 176 298 144 317 q 246 267 207 279 m 489 267 q 560 298 529 279 q 614 342 592 317 q 648 398 636 368 q 660 461 660 428 q 648 535 660 500 q 613 601 636 571 q 555 655 590 632 q 472 692 519 678 q 574 638 533 674 q 634 558 614 603 q 654 461 654 513 q 610 344 654 396 q 489 267 567 292 m 506 706 l 681 706 l 681 713 q 600 708 646 710 q 506 706 554 706 m 369 828 q 246 864 300 828 q 161 967 192 900 l 179 974 q 225 906 197 933 q 290 863 253 878 q 369 849 326 849 q 450 863 414 849 q 514 906 486 878 q 560 974 542 933 l 578 967 q 493 864 547 900 q 369 828 439 828 m 369 835 q 481 864 432 835 q 558 947 531 893 q 509 890 538 914 q 445 854 481 867 q 369 842 410 842 q 294 854 329 842 q 230 890 258 867 q 181 947 201 914 q 258 864 208 893 q 369 835 307 835 z "},"ģ":{"ha":778,"x_min":49,"x_max":688,"o":"m 353 -299 q 244 -285 299 -299 q 147 -248 190 -271 q 76 -196 103 -225 q 49 -136 49 -167 q 59 -104 49 -117 q 86 -85 69 -92 q 121 -79 103 -79 q 171 -92 149 -79 q 193 -132 193 -106 q 185 -157 193 -147 q 167 -174 178 -167 q 146 -186 157 -181 q 127 -197 135 -192 q 119 -210 119 -203 q 152 -241 119 -225 q 238 -267 185 -257 q 353 -278 292 -278 q 517 -255 447 -278 q 624 -190 586 -232 q 661 -90 661 -147 q 633 -4 661 -39 q 541 51 604 31 q 372 81 478 72 q 113 90 267 90 l 113 111 l 281 261 l 297 247 l 156 121 l 156 110 q 362 103 274 110 q 511 83 450 97 q 610 45 572 68 q 664 -12 647 22 q 681 -90 681 -46 q 640 -201 681 -154 q 527 -273 600 -247 q 353 -299 454 -299 m 369 239 q 248 255 303 239 q 153 301 193 271 q 92 372 114 331 q 69 461 69 413 q 92 563 69 517 q 153 644 114 610 q 248 697 193 678 q 369 715 303 715 q 490 697 436 715 q 584 644 544 678 q 645 563 624 610 q 667 461 667 517 q 645 372 667 413 q 584 301 624 331 q 490 255 544 271 q 369 239 435 239 m 369 260 q 514 285 451 260 q 612 357 576 311 q 647 461 647 403 q 612 583 647 531 q 514 665 576 635 q 369 694 451 694 q 224 665 288 694 q 124 583 160 635 q 89 461 89 531 q 124 357 89 403 q 224 285 160 311 q 369 260 288 260 m 496 681 l 428 711 q 480 713 454 713 q 532 715 506 714 q 584 716 558 715 q 635 717 610 717 q 688 719 661 718 l 688 699 l 496 699 l 496 681 m 104 -207 q 114 -193 104 -200 q 147 -174 124 -186 q 172 -158 161 -167 q 183 -132 183 -149 q 165 -99 183 -110 q 121 -89 146 -89 q 77 -100 96 -89 q 58 -136 58 -111 q 61 -155 58 -146 q 69 -174 64 -164 q 83 -192 75 -183 q 104 -207 92 -200 m 506 -268 q 575 -240 544 -257 q 628 -199 606 -222 q 662 -149 650 -176 q 674 -90 674 -122 q 647 1 674 -36 q 558 60 619 38 q 397 93 497 83 q 149 103 296 103 l 149 136 l 119 110 l 119 97 q 379 88 274 97 q 549 56 485 78 q 640 -1 613 35 q 668 -90 668 -37 q 624 -199 668 -154 q 506 -268 579 -244 m 246 267 q 126 344 169 292 q 82 461 82 396 q 103 558 82 513 q 167 640 125 604 q 271 694 208 676 q 186 657 222 681 q 126 603 150 633 q 89 536 101 572 q 76 461 76 500 q 88 398 76 428 q 122 342 100 368 q 176 298 144 317 q 246 267 207 279 m 489 267 q 560 298 529 279 q 614 342 592 317 q 648 398 636 368 q 660 461 660 428 q 648 535 660 500 q 613 601 636 571 q 555 655 590 632 q 472 692 519 678 q 574 638 533 674 q 634 558 614 603 q 654 461 654 513 q 610 344 654 396 q 489 267 567 292 m 506 706 l 681 706 l 681 713 q 600 708 646 710 q 506 706 554 706 m 439 1029 l 444 1017 q 408 999 426 1010 q 376 977 390 989 q 353 951 361 965 l 367 939 l 372 939 q 406 931 392 939 q 429 908 421 922 q 438 874 438 893 q 428 843 438 857 q 404 822 419 829 q 368 814 389 814 q 333 823 349 814 q 310 847 318 832 q 301 879 301 861 q 310 925 301 904 q 335 965 318 946 q 378 999 353 983 q 439 1029 404 1015 m 340 947 q 322 915 328 933 q 315 876 315 896 q 331 840 315 854 q 369 826 346 826 q 410 840 394 826 q 426 874 426 853 q 412 912 426 897 q 374 926 397 926 q 369 926 372 926 q 364 926 367 926 l 340 947 z "},"ġ":{"ha":778,"x_min":49,"x_max":688,"o":"m 353 -299 q 244 -285 299 -299 q 147 -248 190 -271 q 76 -196 103 -225 q 49 -136 49 -167 q 59 -104 49 -117 q 86 -85 69 -92 q 121 -79 103 -79 q 171 -92 149 -79 q 193 -132 193 -106 q 185 -157 193 -147 q 167 -174 178 -167 q 146 -186 157 -181 q 127 -197 135 -192 q 119 -210 119 -203 q 152 -241 119 -225 q 238 -267 185 -257 q 353 -278 292 -278 q 517 -255 447 -278 q 624 -190 586 -232 q 661 -90 661 -147 q 633 -4 661 -39 q 541 51 604 31 q 372 81 478 72 q 113 90 267 90 l 113 111 l 281 261 l 297 247 l 156 121 l 156 110 q 362 103 274 110 q 511 83 450 97 q 610 45 572 68 q 664 -12 647 22 q 681 -90 681 -46 q 640 -201 681 -154 q 527 -273 600 -247 q 353 -299 454 -299 m 369 239 q 248 255 303 239 q 153 301 193 271 q 92 372 114 331 q 69 461 69 413 q 92 563 69 517 q 153 644 114 610 q 248 697 193 678 q 369 715 303 715 q 490 697 436 715 q 584 644 544 678 q 645 563 624 610 q 667 461 667 517 q 645 372 667 413 q 584 301 624 331 q 490 255 544 271 q 369 239 435 239 m 369 260 q 514 285 451 260 q 612 357 576 311 q 647 461 647 403 q 612 583 647 531 q 514 665 576 635 q 369 694 451 694 q 224 665 288 694 q 124 583 160 635 q 89 461 89 531 q 124 357 89 403 q 224 285 160 311 q 369 260 288 260 m 496 681 l 428 711 q 480 713 454 713 q 532 715 506 714 q 584 716 558 715 q 635 717 610 717 q 688 719 661 718 l 688 699 l 496 699 l 496 681 m 104 -207 q 114 -193 104 -200 q 147 -174 124 -186 q 172 -158 161 -167 q 183 -132 183 -149 q 165 -99 183 -110 q 121 -89 146 -89 q 77 -100 96 -89 q 58 -136 58 -111 q 61 -155 58 -146 q 69 -174 64 -164 q 83 -192 75 -183 q 104 -207 92 -200 m 506 -268 q 575 -240 544 -257 q 628 -199 606 -222 q 662 -149 650 -176 q 674 -90 674 -122 q 647 1 674 -36 q 558 60 619 38 q 397 93 497 83 q 149 103 296 103 l 149 136 l 119 110 l 119 97 q 379 88 274 97 q 549 56 485 78 q 640 -1 613 35 q 668 -90 668 -37 q 624 -199 668 -154 q 506 -268 579 -244 m 246 267 q 126 344 169 292 q 82 461 82 396 q 103 558 82 513 q 167 640 125 604 q 271 694 208 676 q 186 657 222 681 q 126 603 150 633 q 89 536 101 572 q 76 461 76 500 q 88 398 76 428 q 122 342 100 368 q 176 298 144 317 q 246 267 207 279 m 489 267 q 560 298 529 279 q 614 342 592 317 q 648 398 636 368 q 660 461 660 428 q 648 535 660 500 q 613 601 636 571 q 555 655 590 632 q 472 692 519 678 q 574 638 533 674 q 634 558 614 603 q 654 461 654 513 q 610 344 654 396 q 489 267 567 292 m 506 706 l 681 706 l 681 713 q 600 708 646 710 q 506 706 554 706 m 371 974 q 421 957 401 974 q 440 914 440 940 q 421 872 440 888 q 371 856 401 856 q 319 872 339 856 q 299 914 299 888 q 319 957 299 940 q 371 974 339 974 m 371 868 q 412 881 396 868 q 428 914 428 894 q 412 948 428 935 q 371 961 396 961 q 328 948 344 961 q 311 914 311 935 q 328 881 311 894 q 371 868 344 868 z "},"h":{"ha":888,"x_min":83,"x_max":832,"o":"m 832 14 l 832 0 l 646 0 l 646 14 l 729 28 l 729 469 q 688 639 729 583 q 560 694 646 694 q 458 674 510 694 q 359 617 407 654 q 270 528 311 579 q 200 417 229 478 l 200 28 l 283 14 l 283 0 l 97 0 l 97 14 l 181 28 l 181 978 l 83 978 l 83 993 l 200 1035 l 200 486 l 211 478 q 318 607 261 554 q 437 688 375 660 q 560 715 499 715 q 642 700 607 715 q 701 654 678 685 q 737 578 725 624 q 749 469 749 532 l 749 28 l 832 14 m 188 7 l 193 7 l 193 1024 l 188 1021 l 188 7 m 736 7 l 742 7 l 742 469 q 722 604 742 551 q 661 683 701 657 q 560 708 621 708 q 430 676 496 708 q 299 574 364 644 q 431 672 364 640 q 560 703 497 703 q 693 644 650 703 q 736 469 736 586 l 736 7 z "},"ħ":{"ha":888,"x_min":83,"x_max":832,"o":"m 83 844 l 339 844 l 339 824 l 83 824 l 83 844 m 97 831 l 325 831 l 325 838 l 97 838 l 97 831 m 832 14 l 832 0 l 646 0 l 646 14 l 729 28 l 729 469 q 688 639 729 583 q 560 694 646 694 q 458 674 510 694 q 359 617 407 654 q 270 528 311 579 q 200 417 229 478 l 200 28 l 283 14 l 283 0 l 97 0 l 97 14 l 181 28 l 181 978 l 83 978 l 83 993 l 200 1035 l 200 486 l 211 478 q 318 607 261 554 q 437 688 375 660 q 560 715 499 715 q 642 700 607 715 q 701 654 678 685 q 737 578 725 624 q 749 469 749 532 l 749 28 l 832 14 m 188 7 l 193 7 l 193 1024 l 188 1021 l 188 7 m 736 7 l 742 7 l 742 469 q 722 604 742 551 q 661 683 701 657 q 560 708 621 708 q 430 676 496 708 q 299 574 364 644 q 431 672 364 640 q 560 703 497 703 q 693 644 650 703 q 736 469 736 586 l 736 7 z "},"i":{"ha":381,"x_min":83,"x_max":283,"o":"m 179 856 q 142 863 158 856 q 117 884 126 871 q 108 914 108 897 q 117 945 108 932 q 142 966 126 958 q 179 974 158 974 q 216 966 200 974 q 241 945 232 958 q 250 914 250 932 q 241 884 250 897 q 216 863 232 871 q 179 856 200 856 m 97 0 l 97 14 l 181 28 l 181 658 l 83 658 l 83 674 l 200 715 l 200 28 l 283 14 l 283 0 l 97 0 m 188 7 l 193 7 l 193 704 l 188 701 l 188 7 m 179 868 q 208 874 196 868 q 228 891 221 881 q 235 914 235 901 q 228 938 235 928 q 208 955 221 949 q 179 961 196 961 q 149 955 163 961 q 128 938 136 949 q 121 914 121 928 q 128 891 121 901 q 149 874 136 881 q 179 868 163 868 z "},"ı":{"ha":353,"x_min":83,"x_max":283,"o":"m 97 0 l 97 14 l 181 28 l 181 658 l 83 658 l 83 674 l 200 715 l 200 28 l 283 14 l 283 0 l 97 0 m 188 7 l 193 7 l 193 704 l 188 701 l 188 7 z "},"í":{"ha":353,"x_min":83,"x_max":350,"o":"m 97 0 l 97 14 l 181 28 l 181 658 l 83 658 l 83 674 l 200 715 l 200 28 l 283 14 l 283 0 l 97 0 m 188 7 l 193 7 l 193 704 l 188 701 l 188 7 m 142 814 l 128 828 l 336 1001 l 350 986 l 142 814 m 139 828 l 143 824 l 339 986 l 335 990 l 139 828 z "},"î":{"ha":353,"x_min":-32,"x_max":385,"o":"m 97 0 l 97 14 l 181 28 l 181 658 l 83 658 l 83 674 l 200 715 l 200 28 l 283 14 l 283 0 l 97 0 m 188 7 l 193 7 l 193 704 l 188 701 l 188 7 m -21 814 l -32 825 l 165 988 l 188 988 l 385 825 l 372 814 l 176 972 l -21 814 m 374 825 l 186 979 l 181 979 l 182 978 l 371 822 l 374 825 z "},"ï":{"ha":353,"x_min":-35,"x_max":385,"o":"m 97 0 l 97 14 l 181 28 l 181 658 l 83 658 l 83 674 l 200 715 l 200 28 l 283 14 l 283 0 l 97 0 m 188 7 l 193 7 l 193 704 l 188 701 l 188 7 m 315 974 q 365 957 346 974 q 385 914 385 940 q 365 872 385 888 q 315 856 346 856 q 263 872 283 856 q 243 914 243 888 q 263 957 243 940 q 315 974 283 974 m 315 868 q 356 881 340 868 q 372 914 372 894 q 356 948 372 935 q 315 961 340 961 q 272 948 289 961 q 256 914 256 935 q 272 881 256 894 q 315 868 289 868 m 38 974 q 88 957 68 974 q 107 914 107 940 q 88 872 107 888 q 38 856 68 856 q -15 872 6 856 q -35 914 -35 888 q -15 957 -35 940 q 38 974 6 974 m 38 868 q 78 881 63 868 q 94 914 94 894 q 78 948 94 935 q 38 961 63 961 q -6 948 11 961 q -22 914 -22 935 q -6 881 -22 894 q 38 868 11 868 z "},"ì":{"ha":353,"x_min":24,"x_max":283,"o":"m 97 0 l 97 14 l 181 28 l 181 658 l 83 658 l 83 674 l 200 715 l 200 28 l 283 14 l 283 0 l 97 0 m 188 7 l 193 7 l 193 704 l 188 701 l 188 7 m 232 814 l 24 986 l 38 1001 l 246 828 l 232 814 m 235 828 l 39 990 l 35 986 l 231 824 l 235 828 z "},"ī":{"ha":353,"x_min":-46,"x_max":399,"o":"m 97 0 l 97 14 l 181 28 l 181 658 l 83 658 l 83 674 l 200 715 l 200 28 l 283 14 l 283 0 l 97 0 m 188 7 l 193 7 l 193 704 l 188 701 l 188 7 m -46 889 l -46 910 l 399 910 l 399 889 l -46 889 m -32 896 l 385 896 l 385 903 l -32 903 l -32 896 z "},"į":{"ha":381,"x_min":74,"x_max":332,"o":"m 179 856 q 142 863 158 856 q 117 884 126 871 q 108 914 108 897 q 117 945 108 932 q 142 966 126 958 q 179 974 158 974 q 216 966 200 974 q 241 945 232 958 q 250 914 250 932 q 241 884 250 897 q 216 863 232 871 q 179 856 200 856 m 97 0 l 97 14 l 181 28 l 181 658 l 83 658 l 83 674 l 200 715 l 200 28 l 283 14 l 283 0 l 97 0 m 188 7 l 193 7 l 193 704 l 188 701 l 188 7 m 179 868 q 208 874 196 868 q 228 891 221 881 q 235 914 235 901 q 228 938 235 928 q 208 955 221 949 q 179 961 196 961 q 149 955 163 961 q 128 938 136 949 q 121 914 121 928 q 128 891 121 901 q 149 874 136 881 q 179 868 163 868 m 283 6 q 142 -97 189 -47 q 94 -194 94 -146 q 119 -251 94 -229 q 181 -272 143 -272 q 256 -251 221 -272 q 322 -187 292 -231 l 332 -197 q 263 -268 301 -243 q 181 -293 224 -293 q 126 -281 150 -293 q 88 -246 101 -268 q 74 -194 74 -224 q 124 -87 74 -139 q 274 14 174 -35 l 283 6 m 181 -286 q 233 -276 208 -286 q 269 -253 258 -265 q 226 -273 247 -267 q 181 -279 206 -279 q 114 -255 140 -279 q 88 -194 88 -231 q 115 -116 88 -153 q 206 -32 142 -79 q 109 -113 138 -76 q 81 -194 81 -150 q 94 -242 81 -221 q 129 -274 107 -262 q 181 -286 151 -286 z "}}}
